<?xml version="1.0" encoding="UTF-8"?>
<!DOCTYPE svg PUBLIC "-//W3C//DTD SVG 1.1//EN" "http://www.w3.org/Graphics/SVG/1.1/DTD/svg11.dtd">
<svg xmlns="http://www.w3.org/2000/svg" version="1.1" width="482px" height="512px" style="shape-rendering:geometricPrecision; text-rendering:geometricPrecision; image-rendering:optimizeQuality; fill-rule:evenodd; clip-rule:evenodd" xmlns:xlink="http://www.w3.org/1999/xlink">
<g><path style="opacity:0.999" fill="#e23237" d="M 239.5,1.5 C 238.5,1.5 237.5,1.5 236.5,1.5C 236.5,21.1667 236.5,40.8333 236.5,60.5C 187.786,169.597 138.786,278.597 89.5,387.5C 107.827,388.265 126.16,388.098 144.5,387C 154.662,362.679 164.328,338.179 173.5,313.5C 194.5,313.5 215.5,313.5 236.5,313.5C 236.5,379.167 236.5,444.833 236.5,510.5C 169.861,473.512 103.194,436.512 36.5,399.5C 35.7189,398.271 35.2189,396.938 35,395.5C 23.4803,294.315 11.647,193.315 -0.5,92.5C -0.5,89.8333 -0.5,87.1667 -0.5,84.5C 77.8477,56.7725 156.181,28.9392 234.5,1C 236.387,0.220387 238.054,0.387053 239.5,1.5 Z"/></g>
<g><path style="opacity:1" fill="#b52e31" d="M 239.5,1.5 C 319.588,28.3628 399.588,55.5295 479.5,83C 467.378,187.81 454.378,292.643 440.5,397.5C 372.483,435.195 304.483,472.861 236.5,510.5C 236.5,444.833 236.5,379.167 236.5,313.5C 259.836,313.333 283.169,313.5 306.5,314C 317.296,338.426 327.962,362.926 338.5,387.5C 344.463,388.496 350.463,388.829 356.5,388.5C 368.007,389.824 379.673,389.824 391.5,388.5C 391.376,387.893 391.043,387.56 390.5,387.5C 339.403,278.31 288.07,169.31 236.5,60.5C 236.5,40.8333 236.5,21.1667 236.5,1.5C 237.5,1.5 238.5,1.5 239.5,1.5 Z"/></g>
<g><path style="opacity:1" fill="#fefefe" d="M 236.5,60.5 C 288.07,169.31 339.403,278.31 390.5,387.5C 379.346,388.495 368.012,388.828 356.5,388.5C 350.463,388.829 344.463,388.496 338.5,387.5C 327.962,362.926 317.296,338.426 306.5,314C 283.169,313.5 259.836,313.333 236.5,313.5C 215.5,313.5 194.5,313.5 173.5,313.5C 164.328,338.179 154.662,362.679 144.5,387C 126.16,388.098 107.827,388.265 89.5,387.5C 138.786,278.597 187.786,169.597 236.5,60.5 Z"/></g>
<g><path style="opacity:1" fill="#b52f31" d="M 286.5,268.5 C 270.008,269.497 253.342,269.83 236.5,269.5C 236.832,235.996 236.498,202.662 235.5,169.5C 236.089,166.215 237.256,165.882 239,168.5C 254.574,201.981 270.408,235.314 286.5,268.5 Z"/></g>
<g><path style="opacity:1" fill="#e23338" d="M 235.5,169.5 C 236.498,202.662 236.832,235.996 236.5,269.5C 222.167,269.5 207.833,269.5 193.5,269.5C 207.5,236.167 221.5,202.833 235.5,169.5 Z"/></g>
<g><path style="opacity:1" fill="#f4d8d9" d="M 286.5,268.5 C 287.043,268.56 287.376,268.893 287.5,269.5C 256.003,270.83 224.669,270.83 193.5,269.5C 207.833,269.5 222.167,269.5 236.5,269.5C 253.342,269.83 270.008,269.497 286.5,268.5 Z"/></g>
<g><path style="opacity:1" fill="#eecece" d="M 390.5,387.5 C 391.043,387.56 391.376,387.893 391.5,388.5C 379.673,389.824 368.007,389.824 356.5,388.5C 368.012,388.828 379.346,388.495 390.5,387.5 Z"/></g>
</svg>
