<?xml version="1.0" encoding="UTF-8"?>
<!DOCTYPE svg PUBLIC "-//W3C//DTD SVG 1.1//EN" "http://www.w3.org/Graphics/SVG/1.1/DTD/svg11.dtd">
<svg xmlns="http://www.w3.org/2000/svg" version="1.1" width="485px" height="515px" style="shape-rendering:geometricPrecision; text-rendering:geometricPrecision; image-rendering:optimizeQuality; fill-rule:evenodd; clip-rule:evenodd" xmlns:xlink="http://www.w3.org/1999/xlink">
<g><path style="opacity:0.053" fill="#ebf0f4" d="M 447.5,22.5 C 310.5,22.5 173.5,22.5 36.5,22.5C 36.5,25.1667 36.5,27.8333 36.5,30.5C 35.5233,27.7131 35.19,24.7131 35.5,21.5C 173.001,21.1671 310.334,21.5004 447.5,22.5 Z"/></g>
<g><path style="opacity:1" fill="#1f74ba" d="M 447.5,22.5 C 448.156,23.6216 448.489,24.9549 448.5,26.5C 446.775,42.9762 445.108,59.3095 443.5,75.5C 441.209,90.6017 439.875,105.935 439.5,121.5C 439.717,126.23 439.383,130.897 438.5,135.5C 436.772,141.238 436.105,147.238 436.5,153.5C 436.5,153.833 436.5,154.167 436.5,154.5C 435.131,162.63 434.464,170.963 434.5,179.5C 432.158,194.26 430.824,209.26 430.5,224.5C 430.769,228.931 430.436,233.265 429.5,237.5C 427.799,243.919 427.133,250.585 427.5,257.5C 427.536,266.037 426.869,274.37 425.5,282.5C 423.799,288.919 423.133,295.585 423.5,302.5C 423.536,311.037 422.869,319.37 421.5,327.5C 419.389,338.586 418.389,349.92 418.5,361.5C 417.079,369.291 416.413,377.291 416.5,385.5C 415.492,403.278 413.826,420.945 411.5,438.5C 410.842,440.639 409.842,442.639 408.5,444.5C 353.661,460.889 298.661,476.889 243.5,492.5C 220.92,486.609 198.587,480.275 176.5,473.5C 174.898,471.926 172.898,471.259 170.5,471.5C 168.095,470.232 165.428,469.565 162.5,469.5C 160.102,469.741 158.102,469.074 156.5,467.5C 154.095,466.232 151.428,465.565 148.5,465.5C 146.901,465.768 145.568,465.434 144.5,464.5C 142.562,462.837 140.228,462.171 137.5,462.5C 135.901,462.768 134.568,462.434 133.5,461.5C 131.485,460.076 129.152,459.41 126.5,459.5C 126.167,459.5 125.833,459.5 125.5,459.5C 124.01,457.72 122.01,457.054 119.5,457.5C 117.485,456.076 115.152,455.41 112.5,455.5C 98.4312,451.982 84.4312,448.149 70.5,444C 69.5286,438.928 69.1953,433.762 69.5,428.5C 69.7055,421.604 69.0389,414.937 67.5,408.5C 67.5,408.167 67.5,407.833 67.5,407.5C 67.4848,398.635 66.8181,389.968 65.5,381.5C 65.5,381.167 65.5,380.833 65.5,380.5C 65.3919,371.642 64.7253,362.975 63.5,354.5C 58.047,298.927 53.3803,243.261 49.5,187.5C 49.5361,178.963 48.8695,170.63 47.5,162.5C 46.4291,154.919 45.7625,147.252 45.5,139.5C 45.4848,130.635 44.8181,121.968 43.5,113.5C 41.8783,97.2324 40.545,80.8991 39.5,64.5C 39.4848,55.6351 38.8181,46.9684 37.5,38.5C 36.7347,35.9039 36.4013,33.2372 36.5,30.5C 36.5,27.8333 36.5,25.1667 36.5,22.5C 173.5,22.5 310.5,22.5 447.5,22.5 Z M 368.5,112.5 C 369.833,129.167 369.833,145.833 368.5,162.5C 330.841,177.339 293.508,192.672 256.5,208.5C 254.287,208.848 252.287,209.681 250.5,211C 251.5,211.5 252.5,212 253.5,212.5C 288.441,211.6 323.441,211.267 358.5,211.5C 359.403,214.391 359.736,217.391 359.5,220.5C 359.5,221.833 359.5,223.167 359.5,224.5C 358.194,229.616 357.527,234.949 357.5,240.5C 356.093,254.464 355.093,268.464 354.5,282.5C 353.111,287.269 352.444,292.269 352.5,297.5C 351.447,307.805 350.78,318.139 350.5,328.5C 349.043,333.598 348.376,338.931 348.5,344.5C 347.885,352.876 346.885,361.209 345.5,369.5C 344.261,369.942 343.261,370.609 342.5,371.5C 339.848,371.41 337.515,372.076 335.5,373.5C 330.835,374.057 326.502,375.39 322.5,377.5C 319.848,377.41 317.515,378.076 315.5,379.5C 314.508,379.328 313.842,379.662 313.5,380.5C 310.848,380.41 308.515,381.076 306.5,382.5C 301.835,383.057 297.502,384.39 293.5,386.5C 290.848,386.41 288.515,387.076 286.5,388.5C 285.508,388.328 284.842,388.662 284.5,389.5C 281.848,389.41 279.515,390.076 277.5,391.5C 265.448,394.628 253.448,397.961 241.5,401.5C 206.418,391.228 171.085,381.561 135.5,372.5C 133.472,345.802 131.139,319.135 128.5,292.5C 145.167,292.5 161.833,292.5 178.5,292.5C 178.216,294.415 178.549,296.081 179.5,297.5C 179.851,308.828 181.184,319.995 183.5,331C 198.603,335.776 213.936,339.609 229.5,342.5C 233.737,344.527 238.07,344.861 242.5,343.5C 242.833,343.5 243.167,343.5 243.5,343.5C 261.93,340.706 280.264,337.373 298.5,333.5C 300.861,313.197 302.861,292.864 304.5,272.5C 305.477,269.713 305.81,266.713 305.5,263.5C 245.833,263.5 186.167,263.5 126.5,263.5C 126.768,261.901 126.434,260.568 125.5,259.5C 123.718,244.795 121.718,230.128 119.5,215.5C 158.314,199.012 196.98,182.346 235.5,165.5C 237.423,165.205 239.09,164.372 240.5,163C 199.501,162.5 158.501,162.333 117.5,162.5C 117.737,161.209 117.404,160.209 116.5,159.5C 115.069,145.045 113.069,130.712 110.5,116.5C 110.5,115.167 110.5,113.833 110.5,112.5C 196.5,112.5 282.5,112.5 368.5,112.5 Z"/></g>
<g><path style="opacity:0.184" fill="#bcd2e7" d="M 37.5,38.5 C 38.8181,46.9684 39.4848,55.6351 39.5,64.5C 38.0852,56.0387 37.4186,47.372 37.5,38.5 Z"/></g>
<g><path style="opacity:1" fill="#1e88c7" d="M 241.5,401.5 C 253.448,397.961 265.448,394.628 277.5,391.5C 280.152,391.59 282.485,390.924 284.5,389.5C 284.842,388.662 285.508,388.328 286.5,388.5C 289.152,388.59 291.485,387.924 293.5,386.5C 297.502,384.39 301.835,383.057 306.5,382.5C 309.152,382.59 311.485,381.924 313.5,380.5C 313.842,379.662 314.508,379.328 315.5,379.5C 318.152,379.59 320.485,378.924 322.5,377.5C 326.502,375.39 330.835,374.057 335.5,373.5C 338.152,373.59 340.485,372.924 342.5,371.5C 343.261,370.609 344.261,369.942 345.5,369.5C 346.885,361.209 347.885,352.876 348.5,344.5C 349.806,339.384 350.473,334.051 350.5,328.5C 350.78,318.139 351.447,307.805 352.5,297.5C 354.031,292.75 354.698,287.75 354.5,282.5C 355.093,268.464 356.093,254.464 357.5,240.5C 358.957,235.402 359.624,230.069 359.5,224.5C 359.5,223.167 359.5,221.833 359.5,220.5C 360.477,217.713 360.81,214.713 360.5,211.5C 325.669,210.667 290.669,210.167 255.5,210C 256.056,209.617 256.389,209.117 256.5,208.5C 293.508,192.672 330.841,177.339 368.5,162.5C 370.485,146.2 371.152,129.534 370.5,112.5C 328.337,111.501 286.003,111.168 243.5,111.5C 243.5,95.5 243.5,79.5 243.5,63.5C 299.833,63.5 356.167,63.5 412.5,63.5C 401.737,179.423 391.737,295.423 382.5,411.5C 336.152,424.338 289.819,437.338 243.5,450.5C 244.129,433.927 243.462,417.594 241.5,401.5 Z"/></g>
<g><path style="opacity:0.751" fill="#5ba0d1" d="M 243.5,111.5 C 286.003,111.168 328.337,111.501 370.5,112.5C 369.833,112.5 369.167,112.5 368.5,112.5C 282.5,112.5 196.5,112.5 110.5,112.5C 110.5,113.833 110.5,115.167 110.5,116.5C 109.549,115.081 109.216,113.415 109.5,111.5C 154.167,111.5 198.833,111.5 243.5,111.5 Z"/></g>
<g><path style="opacity:0.497" fill="#93c7e4" d="M 368.5,112.5 C 369.167,112.5 369.833,112.5 370.5,112.5C 371.152,129.534 370.485,146.2 368.5,162.5C 369.833,145.833 369.833,129.167 368.5,112.5 Z"/></g>
<g><path style="opacity:0.169" fill="#bdd3e7" d="M 443.5,75.5 C 442.615,91.0192 441.282,106.352 439.5,121.5C 439.875,105.935 441.209,90.6017 443.5,75.5 Z"/></g>
<g><path style="opacity:0.325" fill="#b0cbe3" d="M 43.5,113.5 C 44.8181,121.968 45.4848,130.635 45.5,139.5C 44.0852,131.039 43.4186,122.372 43.5,113.5 Z"/></g>
<g><path style="opacity:0.286" fill="#b9d1e6" d="M 438.5,135.5 C 438.156,141.678 437.489,147.678 436.5,153.5C 436.105,147.238 436.772,141.238 438.5,135.5 Z"/></g>
<g><path style="opacity:0.698" fill="#6ea5d2" d="M 116.5,159.5 C 117.404,160.209 117.737,161.209 117.5,162.5C 158.501,162.333 199.501,162.5 240.5,163C 239.09,164.372 237.423,165.205 235.5,165.5C 235.611,164.883 235.944,164.383 236.5,164C 196.501,163.5 156.501,163.333 116.5,163.5C 116.5,162.167 116.5,160.833 116.5,159.5 Z"/></g>
<g><path style="opacity:0.275" fill="#b7cfe5" d="M 436.5,154.5 C 436.536,163.037 435.869,171.37 434.5,179.5C 434.464,170.963 435.131,162.63 436.5,154.5 Z"/></g>
<g><path style="opacity:0.271" fill="#b4cde4" d="M 47.5,162.5 C 48.8695,170.63 49.5361,178.963 49.5,187.5C 48.0375,179.377 47.3709,171.044 47.5,162.5 Z"/></g>
<g><path style="opacity:0.612" fill="#aac7e1" d="M 434.5,179.5 C 433.565,194.682 432.231,209.682 430.5,224.5C 430.824,209.26 432.158,194.26 434.5,179.5 Z"/></g>
<g><path style="opacity:0.899" fill="#72aed9" d="M 256.5,208.5 C 256.389,209.117 256.056,209.617 255.5,210C 290.669,210.167 325.669,210.667 360.5,211.5C 359.833,211.5 359.167,211.5 358.5,211.5C 323.441,211.267 288.441,211.6 253.5,212.5C 252.5,212 251.5,211.5 250.5,211C 252.287,209.681 254.287,208.848 256.5,208.5 Z"/></g>
<g><path style="opacity:0.576" fill="#b9d9ed" d="M 358.5,211.5 C 359.167,211.5 359.833,211.5 360.5,211.5C 360.81,214.713 360.477,217.713 359.5,220.5C 359.736,217.391 359.403,214.391 358.5,211.5 Z"/></g>
<g><path style="opacity:0.612" fill="#96c5e4" d="M 359.5,224.5 C 359.624,230.069 358.957,235.402 357.5,240.5C 357.527,234.949 358.194,229.616 359.5,224.5 Z"/></g>
<g><path style="opacity:0.616" fill="#a6c4e0" d="M 429.5,237.5 C 429.182,244.346 428.515,251.013 427.5,257.5C 427.133,250.585 427.799,243.919 429.5,237.5 Z"/></g>
<g><path style="opacity:0.456" fill="#9cc4e2" d="M 125.5,259.5 C 126.434,260.568 126.768,261.901 126.5,263.5C 186.167,263.5 245.833,263.5 305.5,263.5C 305.81,266.713 305.477,269.713 304.5,272.5C 304.5,269.833 304.5,267.167 304.5,264.5C 284.167,264.5 263.833,264.5 243.5,264.5C 204.167,264.5 164.833,264.5 125.5,264.5C 125.5,262.833 125.5,261.167 125.5,259.5 Z"/></g>
<g><path style="opacity:1" fill="#258ac8" d="M 243.5,264.5 C 263.833,264.5 284.167,264.5 304.5,264.5C 304.5,267.167 304.5,269.833 304.5,272.5C 302.861,292.864 300.861,313.197 298.5,333.5C 280.264,337.373 261.93,340.706 243.5,343.5C 243.5,317.167 243.5,290.833 243.5,264.5 Z"/></g>
<g><path style="opacity:0.111" fill="#deeaf5" d="M 128.5,292.5 C 145.325,291.503 162.325,291.17 179.5,291.5C 179.5,293.5 179.5,295.5 179.5,297.5C 178.549,296.081 178.216,294.415 178.5,292.5C 161.833,292.5 145.167,292.5 128.5,292.5 Z"/></g>
<g><path style="opacity:0.643" fill="#a4c3e0" d="M 425.5,282.5 C 425.182,289.346 424.515,296.013 423.5,302.5C 423.133,295.585 423.799,288.919 425.5,282.5 Z"/></g>
<g><path style="opacity:0.498" fill="#a3cce7" d="M 354.5,282.5 C 354.698,287.75 354.031,292.75 352.5,297.5C 352.444,292.269 353.111,287.269 354.5,282.5 Z"/></g>
<g><path style="opacity:0.949" fill="#8db4db" d="M 229.5,342.5 C 233.81,343.08 238.143,343.414 242.5,343.5C 238.07,344.861 233.737,344.527 229.5,342.5 Z"/></g>
<g><path style="opacity:0.659" fill="#97c6e4" d="M 350.5,328.5 C 350.473,334.051 349.806,339.384 348.5,344.5C 348.376,338.931 349.043,333.598 350.5,328.5 Z"/></g>
<g><path style="opacity:0.318" fill="#a7c5e1" d="M 421.5,327.5 C 420.796,339.006 419.796,350.34 418.5,361.5C 418.389,349.92 419.389,338.586 421.5,327.5 Z"/></g>
<g><path style="opacity:0.098" fill="#bcd2e6" d="M 63.5,354.5 C 64.7253,362.975 65.3919,371.642 65.5,380.5C 64.0014,372.045 63.3348,363.378 63.5,354.5 Z"/></g>
<g><path style="opacity:0.925" fill="#7db7dd" d="M 342.5,371.5 C 340.485,372.924 338.152,373.59 335.5,373.5C 337.515,372.076 339.848,371.41 342.5,371.5 Z"/></g>
<g><path style="opacity:0.929" fill="#7fb7dd" d="M 322.5,377.5 C 320.485,378.924 318.152,379.59 315.5,379.5C 317.515,378.076 319.848,377.41 322.5,377.5 Z"/></g>
<g><path style="opacity:0.298" fill="#b5cee4" d="M 418.5,361.5 C 418.483,369.701 417.817,377.701 416.5,385.5C 416.413,377.291 417.079,369.291 418.5,361.5 Z"/></g>
<g><path style="opacity:0.925" fill="#7db6dd" d="M 313.5,380.5 C 311.485,381.924 309.152,382.59 306.5,382.5C 308.515,381.076 310.848,380.41 313.5,380.5 Z"/></g>
<g><path style="opacity:0.91" fill="#7fb8de" d="M 293.5,386.5 C 291.485,387.924 289.152,388.59 286.5,388.5C 288.515,387.076 290.848,386.41 293.5,386.5 Z"/></g>
<g><path style="opacity:0.22" fill="#b0cbe3" d="M 65.5,381.5 C 66.8181,389.968 67.4848,398.635 67.5,407.5C 66.0014,399.045 65.3348,390.378 65.5,381.5 Z"/></g>
<g><path style="opacity:0.914" fill="#7eb7dd" d="M 284.5,389.5 C 282.485,390.924 280.152,391.59 277.5,391.5C 279.515,390.076 281.848,389.41 284.5,389.5 Z"/></g>
<g><path style="opacity:0.082" fill="#c6d9ea" d="M 67.5,408.5 C 69.0389,414.937 69.7055,421.604 69.5,428.5C 68.3044,422.03 67.6377,415.363 67.5,408.5 Z"/></g>
<g><path style="opacity:0.529" fill="#8bb6d9" d="M 411.5,438.5 C 411.5,440.5 411.5,442.5 411.5,444.5C 410.5,444.5 409.5,444.5 408.5,444.5C 409.842,442.639 410.842,440.639 411.5,438.5 Z"/></g>
<g><path style="opacity:0.616" fill="#9dbfde" d="M 112.5,455.5 C 115.152,455.41 117.485,456.076 119.5,457.5C 116.848,457.59 114.515,456.924 112.5,455.5 Z"/></g>
<g><path style="opacity:0.906" fill="#a0bede" d="M 119.5,457.5 C 122.01,457.054 124.01,457.72 125.5,459.5C 123.302,459.125 121.302,458.458 119.5,457.5 Z"/></g>
<g><path style="opacity:0.624" fill="#9dbedd" d="M 126.5,459.5 C 129.152,459.41 131.485,460.076 133.5,461.5C 130.848,461.59 128.515,460.924 126.5,459.5 Z"/></g>
<g><path style="opacity:0.89" fill="#a2c0de" d="M 137.5,462.5 C 140.228,462.171 142.562,462.837 144.5,464.5C 141.933,464.279 139.599,463.612 137.5,462.5 Z"/></g>
<g><path style="opacity:0.843" fill="#97badc" d="M 148.5,465.5 C 151.428,465.565 154.095,466.232 156.5,467.5C 153.505,467.706 150.838,467.04 148.5,465.5 Z"/></g>
<g><path style="opacity:0.533" fill="#a1c2df" d="M 162.5,469.5 C 165.428,469.565 168.095,470.232 170.5,471.5C 167.505,471.706 164.838,471.04 162.5,469.5 Z"/></g>
<g><path style="opacity:0.78" fill="#a4c2df" d="M 170.5,471.5 C 172.898,471.259 174.898,471.926 176.5,473.5C 174.214,473.405 172.214,472.738 170.5,471.5 Z"/></g>
</svg>
