<?xml version="1.0" encoding="UTF-8"?>
<!DOCTYPE svg PUBLIC "-//W3C//DTD SVG 1.1//EN" "http://www.w3.org/Graphics/SVG/1.1/DTD/svg11.dtd">
<svg xmlns="http://www.w3.org/2000/svg" version="1.1" width="260px" height="260px" style="shape-rendering:geometricPrecision; text-rendering:geometricPrecision; image-rendering:optimizeQuality; fill-rule:evenodd; clip-rule:evenodd" xmlns:xlink="http://www.w3.org/1999/xlink">
<g><path style="opacity:1" fill="#f8c469" d="M 68.5,-0.5 C 71.1667,-0.5 73.8333,-0.5 76.5,-0.5C 77.6005,0.60486 78.2671,1.93819 78.5,3.5C 74.3343,0.0702983 70.3343,0.0702983 66.5,3.5C 66.7329,1.93819 67.3995,0.60486 68.5,-0.5 Z"/></g>
<g><path style="opacity:0.345" fill="#fedba0" d="M 84.5,15.5 C 85.9063,15.9731 86.573,16.9731 86.5,18.5C 85.0937,18.0269 84.427,17.0269 84.5,15.5 Z"/></g>
<g><path style="opacity:1" fill="#fba516" d="M 78.5,3.5 C 81.0078,7.18217 83.0078,11.1822 84.5,15.5C 84.427,17.0269 85.0937,18.0269 86.5,18.5C 86.4269,21.881 87.4269,24.881 89.5,27.5C 88.04,30.9506 88.3733,31.6172 90.5,29.5C 91.1835,29.8627 91.8501,30.1961 92.5,30.5C 92.4486,32.5695 93.1153,34.4029 94.5,36C 91.5735,39.7787 92.0735,42.9453 96,45.5C 97.0769,44.5705 98.2436,43.9038 99.5,43.5C 99.3083,46.6008 98.6416,49.6008 97.5,52.5C 98.7277,54.321 100.394,55.321 102.5,55.5C 102.214,61.2586 102.548,66.9252 103.5,72.5C 102.624,72.3691 101.957,72.7025 101.5,73.5C 102.243,74.1818 102.909,74.8485 103.5,75.5C 92.8196,97.1345 81.9863,118.801 71,140.5C 68.3934,144.301 65.8934,147.968 63.5,151.5C 61.8333,151.5 60.1667,151.5 58.5,151.5C 58.4427,156.682 57.776,156.682 56.5,151.5C 54.9489,155.19 53.1155,155.19 51,151.5C 50.7688,145.629 50.2688,139.796 49.5,134C 50.8992,128.576 51.8992,123.076 52.5,117.5C 52.1806,109.215 52.1806,100.882 52.5,92.5C 56.6244,62.6161 61.2911,32.9495 66.5,3.5C 70.3343,0.0702983 74.3343,0.0702983 78.5,3.5 Z"/></g>
<g><path style="opacity:1" fill="#f9b648" d="M 86.5,18.5 C 89.0078,22.1822 91.0078,26.1822 92.5,30.5C 91.8501,30.1961 91.1835,29.8627 90.5,29.5C 88.3733,31.6172 88.04,30.9506 89.5,27.5C 87.4269,24.881 86.4269,21.881 86.5,18.5 Z"/></g>
<g><path style="opacity:0.047" fill="#f3d4a4" d="M 131.5,36.5 C 133.5,36.5 134.5,37.5 134.5,39.5C 133.167,38.8333 132.167,37.8333 131.5,36.5 Z"/></g>
<g><path style="opacity:1" fill="#faae37" d="M 92.5,30.5 C 95.5926,34.3472 97.9259,38.6805 99.5,43.5C 98.2436,43.9038 97.0769,44.5705 96,45.5C 92.0735,42.9453 91.5735,39.7787 94.5,36C 93.1153,34.4029 92.4486,32.5695 92.5,30.5 Z"/></g>
<g><path style="opacity:1" fill="#fea613" d="M 131.5,36.5 C 132.167,37.8333 133.167,38.8333 134.5,39.5C 136.341,41.8485 137.674,44.5152 138.5,47.5C 138.34,49.1992 138.506,50.8659 139,52.5C 139.333,52.1667 139.667,51.8333 140,51.5C 140.236,53.1193 141.069,54.1193 142.5,54.5C 145.674,59.5156 148.341,64.8489 150.5,70.5C 150.506,73.5176 151.506,76.1843 153.5,78.5C 152.948,80.0026 152.948,81.6693 153.5,83.5C 152.397,86.7223 150.064,88.389 146.5,88.5C 142.822,91.6786 139.322,95.0119 136,98.5C 129.837,89.4042 124.337,79.7375 119.5,69.5C 116.647,67.9755 115.647,65.8088 116.5,63C 115.231,63.1085 114.231,62.9418 113.5,62.5C 113.795,60.5767 114.628,58.9101 116,57.5C 116.333,58.1667 116.667,58.8333 117,59.5C 117.42,55.048 118.253,50.7147 119.5,46.5C 120.376,46.6309 121.043,46.2975 121.5,45.5C 122.614,42.1221 124.281,39.1221 126.5,36.5C 128.167,35.1667 129.833,35.1667 131.5,36.5 Z"/></g>
<g><path style="opacity:0.945" fill="#f9c269" d="M 126.5,36.5 C 124.281,39.1221 122.614,42.1221 121.5,45.5C 121.043,46.2975 120.376,46.6309 119.5,46.5C 120.38,43.7378 121.546,41.0711 123,38.5C 123.816,37.1772 124.983,36.5106 126.5,36.5 Z"/></g>
<g><path style="opacity:0.341" fill="#f8d492" d="M 101.5,47.5 C 102.906,47.9731 103.573,48.9731 103.5,50.5C 102.094,50.0269 101.427,49.0269 101.5,47.5 Z"/></g>
<g><path style="opacity:1" fill="#f7bb5f" d="M 138.5,47.5 C 140.588,49.3356 141.921,51.6689 142.5,54.5C 141.069,54.1193 140.236,53.1193 140,51.5C 139.667,51.8333 139.333,52.1667 139,52.5C 138.506,50.8659 138.34,49.1992 138.5,47.5 Z"/></g>
<g><path style="opacity:1" fill="#f9aa2b" d="M 99.5,43.5 C 100.674,44.5137 101.34,45.847 101.5,47.5C 101.427,49.0269 102.094,50.0269 103.5,50.5C 105.726,53.9446 107.726,57.6112 109.5,61.5C 109.957,62.2975 110.624,62.6309 111.5,62.5C 111.53,63.4972 111.03,64.1639 110,64.5C 108.435,63.0475 107.102,61.3809 106,59.5C 105.64,61.4211 104.806,63.0878 103.5,64.5C 104.096,67.7635 104.096,70.4301 103.5,72.5C 102.548,66.9252 102.214,61.2586 102.5,55.5C 100.394,55.321 98.7277,54.321 97.5,52.5C 98.6416,49.6008 99.3083,46.6008 99.5,43.5 Z"/></g>
<g><path style="opacity:0.839" fill="#f7de85" d="M 198.5,55.5 C 196.074,53.7815 193.407,53.2815 190.5,54C 188.559,56.4536 186.225,58.287 183.5,59.5C 186.213,53.9277 190.547,51.761 196.5,53C 197.756,53.4169 198.423,54.2502 198.5,55.5 Z"/></g>
<g><path style="opacity:1" fill="#fab241" d="M 119.5,46.5 C 118.253,50.7147 117.42,55.048 117,59.5C 116.667,58.8333 116.333,58.1667 116,57.5C 114.628,58.9101 113.795,60.5767 113.5,62.5C 112.833,62.5 112.167,62.5 111.5,62.5C 113.659,56.8489 116.326,51.5156 119.5,46.5 Z"/></g>
<g><path style="opacity:1" fill="#fac93f" d="M 198.5,55.5 C 200.082,58.8756 200.749,62.5422 200.5,66.5C 200.335,70.1817 200.501,73.8484 201,77.5C 201.278,78.4158 201.778,79.0825 202.5,79.5C 202.335,82.8499 202.502,86.1832 203,89.5C 203.383,90.056 203.883,90.3893 204.5,90.5C 204.5,90.8333 204.5,91.1667 204.5,91.5C 204.336,94.1873 204.503,96.854 205,99.5C 205.278,100.416 205.778,101.082 206.5,101.5C 208.298,110.083 209.631,118.75 210.5,127.5C 209.911,134.222 210.911,140.556 213.5,146.5C 214.468,148.607 214.802,150.941 214.5,153.5C 214.335,156.518 214.502,159.518 215,162.5C 215.278,163.416 215.778,164.082 216.5,164.5C 217.702,168.714 218.369,173.048 218.5,177.5C 218.336,180.187 218.503,182.854 219,185.5C 219.278,186.416 219.778,187.082 220.5,187.5C 220.5,188.167 220.5,188.833 220.5,189.5C 219.857,195.927 220.857,201.927 223.5,207.5C 223.5,207.833 223.5,208.167 223.5,208.5C 218.218,210.365 213.218,212.698 208.5,215.5C 207.614,216.325 207.281,217.325 207.5,218.5C 206.395,219.6 205.062,220.267 203.5,220.5C 200.607,220.031 198.607,221.031 197.5,223.5C 196.341,225.25 194.674,226.25 192.5,226.5C 190.801,226.34 189.134,226.506 187.5,227C 188.598,227.77 188.598,228.603 187.5,229.5C 184.252,229.416 181.252,230.249 178.5,232C 179.056,232.383 179.389,232.883 179.5,233.5C 177.738,233.357 176.071,233.691 174.5,234.5C 172.058,235.824 170.058,237.491 168.5,239.5C 167.341,241.25 165.674,242.25 163.5,242.5C 160.421,242.26 157.421,242.593 154.5,243.5C 154.935,245.403 154.268,247.069 152.5,248.5C 149.966,248.259 148.3,249.259 147.5,251.5C 146.486,252.674 145.153,253.34 143.5,253.5C 140.546,254.428 137.546,255.261 134.5,256C 134.833,256.333 135.167,256.667 135.5,257C 134.584,257.278 133.918,257.778 133.5,258.5C 133.5,258.833 133.5,259.167 133.5,259.5C 130.167,259.5 126.833,259.5 123.5,259.5C 123.5,258.833 123.167,258.5 122.5,258.5C 119.111,253.814 114.445,251.148 108.5,250.5C 108.586,249.504 108.252,248.671 107.5,248C 103.985,245.217 99.9846,243.717 95.5,243.5C 94.8592,242.518 94.1925,241.518 93.5,240.5C 90.1228,239.083 86.7895,237.749 83.5,236.5C 81.847,236.34 80.5137,235.674 79.5,234.5C 79.0269,233.094 78.0269,232.427 76.5,232.5C 71.0157,230.593 66.0157,227.927 61.5,224.5C 61.0269,223.094 60.0269,222.427 58.5,222.5C 56.1815,222.008 54.1815,221.008 52.5,219.5C 52.0269,218.094 51.0269,217.427 49.5,217.5C 47.847,217.34 46.5137,216.674 45.5,215.5C 45.0269,214.094 44.0269,213.427 42.5,213.5C 40.1815,213.008 38.1815,212.008 36.5,210.5C 36.5,210.167 36.5,209.833 36.5,209.5C 36.5271,207.801 37.1938,206.467 38.5,205.5C 69.7158,172.62 101.382,140.62 133.5,109.5C 141.16,101.506 148.827,93.5059 156.5,85.5C 157.338,85.1583 157.672,84.4916 157.5,83.5C 162.442,79.8972 167.108,75.8972 171.5,71.5C 175.167,69.8333 177.833,67.1667 179.5,63.5C 180.5,61.8333 181.833,60.5 183.5,59.5C 186.225,58.287 188.559,56.4536 190.5,54C 193.407,53.2815 196.074,53.7815 198.5,55.5 Z"/></g>
<g><path style="opacity:0.773" fill="#f7de83" d="M 179.5,63.5 C 177.833,67.1667 175.167,69.8333 171.5,71.5C 173.833,68.5 176.5,65.8333 179.5,63.5 Z"/></g>
<g><path style="opacity:1" fill="#f6820b" d="M 133.5,109.5 C 101.382,140.62 69.7158,172.62 38.5,205.5C 37.6236,205.631 36.9569,205.298 36.5,204.5C 39.3294,201.019 40.996,197.019 41.5,192.5C 42.5,192.5 43.5,192.5 44.5,192.5C 49.2246,179.524 55.3912,167.191 63,155.5C 63.49,154.207 63.6567,152.873 63.5,151.5C 65.8934,147.968 68.3934,144.301 71,140.5C 81.9863,118.801 92.8196,97.1345 103.5,75.5C 105.68,72.4735 107.347,69.1402 108.5,65.5C 109.5,65.5 110.5,65.5 111.5,65.5C 118.271,80.4998 125.604,95.1665 133.5,109.5 Z"/></g>
<g><path style="opacity:1" fill="#f9dd81" d="M 200.5,66.5 C 201.895,70.5909 202.562,74.9242 202.5,79.5C 201.778,79.0825 201.278,78.4158 201,77.5C 200.501,73.8484 200.335,70.1817 200.5,66.5 Z"/></g>
<g><path style="opacity:1" fill="#f7b249" d="M 150.5,70.5 C 153.593,74.3472 155.926,78.6805 157.5,83.5C 157.672,84.4916 157.338,85.1583 156.5,85.5C 156.179,83.9519 155.179,83.2852 153.5,83.5C 152.948,81.6693 152.948,80.0026 153.5,78.5C 151.506,76.1843 150.506,73.5176 150.5,70.5 Z"/></g>
<g><path style="opacity:1" fill="#fee081" d="M 202.5,79.5 C 203.903,82.9085 204.57,86.5752 204.5,90.5C 203.883,90.3893 203.383,90.056 203,89.5C 202.502,86.1832 202.335,82.8499 202.5,79.5 Z"/></g>
<g><path style="opacity:0.875" fill="#fce493" d="M 204.5,91.5 C 205.581,94.6267 206.247,97.9601 206.5,101.5C 205.778,101.082 205.278,100.416 205,99.5C 204.503,96.854 204.336,94.1873 204.5,91.5 Z"/></g>
<g><path style="opacity:1" fill="#f19c0e" d="M 111.5,62.5 C 112.167,62.5 112.833,62.5 113.5,62.5C 114.231,62.9418 115.231,63.1085 116.5,63C 115.647,65.8088 116.647,67.9755 119.5,69.5C 124.337,79.7375 129.837,89.4042 136,98.5C 139.322,95.0119 142.822,91.6786 146.5,88.5C 150.064,88.389 152.397,86.7223 153.5,83.5C 155.179,83.2852 156.179,83.9519 156.5,85.5C 148.827,93.5059 141.16,101.506 133.5,109.5C 125.604,95.1665 118.271,80.4998 111.5,65.5C 110.5,65.5 109.5,65.5 108.5,65.5C 107.347,69.1402 105.68,72.4735 103.5,75.5C 102.909,74.8485 102.243,74.1818 101.5,73.5C 101.957,72.7025 102.624,72.3691 103.5,72.5C 104.096,70.4301 104.096,67.7635 103.5,64.5C 104.806,63.0878 105.64,61.4211 106,59.5C 107.102,61.3809 108.435,63.0475 110,64.5C 111.03,64.1639 111.53,63.4972 111.5,62.5 Z"/></g>
<g><path style="opacity:1" fill="#f9a82b" d="M 52.5,92.5 C 52.1806,100.882 52.1806,109.215 52.5,117.5C 51.8992,123.076 50.8992,128.576 49.5,134C 50.2688,139.796 50.7688,145.629 51,151.5C 53.1155,155.19 54.9489,155.19 56.5,151.5C 57.776,156.682 58.4427,156.682 58.5,151.5C 60.1667,151.5 61.8333,151.5 63.5,151.5C 63.6567,152.873 63.49,154.207 63,155.5C 55.3912,167.191 49.2246,179.524 44.5,192.5C 43.5,192.5 42.5,192.5 41.5,192.5C 40.996,197.019 39.3294,201.019 36.5,204.5C 36.9569,205.298 37.6236,205.631 38.5,205.5C 37.1938,206.467 36.5271,207.801 36.5,209.5C 35.5318,207.393 35.1984,205.059 35.5,202.5C 40.7558,165.641 46.4225,128.974 52.5,92.5 Z"/></g>
<g><path style="opacity:0.984" fill="#fee08d" d="M 210.5,127.5 C 212.136,133.603 213.136,139.936 213.5,146.5C 210.911,140.556 209.911,134.222 210.5,127.5 Z"/></g>
<g><path style="opacity:0.945" fill="#fdde82" d="M 214.5,153.5 C 215.687,156.946 216.354,160.613 216.5,164.5C 215.778,164.082 215.278,163.416 215,162.5C 214.502,159.518 214.335,156.518 214.5,153.5 Z"/></g>
<g><path style="opacity:0.886" fill="#fce494" d="M 218.5,177.5 C 219.581,180.627 220.247,183.96 220.5,187.5C 219.778,187.082 219.278,186.416 219,185.5C 218.503,182.854 218.336,180.187 218.5,177.5 Z"/></g>
<g><path style="opacity:1" fill="#fde089" d="M 220.5,189.5 C 222.043,195.28 223.043,201.28 223.5,207.5C 220.857,201.927 219.857,195.927 220.5,189.5 Z"/></g>
<g><path style="opacity:0.482" fill="#f2ce92" d="M 35.5,202.5 C 35.1984,205.059 35.5318,207.393 36.5,209.5C 36.5,209.833 36.5,210.167 36.5,210.5C 35.2521,209.666 34.5854,208.333 34.5,206.5C 34.5108,204.955 34.8442,203.622 35.5,202.5 Z"/></g>
<g><path style="opacity:0.824" fill="#f6c87f" d="M 223.5,208.5 C 218.941,212.795 213.608,216.128 207.5,218.5C 207.281,217.325 207.614,216.325 208.5,215.5C 213.218,212.698 218.218,210.365 223.5,208.5 Z"/></g>
<g><path style="opacity:0.455" fill="#f2d296" d="M 42.5,213.5 C 44.0269,213.427 45.0269,214.094 45.5,215.5C 43.9731,215.573 42.9731,214.906 42.5,213.5 Z"/></g>
<g><path style="opacity:0.302" fill="#f9d7a5" d="M 49.5,217.5 C 51.0269,217.427 52.0269,218.094 52.5,219.5C 50.9731,219.573 49.9731,218.906 49.5,217.5 Z"/></g>
<g><path style="opacity:0.784" fill="#eec274" d="M 203.5,220.5 C 201.819,222.008 199.819,223.008 197.5,223.5C 198.607,221.031 200.607,220.031 203.5,220.5 Z"/></g>
<g><path style="opacity:0.314" fill="#f7d0a2" d="M 58.5,222.5 C 60.0269,222.427 61.0269,223.094 61.5,224.5C 59.9731,224.573 58.9731,223.906 58.5,222.5 Z"/></g>
<g><path style="opacity:1" fill="#facd85" d="M 192.5,226.5 C 191.101,227.89 189.434,228.89 187.5,229.5C 188.598,228.603 188.598,227.77 187.5,227C 189.134,226.506 190.801,226.34 192.5,226.5 Z"/></g>
<g><path style="opacity:1" fill="#f8c974" d="M 187.5,229.5 C 185.151,231.341 182.485,232.674 179.5,233.5C 179.389,232.883 179.056,232.383 178.5,232C 181.252,230.249 184.252,229.416 187.5,229.5 Z"/></g>
<g><path style="opacity:0.314" fill="#f7d398" d="M 76.5,232.5 C 78.0269,232.427 79.0269,233.094 79.5,234.5C 77.9731,234.573 76.9731,233.906 76.5,232.5 Z"/></g>
<g><path style="opacity:0.992" fill="#f1ba60" d="M 179.5,233.5 C 176.322,236.258 172.655,238.258 168.5,239.5C 170.058,237.491 172.058,235.824 174.5,234.5C 176.071,233.691 177.738,233.357 179.5,233.5 Z"/></g>
<g><path style="opacity:1" fill="#f3c26a" d="M 83.5,236.5 C 86.7895,237.749 90.1228,239.083 93.5,240.5C 94.1925,241.518 94.8592,242.518 95.5,243.5C 91.1638,241.668 87.1638,239.335 83.5,236.5 Z"/></g>
<g><path style="opacity:1" fill="#f5c256" d="M 163.5,242.5 C 160.322,245.258 156.655,247.258 152.5,248.5C 154.268,247.069 154.935,245.403 154.5,243.5C 157.421,242.593 160.421,242.26 163.5,242.5 Z"/></g>
<g><path style="opacity:1" fill="#f2bd60" d="M 95.5,243.5 C 99.9846,243.717 103.985,245.217 107.5,248C 108.252,248.671 108.586,249.504 108.5,250.5C 103.815,248.724 99.4818,246.391 95.5,243.5 Z"/></g>
<g><path style="opacity:0.788" fill="#f0bd68" d="M 152.5,248.5 C 151.101,249.89 149.434,250.89 147.5,251.5C 148.3,249.259 149.966,248.259 152.5,248.5 Z"/></g>
<g><path style="opacity:1" fill="#f1be64" d="M 108.5,250.5 C 114.445,251.148 119.111,253.814 122.5,258.5C 117.5,256.336 112.833,253.669 108.5,250.5 Z"/></g>
<g><path style="opacity:1" fill="#f5c269" d="M 143.5,253.5 C 140.753,256.207 137.42,257.873 133.5,258.5C 133.918,257.778 134.584,257.278 135.5,257C 135.167,256.667 134.833,256.333 134.5,256C 137.546,255.261 140.546,254.428 143.5,253.5 Z"/></g>
</svg>
