<?xml version="1.0" encoding="UTF-8"?>
<!DOCTYPE svg PUBLIC "-//W3C//DTD SVG 1.1//EN" "http://www.w3.org/Graphics/SVG/1.1/DTD/svg11.dtd">
<svg xmlns="http://www.w3.org/2000/svg" version="1.1" width="259px" height="194px" style="shape-rendering:geometricPrecision; text-rendering:geometricPrecision; image-rendering:optimizeQuality; fill-rule:evenodd; clip-rule:evenodd" xmlns:xlink="http://www.w3.org/1999/xlink">
<g><path style="opacity:0.323" fill="#cae3f7" d="M 144.5,13.5 C 161.671,12.1729 179.005,12.1729 196.5,13.5C 196.376,14.1067 196.043,14.44 195.5,14.5C 178.675,13.5034 161.675,13.1701 144.5,13.5 Z"/></g>
<g><path style="opacity:1" fill="#6eb8f8" d="M 144.5,13.5 C 161.675,13.1701 178.675,13.5034 195.5,14.5C 159.854,50.8123 123.854,86.8123 87.5,122.5C 78.8476,114.348 70.3476,106.014 62,97.5C 61.5078,96.451 61.6744,95.451 62.5,94.5C 89.6929,67.6422 117.026,40.6422 144.5,13.5 Z"/></g>
<g><path style="opacity:0.455" fill="#b8d8ed" d="M 144.5,90.5 C 161.671,89.1729 179.005,89.1729 196.5,90.5C 196.376,91.1067 196.043,91.44 195.5,91.5C 178.675,90.5034 161.675,90.1701 144.5,90.5 Z"/></g>
<g><path style="opacity:1" fill="#6db8f8" d="M 144.5,90.5 C 161.675,90.1701 178.675,90.5034 195.5,91.5C 181.167,106.167 166.833,120.833 152.5,135.5C 152.167,135.5 151.833,135.5 151.5,135.5C 143.521,126.854 135.188,118.521 126.5,110.5C 118.426,118.579 110.093,126.245 101.5,133.5C 115.5,118.833 129.833,104.5 144.5,90.5 Z"/></g>
<g><path style="opacity:1" fill="#45a5f5" d="M 151.5,135.5 C 149.833,136.5 148.5,137.833 147.5,139.5C 140.5,145.833 133.833,152.5 127.5,159.5C 126.662,159.842 126.328,160.508 126.5,161.5C 117.368,152.869 108.368,144.036 99.5,135C 100.044,134.283 100.711,133.783 101.5,133.5C 110.093,126.245 118.426,118.579 126.5,110.5C 135.188,118.521 143.521,126.854 151.5,135.5 Z"/></g>
<g><path style="opacity:1" fill="#1c4489" d="M 151.5,135.5 C 151.833,135.5 152.167,135.5 152.5,135.5C 154.167,136.5 155.5,137.833 156.5,139.5C 154.735,140.794 152.902,141.794 151,142.5C 150.248,145.718 149.748,148.718 149.5,151.5C 147.466,152.559 145.466,153.559 143.5,154.5C 144.685,153.143 145.685,151.643 146.5,150C 145.953,146.515 146.287,143.015 147.5,139.5C 148.5,137.833 149.833,136.5 151.5,135.5 Z"/></g>
<g><path style="opacity:1" fill="#112f64" d="M 147.5,139.5 C 146.287,143.015 145.953,146.515 146.5,150C 145.685,151.643 144.685,153.143 143.5,154.5C 138.141,156.185 132.808,157.852 127.5,159.5C 133.833,152.5 140.5,145.833 147.5,139.5 Z"/></g>
<g><path style="opacity:1" fill="#1b49a1" d="M 156.5,139.5 C 169.833,152.167 182.833,165.167 195.5,178.5C 178.675,179.497 161.675,179.83 144.5,179.5C 138.167,173.833 132.167,167.833 126.5,161.5C 126.328,160.508 126.662,159.842 127.5,159.5C 132.808,157.852 138.141,156.185 143.5,154.5C 145.466,153.559 147.466,152.559 149.5,151.5C 149.748,148.718 150.248,145.718 151,142.5C 152.902,141.794 154.735,140.794 156.5,139.5 Z"/></g>
<g><path style="opacity:0.17" fill="#cedbe6" d="M 195.5,178.5 C 196.043,178.56 196.376,178.893 196.5,179.5C 179.005,180.827 161.671,180.827 144.5,179.5C 161.675,179.83 178.675,179.497 195.5,178.5 Z"/></g>
</svg>
