<?xml version="1.0" encoding="UTF-8"?>
<!DOCTYPE svg PUBLIC "-//W3C//DTD SVG 1.1//EN" "http://www.w3.org/Graphics/SVG/1.1/DTD/svg11.dtd">
<svg xmlns="http://www.w3.org/2000/svg" version="1.1" width="200px" height="200px" style="shape-rendering:geometricPrecision; text-rendering:geometricPrecision; image-rendering:optimizeQuality; fill-rule:evenodd; clip-rule:evenodd" xmlns:xlink="http://www.w3.org/1999/xlink">
<g><path style="opacity:0.967" fill="#ef5032" d="M 92.5,-0.5 C 97.1667,-0.5 101.833,-0.5 106.5,-0.5C 137.833,30.1667 168.833,61.1667 199.5,92.5C 199.5,97.1667 199.5,101.833 199.5,106.5C 168.14,137.527 136.806,168.527 105.5,199.5C 101.833,199.5 98.1667,199.5 94.5,199.5C 93.3998,198.442 92.0664,197.608 90.5,197C 61,167.5 31.5,138 2,108.5C 1.3918,106.934 0.558465,105.6 -0.5,104.5C -0.5,100.833 -0.5,97.1667 -0.5,93.5C 0.558465,92.3998 1.3918,91.0664 2,89.5C 21.7194,70.9031 40.886,51.7365 59.5,32C 60.9663,31.3645 62.2997,30.5312 63.5,29.5C 71.1256,36.6247 78.6256,43.958 86,51.5C 83.8254,60.4891 86.6587,67.4891 94.5,72.5C 95.8333,91.1667 95.8333,109.833 94.5,128.5C 86.3849,133.007 83.8849,139.674 87,148.5C 92.0339,156.066 98.8672,158.233 107.5,155C 114.44,149.564 116.274,142.731 113,134.5C 111.316,132.649 109.483,130.982 107.5,129.5C 106.167,110.833 106.167,92.1667 107.5,73.5C 114.486,79.9853 121.319,86.652 128,93.5C 125.712,101.304 127.879,107.804 134.5,113C 146.522,116.827 153.856,112.66 156.5,100.5C 156.413,92.9171 152.746,88.0838 145.5,86C 142.123,85.6315 138.79,85.6315 135.5,86C 128.679,79.3457 122.013,72.5123 115.5,65.5C 114.675,61.8776 114.175,58.211 114,54.5C 112.813,50.2908 110.313,47.1241 106.5,45C 101.783,43.85 97.1162,43.1833 92.5,43C 85.3043,35.8917 78.3043,28.5584 71.5,21C 78.1873,13.3655 85.1873,6.19881 92.5,-0.5 Z"/></g>
</svg>
