<?xml version="1.0" encoding="UTF-8"?>
<!DOCTYPE svg PUBLIC "-//W3C//DTD SVG 1.1//EN" "http://www.w3.org/Graphics/SVG/1.1/DTD/svg11.dtd">
<svg xmlns="http://www.w3.org/2000/svg" version="1.1" width="225px" height="225px" style="shape-rendering:geometricPrecision; text-rendering:geometricPrecision; image-rendering:optimizeQuality; fill-rule:evenodd; clip-rule:evenodd" xmlns:xlink="http://www.w3.org/1999/xlink">
<g><path style="opacity:0.871" fill="#eb6d54" d="M 186.5,28.5 C 138.167,28.5 89.8333,28.5 41.5,28.5C 42.6412,27.661 43.9745,26.9943 45.5,26.5C 92.6274,27.1619 139.627,27.8286 186.5,28.5 Z"/></g>
<g><path style="opacity:0.434" fill="#fdf0ee" d="M 38.5,28.5 C 38.5,30.5 38.5,32.5 38.5,34.5C 34.6042,32.2408 34.6042,30.2408 38.5,28.5 Z"/></g>
<g><path style="opacity:1" fill="#e55739" d="M 38.5,28.5 C 39.5,28.5 40.5,28.5 41.5,28.5C 89.8333,28.5 138.167,28.5 186.5,28.5C 182.434,78.894 177.767,129.227 172.5,179.5C 152.368,185.266 132.201,190.933 112,196.5C 91.927,190.983 71.927,185.316 52,179.5C 46.7848,131.253 42.2848,82.9201 38.5,34.5C 38.5,32.5 38.5,30.5 38.5,28.5 Z M 154.5,58.5 C 155.833,58.5 157.167,58.5 158.5,58.5C 158.091,64.5015 157.591,70.5015 157,76.5C 156.329,77.2524 155.496,77.5858 154.5,77.5C 154.5,77.1667 154.5,76.8333 154.5,76.5C 156.671,70.7818 156.337,65.1151 153.5,59.5C 154.167,59.5 154.5,59.1667 154.5,58.5 Z M 112.5,112.5 C 114.153,112.66 115.486,113.326 116.5,114.5C 114.833,114.5 113.167,114.5 111.5,114.5C 111.328,113.508 111.662,112.842 112.5,112.5 Z"/></g>
<g><path style="opacity:1" fill="#f16b3a" d="M 112.5,164.5 C 113.167,164.5 113.5,164.167 113.5,163.5C 125.546,160.374 137.546,157.041 149.5,153.5C 151.925,134.562 153.925,115.562 155.5,96.5C 141.167,96.5 126.833,96.5 112.5,96.5C 103.983,96.8261 95.6499,96.4927 87.5,95.5C 95.8333,95.5 104.167,95.5 112.5,95.5C 112.5,89.5 112.5,83.5 112.5,77.5C 126.5,77.5 140.5,77.5 154.5,77.5C 155.496,77.5858 156.329,77.2524 157,76.5C 157.591,70.5015 158.091,64.5015 158.5,58.5C 157.167,58.5 155.833,58.5 154.5,58.5C 140.5,58.5 126.5,58.5 112.5,58.5C 112.5,52.5 112.5,46.5 112.5,40.5C 132.5,40.5 152.5,40.5 172.5,40.5C 169.493,83.5818 165.66,126.582 161,169.5C 145,174.167 129,178.833 113,183.5C 112.5,177.175 112.334,170.842 112.5,164.5 Z"/></g>
<g><path style="opacity:0.999" fill="#eae8e8" d="M 112.5,58.5 C 126.5,58.5 140.5,58.5 154.5,58.5C 154.5,59.1667 154.167,59.5 153.5,59.5C 139.833,59.5 126.167,59.5 112.5,59.5C 112.5,65.1667 112.5,70.8333 112.5,76.5C 126.5,76.5 140.5,76.5 154.5,76.5C 154.5,76.8333 154.5,77.1667 154.5,77.5C 140.5,77.5 126.5,77.5 112.5,77.5C 103.833,77.5 95.1667,77.5 86.5,77.5C 86.8333,83.5 87.1667,89.5 87.5,95.5C 95.6499,96.4927 103.983,96.8261 112.5,96.5C 112.5,101.833 112.5,107.167 112.5,112.5C 111.662,112.842 111.328,113.508 111.5,114.5C 97.8333,114.5 84.1667,114.5 70.5,114.5C 68.5928,95.8537 66.9261,77.1871 65.5,58.5C 81.1667,58.5 96.8333,58.5 112.5,58.5 Z"/></g>
<g><path style="opacity:0.985" fill="#fefefe" d="M 153.5,59.5 C 156.337,65.1151 156.671,70.7818 154.5,76.5C 140.5,76.5 126.5,76.5 112.5,76.5C 112.5,70.8333 112.5,65.1667 112.5,59.5C 126.167,59.5 139.833,59.5 153.5,59.5 Z"/></g>
<g><path style="opacity:1" fill="#e55536" d="M 112.5,77.5 C 112.5,83.5 112.5,89.5 112.5,95.5C 104.167,95.5 95.8333,95.5 87.5,95.5C 87.1667,89.5 86.8333,83.5 86.5,77.5C 95.1667,77.5 103.833,77.5 112.5,77.5 Z"/></g>
<g><path style="opacity:0.993" fill="#fefcfc" d="M 112.5,96.5 C 126.833,96.5 141.167,96.5 155.5,96.5C 153.925,115.562 151.925,134.562 149.5,153.5C 137.546,157.041 125.546,160.374 113.5,163.5C 112.51,157.355 112.177,151.022 112.5,144.5C 119.089,142.519 125.756,140.853 132.5,139.5C 133.319,132.19 133.986,124.856 134.5,117.5C 135.404,116.791 135.737,115.791 135.5,114.5C 129.167,114.5 122.833,114.5 116.5,114.5C 115.486,113.326 114.153,112.66 112.5,112.5C 112.5,107.167 112.5,101.833 112.5,96.5 Z"/></g>
<g><path style="opacity:0.985" fill="#ebab9e" d="M 70.5,114.5 C 84.1667,114.5 97.8333,114.5 111.5,114.5C 113.167,114.5 114.833,114.5 116.5,114.5C 122.833,114.5 129.167,114.5 135.5,114.5C 135.737,115.791 135.404,116.791 134.5,117.5C 127.576,115.537 120.243,114.87 112.5,115.5C 98.3234,115.829 84.3234,115.496 70.5,114.5 Z"/></g>
<g><path style="opacity:1" fill="#f16a38" d="M 112.5,115.5 C 120.243,114.87 127.576,115.537 134.5,117.5C 133.986,124.856 133.319,132.19 132.5,139.5C 125.756,140.853 119.089,142.519 112.5,144.5C 112.167,144.5 111.833,144.5 111.5,144.5C 112.473,134.916 112.806,125.25 112.5,115.5 Z"/></g>
<g><path style="opacity:1" fill="#eae8e7" d="M 111.5,144.5 C 111.833,144.5 112.167,144.5 112.5,144.5C 112.177,151.022 112.51,157.355 113.5,163.5C 113.5,164.167 113.167,164.5 112.5,164.5C 99.8517,161.004 87.1851,157.504 74.5,154C 73.1134,144.252 72.1134,134.419 71.5,124.5C 77.8333,124.5 84.1667,124.5 90.5,124.5C 90.9157,129.493 91.2491,134.493 91.5,139.5C 98.1659,141.166 104.833,142.833 111.5,144.5 Z"/></g>
</svg>
