<?xml version="1.0" encoding="UTF-8"?>
<!DOCTYPE svg PUBLIC "-//W3C//DTD SVG 1.1//EN" "http://www.w3.org/Graphics/SVG/1.1/DTD/svg11.dtd">
<svg xmlns="http://www.w3.org/2000/svg" version="1.1" width="480px" height="480px" style="shape-rendering:geometricPrecision; text-rendering:geometricPrecision; image-rendering:optimizeQuality; fill-rule:evenodd; clip-rule:evenodd" xmlns:xlink="http://www.w3.org/1999/xlink">
<g><path style="opacity:1" fill="#f6de1d" d="M -0.5,-0.5 C 159.5,-0.5 319.5,-0.5 479.5,-0.5C 479.5,159.5 479.5,319.5 479.5,479.5C 319.5,479.5 159.5,479.5 -0.5,479.5C -0.5,319.5 -0.5,159.5 -0.5,-0.5 Z"/></g>
<g><path style="opacity:1" fill="#020100" d="M 351.5,217.5 C 366.904,216.214 381.904,218.048 396.5,223C 410.201,229.534 420.868,239.368 428.5,252.5C 417.549,260.649 406.216,268.315 394.5,275.5C 390.722,270.22 386.389,265.386 381.5,261C 371.618,255.563 361.618,255.23 351.5,260C 343.425,266.865 341.258,275.365 345,285.5C 347.128,288.63 349.628,291.463 352.5,294C 370.465,302.66 388.465,311.326 406.5,320C 438.653,339.115 449.153,366.615 438,402.5C 427.671,424.134 410.504,436.634 386.5,440C 364.758,443.66 343.758,441.327 323.5,433C 306.556,425.056 293.889,412.723 285.5,396C 297.369,388.634 309.369,381.468 321.5,374.5C 337.728,400.854 360.061,408.021 388.5,396C 400.497,384.653 400.497,373.319 388.5,362C 384.5,359.667 380.5,357.333 376.5,355C 357.396,348.085 339.396,339.085 322.5,328C 300.988,308.462 294.155,284.629 302,256.5C 311.701,234.748 328.201,221.748 351.5,217.5 Z"/></g>
<g><path style="opacity:1" fill="#62580c" d="M 260.5,378.5 C 260.5,325.833 260.5,273.167 260.5,220.5C 245.833,220.5 231.167,220.5 216.5,220.5C 216.832,273.003 216.499,325.336 215.5,377.5C 215.5,324.833 215.5,272.167 215.5,219.5C 230.833,219.5 246.167,219.5 261.5,219.5C 261.832,272.669 261.499,325.669 260.5,378.5 Z"/></g>
<g><path style="opacity:1" fill="#000000" d="M 260.5,378.5 C 258.049,419.951 236.049,440.951 194.5,441.5C 163.169,442.514 140.502,429.18 126.5,401.5C 137.727,393.297 149.56,385.964 162,379.5C 164.975,382.829 167.642,386.495 170,390.5C 177.829,400.555 187.996,404.055 200.5,401C 211.129,396.938 216.129,389.104 215.5,377.5C 216.499,325.336 216.832,273.003 216.5,220.5C 231.167,220.5 245.833,220.5 260.5,220.5C 260.5,273.167 260.5,325.833 260.5,378.5 Z"/></g>
</svg>
