<?xml version="1.0" encoding="UTF-8"?>
<!DOCTYPE svg PUBLIC "-//W3C//DTD SVG 1.1//EN" "http://www.w3.org/Graphics/SVG/1.1/DTD/svg11.dtd">
<svg xmlns="http://www.w3.org/2000/svg" version="1.1" width="494px" height="505px" style="shape-rendering:geometricPrecision; text-rendering:geometricPrecision; image-rendering:optimizeQuality; fill-rule:evenodd; clip-rule:evenodd" xmlns:xlink="http://www.w3.org/1999/xlink">
<g><path style="opacity:0.025" fill="#bfbfbf" d="M 306.5,119.5 C 298.045,121.34 294.712,126.673 296.5,135.5C 293.513,129.826 294.513,124.66 299.5,120C 301.355,119.578 303.189,119.078 305,118.5C 305.765,118.57 306.265,118.903 306.5,119.5 Z"/></g>
<g><path style="opacity:0.999" fill="#131313" d="M 306.5,119.5 C 310.458,119.251 314.124,119.918 317.5,121.5C 321.182,124.008 325.182,126.008 329.5,127.5C 330.539,129.531 332.205,130.864 334.5,131.5C 340.28,133.043 346.28,134.043 352.5,134.5C 354.099,134.232 355.432,134.566 356.5,135.5C 359.558,137.696 362.891,139.362 366.5,140.5C 366.973,141.906 367.973,142.573 369.5,142.5C 369.973,143.906 370.973,144.573 372.5,144.5C 374.296,146.9 376.63,148.567 379.5,149.5C 380.833,150.5 382.167,151.5 383.5,152.5C 385.5,155.167 387.833,157.5 390.5,159.5C 391.167,160.833 392.167,161.833 393.5,162.5C 394.167,162.833 394.833,163.167 395.5,163.5C 397.458,166.792 399.791,169.792 402.5,172.5C 402.427,174.027 403.094,175.027 404.5,175.5C 407.759,179.696 410.759,184.03 413.5,188.5C 414.751,193.285 416.751,197.619 419.5,201.5C 420.499,204.162 421.499,206.828 422.5,209.5C 423.326,212.485 424.659,215.151 426.5,217.5C 427.674,218.514 428.34,219.847 428.5,221.5C 430.326,226.484 432.659,231.151 435.5,235.5C 439.866,238.012 444.533,240.012 449.5,241.5C 450.995,241.989 452.329,242.655 453.5,243.5C 453.973,244.906 454.973,245.573 456.5,245.5C 457.167,245.833 457.833,246.167 458.5,246.5C 459.262,248.262 460.596,249.262 462.5,249.5C 464.754,250.124 466.421,251.457 467.5,253.5C 468.262,255.262 469.596,256.262 471.5,256.5C 473.48,257.484 475.147,258.817 476.5,260.5C 476.738,262.404 477.738,263.738 479.5,264.5C 479.427,266.027 480.094,267.027 481.5,267.5C 481.586,268.496 481.252,269.329 480.5,270C 475.129,271.638 469.796,272.805 464.5,273.5C 463.292,274.234 461.959,274.567 460.5,274.5C 458.94,274.519 457.44,274.852 456,275.5C 454.743,275.85 454.409,276.517 455,277.5C 458.107,281.296 461.94,283.963 466.5,285.5C 467.492,285.328 468.158,285.662 468.5,286.5C 469.262,288.262 470.596,289.262 472.5,289.5C 474.167,290.5 475.5,291.833 476.5,293.5C 477.833,295.5 479.5,297.167 481.5,298.5C 482.5,298.833 483.167,299.5 483.5,300.5C 485.078,302.375 484.745,303.708 482.5,304.5C 482.027,303.094 481.027,302.427 479.5,302.5C 477.853,300.674 475.853,299.34 473.5,298.5C 471.847,298.34 470.514,297.674 469.5,296.5C 468.486,295.326 467.153,294.66 465.5,294.5C 464.391,294.443 463.391,294.11 462.5,293.5C 461.738,291.738 460.404,290.738 458.5,290.5C 458.027,289.094 457.027,288.427 455.5,288.5C 455.027,287.094 454.027,286.427 452.5,286.5C 452.167,285.5 451.5,284.833 450.5,284.5C 449.5,282.833 448.167,281.5 446.5,280.5C 446.715,278.821 446.048,277.821 444.5,277.5C 443.566,276.228 442.899,274.728 442.5,273C 442.748,271.251 443.748,270.418 445.5,270.5C 447.403,270.204 449.07,269.537 450.5,268.5C 453.589,267.215 456.922,266.549 460.5,266.5C 464.884,266.826 469.217,266.492 473.5,265.5C 470.373,262.102 466.707,259.435 462.5,257.5C 458.181,254.004 453.515,251.004 448.5,248.5C 448.167,248.5 447.833,248.5 447.5,248.5C 445.898,246.926 443.898,246.259 441.5,246.5C 441.167,246.5 440.833,246.5 440.5,246.5C 439.486,245.326 438.153,244.66 436.5,244.5C 431.503,244.498 428.17,242.165 426.5,237.5C 426.34,235.847 425.674,234.514 424.5,233.5C 422.992,231.819 421.992,229.819 421.5,227.5C 421.34,225.847 420.674,224.514 419.5,223.5C 416.059,214.961 412.392,206.628 408.5,198.5C 406.45,195.347 404.784,192.014 403.5,188.5C 403.068,187.29 402.401,186.29 401.5,185.5C 400.094,185.027 399.427,184.027 399.5,182.5C 399.262,180.596 398.262,179.262 396.5,178.5C 395.92,176.251 394.587,174.585 392.5,173.5C 391.876,171.246 390.543,169.579 388.5,168.5C 386.833,167.5 385.5,166.167 384.5,164.5C 382.761,161.757 380.427,159.757 377.5,158.5C 376.833,158.5 376.5,158.167 376.5,157.5C 375.738,155.738 374.404,154.738 372.5,154.5C 372.027,153.094 371.027,152.427 369.5,152.5C 369.027,151.094 368.027,150.427 366.5,150.5C 363.996,149.416 361.663,148.083 359.5,146.5C 359.027,145.094 358.027,144.427 356.5,144.5C 355.391,144.443 354.391,144.11 353.5,143.5C 352.791,142.596 351.791,142.263 350.5,142.5C 349.391,142.443 348.391,142.11 347.5,141.5C 346.737,140.732 345.737,140.232 344.5,140C 339.845,139.501 335.179,139.334 330.5,139.5C 329.5,139.167 328.833,138.5 328.5,137.5C 327.738,135.738 326.404,134.738 324.5,134.5C 323.508,134.672 322.842,134.338 322.5,133.5C 322.027,132.094 321.027,131.427 319.5,131.5C 315.948,130.724 312.614,129.391 309.5,127.5C 307.712,126.378 305.712,126.211 303.5,127C 302.748,127.671 302.414,128.504 302.5,129.5C 302.878,131.921 303.545,134.254 304.5,136.5C 305.08,138.749 306.413,140.415 308.5,141.5C 308.427,143.027 309.094,144.027 310.5,144.5C 310.738,146.404 311.738,147.738 313.5,148.5C 314.401,149.29 315.068,150.29 315.5,151.5C 315.992,153.819 316.992,155.819 318.5,157.5C 319.738,159.214 320.405,161.214 320.5,163.5C 322.264,168.022 324.264,172.355 326.5,176.5C 327.11,177.391 327.443,178.391 327.5,179.5C 327.427,181.027 328.094,182.027 329.5,182.5C 329.845,185.198 331.178,187.198 333.5,188.5C 334.5,188.833 335.167,189.5 335.5,190.5C 335.522,197.474 334.022,204.14 331,210.5C 330.333,217.167 330.333,223.833 331,230.5C 331.198,232.382 331.698,234.048 332.5,235.5C 333.566,237.701 334.233,240.035 334.5,242.5C 334.66,244.153 335.326,245.486 336.5,246.5C 339.038,251.361 340.704,251.361 341.5,246.5C 342.378,242.664 343.044,238.664 343.5,234.5C 343.5,234.167 343.5,233.833 343.5,233.5C 344.674,232.486 345.34,231.153 345.5,229.5C 345.328,228.508 345.662,227.842 346.5,227.5C 348.262,226.738 349.262,225.404 349.5,223.5C 350.151,222.909 350.818,222.243 351.5,221.5C 353.474,226.471 355.807,231.138 358.5,235.5C 360.065,237.509 361.065,239.843 361.5,242.5C 361.427,244.027 362.094,245.027 363.5,245.5C 364.584,248.004 365.917,250.337 367.5,252.5C 367.427,254.027 368.094,255.027 369.5,255.5C 369.427,257.027 370.094,258.027 371.5,258.5C 372.08,260.749 373.413,262.415 375.5,263.5C 375.631,264.239 375.464,264.906 375,265.5C 374.329,264.748 373.496,264.414 372.5,264.5C 370.833,262.167 368.833,260.167 366.5,258.5C 366.027,257.094 365.027,256.427 363.5,256.5C 362.92,254.251 361.587,252.585 359.5,251.5C 359.573,249.973 358.906,248.973 357.5,248.5C 356.13,246.75 355.13,244.75 354.5,242.5C 354.229,240.688 353.562,239.022 352.5,237.5C 350.871,240.266 350.205,243.266 350.5,246.5C 351.438,253.002 348.771,256.669 342.5,257.5C 336.377,255.94 332.043,252.273 329.5,246.5C 328.003,242.166 326.669,237.833 325.5,233.5C 324.659,231.621 324.325,229.621 324.5,227.5C 324.472,222.138 324.806,216.805 325.5,211.5C 325.54,208.012 326.207,204.679 327.5,201.5C 329.663,199.046 330.33,196.38 329.5,193.5C 328.833,192.167 327.833,191.167 326.5,190.5C 325.833,190.5 325.5,190.167 325.5,189.5C 325.573,187.973 324.906,186.973 323.5,186.5C 323.5,186.167 323.5,185.833 323.5,185.5C 323.715,183.821 323.048,182.821 321.5,182.5C 320.069,181.22 319.402,179.553 319.5,177.5C 319.008,175.181 318.008,173.181 316.5,171.5C 314.707,169.574 313.707,167.241 313.5,164.5C 312.829,159.494 310.829,155.161 307.5,151.5C 304.975,147.104 301.975,143.104 298.5,139.5C 297.326,138.486 296.66,137.153 296.5,135.5C 294.712,126.673 298.045,121.34 306.5,119.5 Z"/></g>
<g><path style="opacity:0.192" fill="#c4c4c4" d="M 317.5,121.5 C 322.086,122.46 326.086,124.46 329.5,127.5C 325.182,126.008 321.182,124.008 317.5,121.5 Z"/></g>
<g><path style="opacity:0.075" fill="#cecece" d="M 309.5,127.5 C 306.921,127.394 304.588,128.061 302.5,129.5C 302.414,128.504 302.748,127.671 303.5,127C 305.712,126.211 307.712,126.378 309.5,127.5 Z"/></g>
<g><path style="opacity:0.039" fill="#cbcbcb" d="M 329.5,127.5 C 331.754,128.124 333.421,129.457 334.5,131.5C 332.205,130.864 330.539,129.531 329.5,127.5 Z"/></g>
<g><path style="opacity:0.333" fill="#a6a6a6" d="M 319.5,131.5 C 321.027,131.427 322.027,132.094 322.5,133.5C 320.973,133.573 319.973,132.906 319.5,131.5 Z"/></g>
<g><path style="opacity:0.416" fill="#b0b0b0" d="M 334.5,131.5 C 340.783,131.585 346.783,132.585 352.5,134.5C 346.28,134.043 340.28,133.043 334.5,131.5 Z"/></g>
<g><path style="opacity:0.663" fill="#9c9c9c" d="M 324.5,134.5 C 326.404,134.738 327.738,135.738 328.5,137.5C 326.596,137.262 325.262,136.262 324.5,134.5 Z"/></g>
<g><path style="opacity:0.018" fill="#d0d0d0" d="M 356.5,135.5 C 360.42,136.127 363.753,137.793 366.5,140.5C 362.891,139.362 359.558,137.696 356.5,135.5 Z"/></g>
<g><path style="opacity:0.365" fill="#bbbbbb" d="M 304.5,136.5 C 306.587,137.585 307.92,139.251 308.5,141.5C 306.413,140.415 305.08,138.749 304.5,136.5 Z"/></g>
<g><path style="opacity:0.514" fill="#aaaaaa" d="M 330.5,139.5 C 335.179,139.334 339.845,139.501 344.5,140C 345.737,140.232 346.737,140.732 347.5,141.5C 341.651,141.184 335.984,140.518 330.5,139.5 Z"/></g>
<g><path style="opacity:0.016" fill="#e0e0e0" d="M 366.5,140.5 C 368.027,140.427 369.027,141.094 369.5,142.5C 367.973,142.573 366.973,141.906 366.5,140.5 Z"/></g>
<g><path style="opacity:0.078" fill="#cbcbcb" d="M 298.5,139.5 C 301.975,143.104 304.975,147.104 307.5,151.5C 304.237,149.031 301.403,146.031 299,142.5C 298.517,141.552 298.351,140.552 298.5,139.5 Z"/></g>
<g><path style="opacity:0.133" fill="#c9c9c9" d="M 350.5,142.5 C 351.791,142.263 352.791,142.596 353.5,143.5C 353.565,143.938 353.399,144.272 353,144.5C 352.005,143.934 351.172,143.267 350.5,142.5 Z"/></g>
<g><path style="opacity:0.027" fill="#dadada" d="M 369.5,142.5 C 371.027,142.427 372.027,143.094 372.5,144.5C 370.973,144.573 369.973,143.906 369.5,142.5 Z"/></g>
<g><path style="opacity:0.431" fill="#a2a2a2" d="M 308.5,141.5 C 309.906,141.973 310.573,142.973 310.5,144.5C 309.094,144.027 308.427,143.027 308.5,141.5 Z"/></g>
<g><path style="opacity:0.533" fill="#b3b3b3" d="M 310.5,144.5 C 312.262,145.262 313.262,146.596 313.5,148.5C 311.738,147.738 310.738,146.404 310.5,144.5 Z"/></g>
<g><path style="opacity:0.239" fill="#b1b1b1" d="M 356.5,144.5 C 358.027,144.427 359.027,145.094 359.5,146.5C 357.973,146.573 356.973,145.906 356.5,144.5 Z"/></g>
<g><path style="opacity:0.125" fill="#d7d7d7" d="M 372.5,144.5 C 375.674,145.01 378.008,146.677 379.5,149.5C 376.63,148.567 374.296,146.9 372.5,144.5 Z"/></g>
<g><path style="opacity:0.102" fill="#d5d5d5" d="M 366.5,150.5 C 368.027,150.427 369.027,151.094 369.5,152.5C 367.973,152.573 366.973,151.906 366.5,150.5 Z"/></g>
<g><path style="opacity:0.997" fill="#2a2a2a" d="M 343.5,155.5 C 345.183,159.095 344.517,162.095 341.5,164.5C 341.011,163.005 340.345,161.671 339.5,160.5C 337.364,158.188 335.364,155.688 333.5,153C 337.873,150.425 341.206,151.259 343.5,155.5 Z"/></g>
<g><path style="opacity:0.012" fill="#d3d3d3" d="M 383.5,152.5 C 386.833,153.833 389.167,156.167 390.5,159.5C 387.833,157.5 385.5,155.167 383.5,152.5 Z"/></g>
<g><path style="opacity:0.082" fill="#c7c7c7" d="M 315.5,151.5 C 317.539,152.911 318.539,154.911 318.5,157.5C 316.992,155.819 315.992,153.819 315.5,151.5 Z"/></g>
<g><path style="opacity:0.239" fill="#b4b4b4" d="M 369.5,152.5 C 371.027,152.427 372.027,153.094 372.5,154.5C 370.973,154.573 369.973,153.906 369.5,152.5 Z"/></g>
<g><path style="opacity:0.008" fill="#d6d6d6" d="M 307.5,151.5 C 310.829,155.161 312.829,159.494 313.5,164.5C 310.751,160.619 308.751,156.285 307.5,151.5 Z"/></g>
<g><path style="opacity:0.847" fill="#909090" d="M 372.5,154.5 C 374.404,154.738 375.738,155.738 376.5,157.5C 374.596,157.262 373.262,156.262 372.5,154.5 Z"/></g>
<g><path style="opacity:0.235" fill="#c9c9c9" d="M 343.5,155.5 C 346.055,158.482 346.055,161.649 343.5,165C 342.563,165.692 341.897,165.525 341.5,164.5C 344.517,162.095 345.183,159.095 343.5,155.5 Z"/></g>
<g><path style="opacity:0.008" fill="#bbbbbb" d="M 390.5,159.5 C 392.5,159.5 393.5,160.5 393.5,162.5C 392.167,161.833 391.167,160.833 390.5,159.5 Z"/></g>
<g><path style="opacity:0.325" fill="#b3b3b3" d="M 377.5,158.5 C 380.427,159.757 382.761,161.757 384.5,164.5C 381.573,163.243 379.239,161.243 377.5,158.5 Z"/></g>
<g><path style="opacity:0.008" fill="#dedede" d="M 339.5,160.5 C 340.345,161.671 341.011,163.005 341.5,164.5C 339.824,163.817 339.157,162.483 339.5,160.5 Z"/></g>
<g><path style="opacity:0.224" fill="#cccccc" d="M 395.5,163.5 C 398.973,165.637 401.306,168.637 402.5,172.5C 399.791,169.792 397.458,166.792 395.5,163.5 Z"/></g>
<g><path style="opacity:0.004" fill="#cacaca" d="M 388.5,168.5 C 390.543,169.579 391.876,171.246 392.5,173.5C 390.469,172.461 389.136,170.795 388.5,168.5 Z"/></g>
<g><path style="opacity:0.086" fill="#d9d9d9" d="M 320.5,163.5 C 321.458,163.953 322.292,164.619 323,165.5C 324.309,169.099 325.809,172.599 327.5,176C 327.272,176.399 326.938,176.565 326.5,176.5C 324.264,172.355 322.264,168.022 320.5,163.5 Z"/></g>
<g><path style="opacity:0.027" fill="#cecece" d="M 392.5,173.5 C 394.587,174.585 395.92,176.251 396.5,178.5C 394.413,177.415 393.08,175.749 392.5,173.5 Z"/></g>
<g><path style="opacity:0.471" fill="#8b8b8b" d="M 402.5,172.5 C 403.906,172.973 404.573,173.973 404.5,175.5C 403.094,175.027 402.427,174.027 402.5,172.5 Z"/></g>
<g><path style="opacity:0.078" fill="#c8c8c8" d="M 316.5,171.5 C 318.008,173.181 319.008,175.181 319.5,177.5C 317.386,176.216 316.386,174.216 316.5,171.5 Z"/></g>
<g><path style="opacity:0.004" fill="#d6d6d6" d="M 396.5,178.5 C 398.262,179.262 399.262,180.596 399.5,182.5C 397.738,181.738 396.738,180.404 396.5,178.5 Z"/></g>
<g><path style="opacity:0.267" fill="#afafaf" d="M 327.5,179.5 C 328.906,179.973 329.573,180.973 329.5,182.5C 328.094,182.027 327.427,181.027 327.5,179.5 Z"/></g>
<g><path style="opacity:0.898" fill="#7f7f7f" d="M 321.5,182.5 C 323.048,182.821 323.715,183.821 323.5,185.5C 322.599,184.71 321.932,183.71 321.5,182.5 Z"/></g>
<g><path style="opacity:0.045" fill="#c4c4c4" d="M 329.5,182.5 C 331.326,184.147 332.66,186.147 333.5,188.5C 331.178,187.198 329.845,185.198 329.5,182.5 Z"/></g>
<g><path style="opacity:0.09" fill="#d7d7d7" d="M 404.5,175.5 C 409.202,178.545 412.202,182.878 413.5,188.5C 410.759,184.03 407.759,179.696 404.5,175.5 Z"/></g>
<g><path style="opacity:0.012" fill="#e1e1e1" d="M 323.5,186.5 C 324.906,186.973 325.573,187.973 325.5,189.5C 324.094,189.027 323.427,188.027 323.5,186.5 Z"/></g>
<g><path style="opacity:0.133" fill="#dbdbdb" d="M 401.5,185.5 C 402.401,186.29 403.068,187.29 403.5,188.5C 401.952,188.179 401.285,187.179 401.5,185.5 Z"/></g>
<g><path style="opacity:0.025" fill="#dddddd" d="M 326.5,190.5 C 327.833,191.167 328.833,192.167 329.5,193.5C 327.5,193.5 326.5,192.5 326.5,190.5 Z"/></g>
<g><path style="opacity:0.016" fill="#c4c4c4" d="M 329.5,193.5 C 330.33,196.38 329.663,199.046 327.5,201.5C 327.283,198.579 327.949,195.913 329.5,193.5 Z"/></g>
<g><path style="opacity:0.694" fill="#ababab" d="M 413.5,188.5 C 416.639,192.224 418.639,196.557 419.5,201.5C 416.751,197.619 414.751,193.285 413.5,188.5 Z"/></g>
<g><path style="opacity:0.055" fill="#c3c3c3" d="M 335.5,190.5 C 336.525,191.374 337.192,192.541 337.5,194C 336.255,200.067 334.421,205.9 332,211.5C 331.113,219.139 331.613,226.639 333.5,234C 332.944,234.383 332.611,234.883 332.5,235.5C 331.698,234.048 331.198,232.382 331,230.5C 330.333,223.833 330.333,217.167 331,210.5C 334.022,204.14 335.522,197.474 335.5,190.5 Z"/></g>
<g><path style="opacity:0.033" fill="#d1d1d1" d="M 408.5,198.5 C 412.392,206.628 416.059,214.961 419.5,223.5C 415.886,217.901 412.72,211.901 410,205.5C 409.023,203.26 408.523,200.927 408.5,198.5 Z"/></g>
<g><path style="opacity:0.042" fill="#d3d3d3" d="M 422.5,209.5 C 425.149,211.412 426.482,214.079 426.5,217.5C 424.659,215.151 423.326,212.485 422.5,209.5 Z"/></g>
<g><path style="opacity:0.071" fill="#dddddd" d="M 325.5,211.5 C 324.806,216.805 324.472,222.138 324.5,227.5C 323.352,223.019 323.185,218.352 324,213.5C 324.278,212.584 324.778,211.918 325.5,211.5 Z"/></g>
<g><path style="opacity:0.718" fill="#8f8f8f" d="M 349.5,223.5 C 349.262,225.404 348.262,226.738 346.5,227.5C 346.738,225.596 347.738,224.262 349.5,223.5 Z"/></g>
<g><path style="opacity:0.031" fill="#d6d6d6" d="M 358.5,235.5 C 355.807,231.138 353.474,226.471 351.5,221.5C 350.818,222.243 350.151,222.909 349.5,223.5C 348.871,220.783 350.204,219.45 353.5,219.5C 354.856,224.92 356.522,230.254 358.5,235.5 Z"/></g>
<g><path style="opacity:0.145" fill="#cacaca" d="M 419.5,223.5 C 420.674,224.514 421.34,225.847 421.5,227.5C 419.896,226.713 419.229,225.38 419.5,223.5 Z"/></g>
<g><path style="opacity:0.035" fill="#dadada" d="M 428.5,221.5 C 431.874,225.581 434.207,230.247 435.5,235.5C 432.659,231.151 430.326,226.484 428.5,221.5 Z"/></g>
<g><path style="opacity:0.118" fill="#b8b8b8" d="M 345.5,229.5 C 345.34,231.153 344.674,232.486 343.5,233.5C 343.229,231.62 343.896,230.287 345.5,229.5 Z"/></g>
<g><path style="opacity:0.035" fill="#cecece" d="M 424.5,233.5 C 425.674,234.514 426.34,235.847 426.5,237.5C 424.896,236.713 424.229,235.38 424.5,233.5 Z"/></g>
<g><path style="opacity:0.029" fill="#dddddd" d="M 343.5,234.5 C 343.044,238.664 342.378,242.664 341.5,246.5C 341.335,242.818 341.501,239.152 342,235.5C 342.383,234.944 342.883,234.611 343.5,234.5 Z"/></g>
<g><path style="opacity:0.033" fill="#dddddd" d="M 354.5,242.5 C 353.732,243.263 353.232,244.263 353,245.5C 352.329,246.252 351.496,246.586 350.5,246.5C 350.205,243.266 350.871,240.266 352.5,237.5C 353.562,239.022 354.229,240.688 354.5,242.5 Z"/></g>
<g><path style="opacity:0.137" fill="#c7c7c7" d="M 435.5,235.5 C 440.704,236.44 445.37,238.44 449.5,241.5C 444.533,240.012 439.866,238.012 435.5,235.5 Z"/></g>
<g><path style="opacity:0.02" fill="#cacaca" d="M 325.5,233.5 C 326.669,237.833 328.003,242.166 329.5,246.5C 326.994,243.526 325.327,240.026 324.5,236C 324.743,235.098 325.077,234.265 325.5,233.5 Z"/></g>
<g><path style="opacity:0.004" fill="#d8d8d8" d="M 453.5,243.5 C 455.027,243.427 456.027,244.094 456.5,245.5C 454.973,245.573 453.973,244.906 453.5,243.5 Z"/></g>
<g><path style="opacity:0.169" fill="#b1b1b1" d="M 334.5,242.5 C 336.104,243.287 336.771,244.62 336.5,246.5C 335.326,245.486 334.66,244.153 334.5,242.5 Z"/></g>
<g><path style="opacity:0.373" fill="#9a9a9a" d="M 361.5,242.5 C 362.906,242.973 363.573,243.973 363.5,245.5C 362.094,245.027 361.427,244.027 361.5,242.5 Z"/></g>
<g><path style="opacity:0.039" fill="#e2e2e2" d="M 436.5,244.5 C 438.153,244.66 439.486,245.326 440.5,246.5C 438.62,246.771 437.287,246.104 436.5,244.5 Z"/></g>
<g><path style="opacity:0.02" fill="#d4d4d4" d="M 336.5,246.5 C 338.167,246.5 339.833,246.5 341.5,246.5C 340.704,251.361 339.038,251.361 336.5,246.5 Z"/></g>
<g><path style="opacity:0.643" fill="#b1b1b1" d="M 441.5,246.5 C 443.898,246.259 445.898,246.926 447.5,248.5C 445.214,248.405 443.214,247.738 441.5,246.5 Z"/></g>
<g><path style="opacity:0.047" fill="#d1d1d1" d="M 458.5,246.5 C 460.404,246.738 461.738,247.738 462.5,249.5C 460.596,249.262 459.262,248.262 458.5,246.5 Z"/></g>
<g><path style="opacity:0.008" fill="#dadada" d="M 357.5,248.5 C 358.906,248.973 359.573,249.973 359.5,251.5C 358.094,251.027 357.427,250.027 357.5,248.5 Z"/></g>
<g><path style="opacity:0.094" fill="#d0d0d0" d="M 363.5,245.5 C 366.112,247.052 367.445,249.386 367.5,252.5C 365.917,250.337 364.584,248.004 363.5,245.5 Z"/></g>
<g><path style="opacity:0.036" fill="#cfcfcf" d="M 448.5,248.5 C 453.515,251.004 458.181,254.004 462.5,257.5C 457.191,255.511 452.524,252.511 448.5,248.5 Z"/></g>
<g><path style="opacity:0.025" fill="#dadada" d="M 329.5,246.5 C 332.043,252.273 336.377,255.94 342.5,257.5C 342.631,258.239 342.464,258.906 342,259.5C 334.904,257.905 330.737,253.572 329.5,246.5 Z"/></g>
<g><path style="opacity:0.004" fill="#cecece" d="M 359.5,251.5 C 361.587,252.585 362.92,254.251 363.5,256.5C 361.413,255.415 360.08,253.749 359.5,251.5 Z"/></g>
<g><path style="opacity:0.027" fill="#c8c8c8" d="M 467.5,253.5 C 469.404,253.738 470.738,254.738 471.5,256.5C 469.596,256.262 468.262,255.262 467.5,253.5 Z"/></g>
<g><path style="opacity:0.525" fill="#858585" d="M 367.5,252.5 C 368.906,252.973 369.573,253.973 369.5,255.5C 368.094,255.027 367.427,254.027 367.5,252.5 Z"/></g>
<g><path style="opacity:0.271" fill="#bbbbbb" d="M 363.5,256.5 C 365.027,256.427 366.027,257.094 366.5,258.5C 364.973,258.573 363.973,257.906 363.5,256.5 Z"/></g>
<g><path style="opacity:0.357" fill="#aaaaaa" d="M 369.5,255.5 C 370.906,255.973 371.573,256.973 371.5,258.5C 370.094,258.027 369.427,257.027 369.5,255.5 Z"/></g>
<g><path style="opacity:0.017" fill="#e1e1e1" d="M 462.5,257.5 C 466.707,259.435 470.373,262.102 473.5,265.5C 469.217,266.492 464.884,266.826 460.5,266.5C 461.79,265.065 463.456,264.065 465.5,263.5C 464.968,261.259 463.635,259.759 461.5,259C 462.056,258.617 462.389,258.117 462.5,257.5 Z"/></g>
<g><path style="opacity:0.184" fill="#cdcdcd" d="M 366.5,258.5 C 368.833,260.167 370.833,262.167 372.5,264.5C 369.5,263.5 367.5,261.5 366.5,258.5 Z"/></g>
<g><path style="opacity:0.569" fill="#a7a7a7" d="M 476.5,260.5 C 478.262,261.262 479.262,262.596 479.5,264.5C 477.738,263.738 476.738,262.404 476.5,260.5 Z"/></g>
<g><path style="opacity:0.071" fill="#c2c2c2" d="M 371.5,258.5 C 373.587,259.585 374.92,261.251 375.5,263.5C 373.413,262.415 372.08,260.749 371.5,258.5 Z"/></g>
<g><path style="opacity:0.451" fill="#9c9c9c" d="M 479.5,264.5 C 480.906,264.973 481.573,265.973 481.5,267.5C 480.094,267.027 479.427,266.027 479.5,264.5 Z"/></g>
<g><path style="opacity:0.009" fill="#e8e8e8" d="M 450.5,268.5 C 449.07,269.537 447.403,270.204 445.5,270.5C 446.646,268.233 448.313,267.566 450.5,268.5 Z"/></g>
<g><path style="opacity:0.443" fill="#a2a2a2" d="M 375.5,263.5 C 377.994,265.799 380.494,268.133 383,270.5C 383.374,271.416 383.874,272.25 384.5,273C 384.272,273.399 383.938,273.565 383.5,273.5C 383.167,273.5 382.833,273.5 382.5,273.5C 381.833,273.5 381.5,273.167 381.5,272.5C 381.167,271.5 380.5,270.833 379.5,270.5C 376.326,269.493 373.993,267.493 372.5,264.5C 373.496,264.414 374.329,264.748 375,265.5C 375.464,264.906 375.631,264.239 375.5,263.5 Z"/></g>
<g><path style="opacity:0.012" fill="#e3e3e3" d="M 379.5,270.5 C 380.5,270.833 381.167,271.5 381.5,272.5C 380.957,272.56 380.624,272.893 380.5,273.5C 381.257,274.773 381.923,274.773 382.5,273.5C 382.833,273.5 383.167,273.5 383.5,273.5C 386.395,274.799 389.062,276.465 391.5,278.5C 389.5,278.167 387.5,277.833 385.5,277.5C 383.735,276.539 381.735,276.205 379.5,276.5C 379.5,274.5 379.5,272.5 379.5,270.5 Z"/></g>
<g><path style="opacity:0.014" fill="#cdcdcd" d="M 481.5,267.5 C 483.795,269.01 483.462,270.343 480.5,271.5C 475.305,273.185 469.972,273.851 464.5,273.5C 469.796,272.805 475.129,271.638 480.5,270C 481.252,269.329 481.586,268.496 481.5,267.5 Z"/></g>
<g><path style="opacity:0.026" fill="#dbdbdb" d="M 460.5,274.5 C 460.192,276.924 460.526,279.257 461.5,281.5C 463.786,282.133 465.452,283.466 466.5,285.5C 461.94,283.963 458.107,281.296 455,277.5C 454.409,276.517 454.743,275.85 456,275.5C 457.44,274.852 458.94,274.519 460.5,274.5 Z"/></g>
<g><path style="opacity:0.034" fill="#e9e9e9" d="M 341.5,276.5 C 337.958,276.187 334.625,276.521 331.5,277.5C 330.833,277.5 330.167,277.5 329.5,277.5C 329.611,276.883 329.944,276.383 330.5,276C 334.358,275.19 338.024,275.357 341.5,276.5 Z"/></g>
<g><path style="opacity:0.004" fill="#f6f6f6" d="M 417.5,276.5 C 415.901,276.232 414.568,276.566 413.5,277.5C 413.5,278.833 413.5,280.167 413.5,281.5C 412.539,279.735 412.205,277.735 412.5,275.5C 414.415,275.216 416.081,275.549 417.5,276.5 Z"/></g>
<g><path style="opacity:0.036" fill="#efefef" d="M 421.5,276.5 C 425.646,275.353 429.98,275.186 434.5,276C 436.078,278.339 435.745,280.172 433.5,281.5C 433.5,279.833 433.5,278.167 433.5,276.5C 429.5,276.5 425.5,276.5 421.5,276.5 Z"/></g>
<g><path style="opacity:0.769" fill="#888888" d="M 26.5,276.5 C 26.5,276.833 26.5,277.167 26.5,277.5C 21.8333,277.5 17.1667,277.5 12.5,277.5C 15.0227,276.746 17.6894,276.08 20.5,275.5C 22.537,275.498 24.537,275.832 26.5,276.5 Z"/></g>
<g><path style="opacity:0.018" fill="#cecece" d="M 112.5,276.5 C 115.187,276.336 117.854,276.503 120.5,277C 121.416,277.278 122.082,277.778 122.5,278.5C 118.96,278.247 115.627,277.581 112.5,276.5 Z"/></g>
<g><path style="opacity:0.734" fill="#8a8a8a" d="M 305.5,276.5 C 305.5,276.833 305.5,277.167 305.5,277.5C 284.833,277.5 264.167,277.5 243.5,277.5C 249.974,276.402 256.641,275.736 263.5,275.5C 277.684,275.239 291.684,275.573 305.5,276.5 Z"/></g>
<g><path style="opacity:0.719" fill="#616161" d="M 379.5,276.5 C 381.735,276.205 383.735,276.539 385.5,277.5C 367.5,277.5 349.5,277.5 331.5,277.5C 334.625,276.521 337.958,276.187 341.5,276.5C 354.167,275.167 366.833,275.167 379.5,276.5 Z"/></g>
<g><path style="opacity:1" fill="#090909" d="M 105.5,276.5 C 107.833,276.5 110.167,276.5 112.5,276.5C 115.627,277.581 118.96,278.247 122.5,278.5C 124.403,279.947 126.07,281.614 127.5,283.5C 128.167,283.5 128.5,283.833 128.5,284.5C 129.292,290.13 129.625,295.797 129.5,301.5C 130.805,322.64 130.805,343.64 129.5,364.5C 122.833,364.5 116.167,364.5 109.5,364.5C 109.667,341.498 109.5,318.498 109,295.5C 107.441,297.217 106.608,299.217 106.5,301.5C 104.814,305.576 103.147,309.576 101.5,313.5C 98.0612,318.715 95.3945,324.382 93.5,330.5C 91.0659,333.709 89.3992,337.376 88.5,341.5C 88.6716,342.492 88.3382,343.158 87.5,343.5C 84.5422,347.691 82.5422,352.358 81.5,357.5C 81.0679,358.71 80.4013,359.71 79.5,360.5C 77.9731,360.427 76.9731,361.094 76.5,362.5C 71.0252,364.283 65.3585,364.949 59.5,364.5C 59.1667,364.5 58.8333,364.5 58.5,364.5C 56.9505,363.559 55.2838,362.893 53.5,362.5C 52.5,362.167 51.8333,361.5 51.5,360.5C 51.573,358.973 50.9063,357.973 49.5,357.5C 49.7709,355.62 49.1042,354.287 47.5,353.5C 47.5979,351.447 46.9313,349.78 45.5,348.5C 42.5455,340.626 39.2122,332.959 35.5,325.5C 33.6779,319.864 31.3446,314.531 28.5,309.5C 27.3263,308.486 26.6596,307.153 26.5,305.5C 25.7362,302.982 24.7362,300.649 23.5,298.5C 23.1667,297.167 22.8333,295.833 22.5,294.5C 22.44,293.957 22.1067,293.624 21.5,293.5C 20.5003,317.157 20.1669,340.824 20.5,364.5C 14.1667,364.5 7.83333,364.5 1.5,364.5C 1.5,360.5 1.5,356.5 1.5,352.5C 1.5,348.5 1.5,344.5 1.5,340.5C 1.5,336.5 1.5,332.5 1.5,328.5C 1.5,324.833 1.5,321.167 1.5,317.5C 1.5,313.167 1.5,308.833 1.5,304.5C 1.5,300.833 1.5,297.167 1.5,293.5C 1.33537,290.482 1.50204,287.482 2,284.5C 2.27842,283.584 2.77842,282.918 3.5,282.5C 5.89969,280.306 8.56635,278.639 11.5,277.5C 11.8333,277.5 12.1667,277.5 12.5,277.5C 17.1667,277.5 21.8333,277.5 26.5,277.5C 29.395,278.399 32.0616,279.733 34.5,281.5C 37.025,285.752 39.3583,290.085 41.5,294.5C 43.3999,297.518 44.7333,300.851 45.5,304.5C 46.3228,306.987 47.3228,309.321 48.5,311.5C 48.9925,313.819 49.9925,315.819 51.5,317.5C 51.7073,320.241 52.7073,322.574 54.5,324.5C 54.4021,326.553 55.0687,328.22 56.5,329.5C 57.404,330.209 57.7373,331.209 57.5,332.5C 58.5969,335.686 59.9303,338.686 61.5,341.5C 62.3382,341.842 62.6716,342.508 62.5,343.5C 62.0217,346.278 63.0217,348.278 65.5,349.5C 66.4287,348.311 66.762,346.978 66.5,345.5C 66.5,345.167 66.5,344.833 66.5,344.5C 67.9063,344.027 68.573,343.027 68.5,341.5C 69.4861,339.574 70.4861,337.574 71.5,335.5C 71.5,335.167 71.5,334.833 71.5,334.5C 73.2132,333.365 73.8799,331.698 73.5,329.5C 74.9313,328.22 75.5979,326.553 75.5,324.5C 82.1956,311.096 88.5289,297.429 94.5,283.5C 97.5935,280.442 101.26,278.109 105.5,276.5 Z"/></g>
<g><path style="opacity:0.118" fill="#c8c8c8" d="M 26.5,277.5 C 26.5,277.167 26.5,276.833 26.5,276.5C 30.2094,276.679 32.8761,278.346 34.5,281.5C 32.0616,279.733 29.395,278.399 26.5,277.5 Z"/></g>
<g><path style="opacity:1" fill="#030303" d="M 243.5,277.5 C 264.167,277.5 284.833,277.5 305.5,277.5C 305.5,280.5 305.5,283.5 305.5,286.5C 288.163,286.333 270.83,286.5 253.5,287C 250.183,288.48 248.183,290.98 247.5,294.5C 246.353,298.646 246.186,302.98 247,307.5C 247.374,309.491 248.207,311.158 249.5,312.5C 250.5,312.833 251.167,313.5 251.5,314.5C 252.263,315.268 253.263,315.768 254.5,316C 265.828,316.5 277.162,316.667 288.5,316.5C 288.833,316.5 289.167,316.5 289.5,316.5C 291.599,317.612 293.933,318.279 296.5,318.5C 299.198,318.845 301.198,320.178 302.5,322.5C 302.427,324.027 303.094,325.027 304.5,325.5C 305.338,325.842 305.672,326.508 305.5,327.5C 305.666,335.174 305.5,342.841 305,350.5C 302.231,356.105 298.064,360.105 292.5,362.5C 290.436,362.687 288.436,363.187 286.5,364C 266.836,364.5 247.169,364.667 227.5,364.5C 227.5,361.5 227.5,358.5 227.5,355.5C 245.008,355.83 262.341,355.497 279.5,354.5C 283.015,353.505 285.181,351.171 286,347.5C 286.667,341.833 286.667,336.167 286,330.5C 284.961,329.29 283.794,328.29 282.5,327.5C 281.209,327.737 280.209,327.404 279.5,326.5C 269.347,325.506 259.014,325.172 248.5,325.5C 248.167,325.5 247.833,325.5 247.5,325.5C 243.285,324.762 239.285,323.428 235.5,321.5C 233.251,320.92 231.585,319.587 230.5,317.5C 229.68,315.86 228.847,314.193 228,312.5C 227.5,305.174 227.334,297.841 227.5,290.5C 229.453,286.88 232.119,283.88 235.5,281.5C 238.48,280.677 241.147,279.343 243.5,277.5 Z"/></g>
<g><path style="opacity:1" fill="#030303" d="M 329.5,277.5 C 330.167,277.5 330.833,277.5 331.5,277.5C 349.5,277.5 367.5,277.5 385.5,277.5C 387.5,277.833 389.5,278.167 391.5,278.5C 393.674,278.75 395.341,279.75 396.5,281.5C 398.737,283.647 400.737,285.98 402.5,288.5C 403.455,309.807 403.788,331.14 403.5,352.5C 403.672,353.492 403.338,354.158 402.5,354.5C 400.628,357.529 397.961,359.695 394.5,361C 396.037,362.707 397.704,364.207 399.5,365.5C 400.5,365.833 401.167,366.5 401.5,367.5C 402.262,369.262 403.596,370.262 405.5,370.5C 405.574,372.411 406.574,373.578 408.5,374C 401.167,374.667 393.833,374.667 386.5,374C 383.25,370.904 379.916,368.071 376.5,365.5C 360.652,364.757 344.652,364.09 328.5,363.5C 325.19,361.199 321.857,358.866 318.5,356.5C 317.489,354.628 316.655,352.628 316,350.5C 315.5,331.503 315.333,312.503 315.5,293.5C 315.205,291.265 315.539,289.265 316.5,287.5C 317.906,287.027 318.573,286.027 318.5,284.5C 320.93,282.055 323.596,280.055 326.5,278.5C 327.209,277.596 328.209,277.263 329.5,277.5 Z M 379.5,289.5 C 379.833,290.5 380.5,291.167 381.5,291.5C 381.976,295.993 382.642,300.327 383.5,304.5C 382.227,316.502 382.227,328.502 383.5,340.5C 382.835,342.369 382.169,344.369 381.5,346.5C 380.264,345.754 378.93,345.421 377.5,345.5C 370.037,343.964 362.37,343.464 354.5,344C 353.483,345.049 353.316,346.216 354,347.5C 354.77,348.598 355.603,348.598 356.5,347.5C 357.578,350.908 359.911,352.908 363.5,353.5C 360.375,354.479 357.042,354.813 353.5,354.5C 349.769,353.804 345.935,353.138 342,352.5C 341.617,353.056 341.117,353.389 340.5,353.5C 337.837,349.504 336.17,345.171 335.5,340.5C 336.441,326.678 336.441,313.011 335.5,299.5C 336.224,297.782 336.891,295.948 337.5,294C 336.944,293.617 336.611,293.117 336.5,292.5C 337.833,291.167 339.167,289.833 340.5,288.5C 353.585,286.883 366.585,287.216 379.5,289.5 Z"/></g>
<g><path style="opacity:1" fill="#060606" d="M 413.5,277.5 C 419.833,277.5 426.167,277.5 432.5,277.5C 432.169,300.673 432.502,323.673 433.5,346.5C 433.949,351.404 436.615,354.071 441.5,354.5C 457.992,355.497 474.658,355.83 491.5,355.5C 491.5,358.5 491.5,361.5 491.5,364.5C 485.5,364.5 479.5,364.5 473.5,364.5C 457.805,364.771 442.138,364.437 426.5,363.5C 421.599,361.267 417.599,357.934 414.5,353.5C 413.705,349.215 413.372,344.881 413.5,340.5C 413.428,320.735 413.428,301.069 413.5,281.5C 413.5,280.167 413.5,278.833 413.5,277.5 Z"/></g>
<g><path style="opacity:0.8" fill="#8d8d8d" d="M 444.5,277.5 C 446.048,277.821 446.715,278.821 446.5,280.5C 445.599,279.71 444.932,278.71 444.5,277.5 Z"/></g>
<g><path style="opacity:0.016" fill="#cccccc" d="M 11.5,277.5 C 8.56635,278.639 5.89969,280.306 3.5,282.5C 3.51056,280.983 4.17723,279.816 5.5,279C 7.35059,278.163 9.18392,277.329 11,276.5C 11.3988,276.728 11.5654,277.062 11.5,277.5 Z"/></g>
<g><path style="opacity:0.133" fill="#c3c3c3" d="M 105.5,276.5 C 101.26,278.109 97.5935,280.442 94.5,283.5C 96.5865,279.435 99.9198,276.768 104.5,275.5C 105.107,275.624 105.44,275.957 105.5,276.5 Z"/></g>
<g><path style="opacity:0.037" fill="#d8d8d8" d="M 122.5,278.5 C 125.797,278.632 127.463,280.298 127.5,283.5C 126.07,281.614 124.403,279.947 122.5,278.5 Z"/></g>
<g><path style="opacity:0.043" fill="#d7d7d7" d="M 243.5,277.5 C 241.147,279.343 238.48,280.677 235.5,281.5C 237.507,279.163 240.173,277.829 243.5,277.5 Z"/></g>
<g><path style="opacity:0.373" fill="#afafaf" d="M 326.5,278.5 C 323.596,280.055 320.93,282.055 318.5,284.5C 319.654,280.699 322.321,278.699 326.5,278.5 Z"/></g>
<g><path style="opacity:0.757" fill="#5a5a5a" d="M 413.5,277.5 C 414.568,276.566 415.901,276.232 417.5,276.5C 418.833,276.5 420.167,276.5 421.5,276.5C 425.5,276.5 429.5,276.5 433.5,276.5C 433.5,278.167 433.5,279.833 433.5,281.5C 433.5,301.167 433.5,320.833 433.5,340.5C 433.5,342.5 433.5,344.5 433.5,346.5C 432.502,323.673 432.169,300.673 432.5,277.5C 426.167,277.5 419.833,277.5 413.5,277.5 Z"/></g>
<g><path style="opacity:0.008" fill="#d5d5d5" d="M 446.5,280.5 C 448.167,281.5 449.5,282.833 450.5,284.5C 448.167,284.167 446.833,282.833 446.5,280.5 Z"/></g>
<g><path style="opacity:0.012" fill="#d2d2d2" d="M 396.5,281.5 C 400.1,282.32 402.1,284.653 402.5,288.5C 400.737,285.98 398.737,283.647 396.5,281.5 Z"/></g>
<g><path style="opacity:0.026" fill="#e3e3e3" d="M 235.5,281.5 C 232.119,283.88 229.453,286.88 227.5,290.5C 228.086,285.584 230.753,282.584 235.5,281.5 Z"/></g>
<g><path style="opacity:0.027" fill="#bebebe" d="M 450.5,284.5 C 451.5,284.833 452.167,285.5 452.5,286.5C 451.167,286.5 450.5,285.833 450.5,284.5 Z"/></g>
<g><path style="opacity:0.108" fill="#d3d3d3" d="M 305.5,276.5 C 306.649,276.791 307.316,277.624 307.5,279C 306.784,281.792 306.451,284.626 306.5,287.5C 289.163,287.333 271.83,287.5 254.5,288C 251.642,289.694 249.309,291.861 247.5,294.5C 248.183,290.98 250.183,288.48 253.5,287C 270.83,286.5 288.163,286.333 305.5,286.5C 305.5,283.5 305.5,280.5 305.5,277.5C 305.5,277.167 305.5,276.833 305.5,276.5 Z"/></g>
<g><path style="opacity:0.325" fill="#b6b6b6" d="M 318.5,284.5 C 318.573,286.027 317.906,287.027 316.5,287.5C 316.427,285.973 317.094,284.973 318.5,284.5 Z"/></g>
<g><path style="opacity:0.109" fill="#d8d8d8" d="M 379.5,289.5 C 366.585,287.216 353.585,286.883 340.5,288.5C 340.918,287.778 341.584,287.278 342.5,287C 353.167,286.333 363.833,286.333 374.5,287C 376.491,287.374 378.158,288.207 379.5,289.5 Z"/></g>
<g><path style="opacity:0.016" fill="#c6c6c6" d="M 468.5,286.5 C 470.404,286.738 471.738,287.738 472.5,289.5C 470.596,289.262 469.262,288.262 468.5,286.5 Z"/></g>
<g><path style="opacity:0.227" fill="#b8b8b8" d="M 452.5,286.5 C 454.027,286.427 455.027,287.094 455.5,288.5C 453.973,288.573 452.973,287.906 452.5,286.5 Z"/></g>
<g><path style="opacity:0.024" fill="#d5d5d5" d="M 34.5,281.5 C 38.6215,284.735 40.9549,289.068 41.5,294.5C 39.3583,290.085 37.025,285.752 34.5,281.5 Z"/></g>
<g><path style="opacity:0.553" fill="#848484" d="M 455.5,288.5 C 457.027,288.427 458.027,289.094 458.5,290.5C 456.973,290.573 455.973,289.906 455.5,288.5 Z"/></g>
<g><path style="opacity:0.043" fill="#dbdbdb" d="M 94.5,283.5 C 88.5289,297.429 82.1956,311.096 75.5,324.5C 80.4299,311.301 85.9299,298.301 92,285.5C 92.7083,284.619 93.5416,283.953 94.5,283.5 Z"/></g>
<g><path style="opacity:0.694" fill="#9b9b9b" d="M 458.5,290.5 C 460.404,290.738 461.738,291.738 462.5,293.5C 460.596,293.262 459.262,292.262 458.5,290.5 Z"/></g>
<g><path style="opacity:0.004" fill="#efefef" d="M 128.5,284.5 C 130.019,287.526 130.685,290.859 130.5,294.5C 130.497,297.025 130.163,299.359 129.5,301.5C 129.625,295.797 129.292,290.13 128.5,284.5 Z"/></g>
<g><path style="opacity:0.031" fill="#bfbfbf" d="M 476.5,293.5 C 479.167,294.167 480.833,295.833 481.5,298.5C 479.5,297.167 477.833,295.5 476.5,293.5 Z"/></g>
<g><path style="opacity:0.018" fill="#ededed" d="M -0.5,293.5 C 0.166667,293.5 0.833333,293.5 1.5,293.5C 1.5,297.167 1.5,300.833 1.5,304.5C 0.833333,304.5 0.166667,304.5 -0.5,304.5C -0.5,300.833 -0.5,297.167 -0.5,293.5 Z"/></g>
<g><path style="opacity:0.016" fill="#dddddd" d="M 336.5,292.5 C 336.611,293.117 336.944,293.617 337.5,294C 336.891,295.948 336.224,297.782 335.5,299.5C 335.5,298.167 335.5,296.833 335.5,295.5C 335.263,294.209 335.596,293.209 336.5,292.5 Z"/></g>
<g><path style="opacity:0.018" fill="#e6e6e6" d="M 381.5,291.5 C 382.674,292.514 383.34,293.847 383.5,295.5C 383.5,298.5 383.5,301.5 383.5,304.5C 382.642,300.327 381.976,295.993 381.5,291.5 Z"/></g>
<g><path style="opacity:0.122" fill="#bdbdbd" d="M 465.5,294.5 C 467.153,294.66 468.486,295.326 469.5,296.5C 467.62,296.771 466.287,296.104 465.5,294.5 Z"/></g>
<g><path style="opacity:0.372" fill="#b3b3b3" d="M 227.5,290.5 C 227.334,297.841 227.5,305.174 228,312.5C 228.847,314.193 229.68,315.86 230.5,317.5C 228.589,317.426 227.422,316.426 227,314.5C 225.769,306.471 225.935,298.471 227.5,290.5 Z"/></g>
<g><path style="opacity:0.067" fill="#dcdcdc" d="M 473.5,298.5 C 475.853,299.34 477.853,300.674 479.5,302.5C 476.802,302.155 474.802,300.822 473.5,298.5 Z"/></g>
<g><path style="opacity:0.025" fill="#d8d8d8" d="M 23.5,298.5 C 24.7362,300.649 25.7362,302.982 26.5,305.5C 24.1663,303.824 23.1663,301.491 23.5,298.5 Z"/></g>
<g><path style="opacity:0.333" fill="#9e9e9e" d="M 479.5,302.5 C 481.027,302.427 482.027,303.094 482.5,304.5C 480.973,304.573 479.973,303.906 479.5,302.5 Z"/></g>
<g><path style="opacity:0.991" fill="#4a4a4a" d="M 483.5,300.5 C 484.833,301.167 485.833,302.167 486.5,303.5C 486.703,305.044 487.37,306.378 488.5,307.5C 488.03,308.463 487.363,308.463 486.5,307.5C 485.128,306.488 483.795,305.488 482.5,304.5C 484.745,303.708 485.078,302.375 483.5,300.5 Z"/></g>
<g><path style="opacity:0.479" fill="#9d9d9d" d="M 217.5,306.5 C 210.833,306.5 204.167,306.5 197.5,306.5C 204.174,303.927 210.841,303.927 217.5,306.5 Z"/></g>
<g><path style="opacity:0.022" fill="#d4d4d4" d="M 486.5,303.5 C 488.145,304.479 489.479,305.812 490.5,307.5C 488.956,310.041 487.623,310.041 486.5,307.5C 487.363,308.463 488.03,308.463 488.5,307.5C 487.37,306.378 486.703,305.044 486.5,303.5 Z"/></g>
<g><path style="opacity:1" fill="#040404" d="M 159.5,350.5 C 160.338,350.842 160.672,351.508 160.5,352.5C 161.6,353.558 162.934,354.392 164.5,355C 170,355.167 175.5,355.333 181,355.5C 186.876,355.495 192.376,354.829 197.5,353.5C 197.5,353.167 197.5,352.833 197.5,352.5C 197.5,340.5 197.5,328.5 197.5,316.5C 197.5,313.167 197.5,309.833 197.5,306.5C 204.167,306.5 210.833,306.5 217.5,306.5C 217.5,322.833 217.5,339.167 217.5,355.5C 217.5,357.833 217.5,360.167 217.5,362.5C 217.85,367.031 217.183,371.364 215.5,375.5C 214.833,376.833 213.833,377.833 212.5,378.5C 208.022,381.076 203.355,383.076 198.5,384.5C 197.5,384.5 196.5,384.5 195.5,384.5C 176.833,384.5 158.167,384.5 139.5,384.5C 139.5,381.5 139.5,378.5 139.5,375.5C 156.009,375.83 172.342,375.496 188.5,374.5C 195.372,374.628 198.372,371.295 197.5,364.5C 184.5,364.5 171.5,364.5 158.5,364.5C 157.833,364.5 157.167,364.5 156.5,364.5C 154.898,362.926 152.898,362.259 150.5,362.5C 148.326,362.25 146.659,361.25 145.5,359.5C 145.027,358.094 144.027,357.427 142.5,357.5C 142.315,355.804 141.481,354.471 140,353.5C 139.5,337.837 139.333,322.17 139.5,306.5C 145.833,306.5 152.167,306.5 158.5,306.5C 158.171,321.343 158.504,336.01 159.5,350.5 Z"/></g>
<g><path style="opacity:0.008" fill="#e6e6e6" d="M 45.5,304.5 C 47.821,306.09 48.821,308.423 48.5,311.5C 47.3228,309.321 46.3228,306.987 45.5,304.5 Z"/></g>
<g><path style="opacity:0.004" fill="#fdfefd" d="M 195.5,307.5 C 196.525,307.897 196.692,308.563 196,309.5C 195.536,308.906 195.369,308.239 195.5,307.5 Z"/></g>
<g><path style="opacity:0.004" fill="#c7c7c7" d="M 247.5,294.5 C 247.268,300.616 247.934,306.616 249.5,312.5C 248.207,311.158 247.374,309.491 247,307.5C 246.186,302.98 246.353,298.646 247.5,294.5 Z"/></g>
<g><path style="opacity:0.824" fill="#2d2d2d" d="M 22.5,294.5 C 21.5025,317.661 21.1691,340.994 21.5,364.5C 21.1667,364.5 20.8333,364.5 20.5,364.5C 20.1669,340.824 20.5003,317.157 21.5,293.5C 22.1067,293.624 22.44,293.957 22.5,294.5 Z"/></g>
<g><path style="opacity:0.004" fill="#e5e5e5" d="M 48.5,311.5 C 50.539,312.911 51.539,314.911 51.5,317.5C 49.9925,315.819 48.9925,313.819 48.5,311.5 Z"/></g>
<g><path style="opacity:0.075" fill="#d1d1d1" d="M 28.5,309.5 C 31.3446,314.531 33.6779,319.864 35.5,325.5C 34.6236,325.631 33.9569,325.298 33.5,324.5C 32.1756,319.691 30.1756,315.191 27.5,311C 28.056,310.617 28.3893,310.117 28.5,309.5 Z"/></g>
<g><path style="opacity:0.681" fill="#858585" d="M 251.5,314.5 C 259.833,315.712 268.166,315.712 276.5,314.5C 280.74,314.54 284.74,315.206 288.5,316.5C 277.162,316.667 265.828,316.5 254.5,316C 253.263,315.768 252.263,315.268 251.5,314.5 Z"/></g>
<g><path style="opacity:0.086" fill="#b9b9b9" d="M 289.5,316.5 C 291.527,316.338 293.527,316.505 295.5,317C 296.056,317.383 296.389,317.883 296.5,318.5C 293.933,318.279 291.599,317.612 289.5,316.5 Z"/></g>
<g><path style="opacity:0.024" fill="#ededed" d="M -0.5,317.5 C 0.166667,317.5 0.833333,317.5 1.5,317.5C 1.5,321.167 1.5,324.833 1.5,328.5C 0.833333,328.5 0.166667,328.5 -0.5,328.5C -0.5,324.833 -0.5,321.167 -0.5,317.5 Z"/></g>
<g><path style="opacity:0.029" fill="#f2f2f2" d="M 217.5,306.5 C 218.487,311.813 219.154,317.313 219.5,323C 218.244,331.672 218.244,340.339 219.5,349C 219.503,351.484 218.837,353.651 217.5,355.5C 217.5,339.167 217.5,322.833 217.5,306.5 Z"/></g>
<g><path style="opacity:0.037" fill="#dbdbdb" d="M 51.5,317.5 C 53.4484,319.32 54.4484,321.654 54.5,324.5C 52.7073,322.574 51.7073,320.241 51.5,317.5 Z"/></g>
<g><path style="opacity:0.098" fill="#d2d2d2" d="M 101.5,313.5 C 99.5997,319.629 96.933,325.296 93.5,330.5C 95.3945,324.382 98.0612,318.715 101.5,313.5 Z"/></g>
<g><path style="opacity:0.031" fill="#e6e6e6" d="M 235.5,321.5 C 239.285,323.428 243.285,324.762 247.5,325.5C 243.868,326.026 240.201,325.359 236.5,323.5C 235.702,323.043 235.369,322.376 235.5,321.5 Z"/></g>
<g><path style="opacity:0.608" fill="#787878" d="M 302.5,322.5 C 303.906,322.973 304.573,323.973 304.5,325.5C 303.094,325.027 302.427,324.027 302.5,322.5 Z"/></g>
<g><path style="opacity:0.038" fill="#e1e1e1" d="M 248.5,325.5 C 259.014,325.172 269.347,325.506 279.5,326.5C 271.553,327.46 263.719,327.793 256,327.5C 253.292,327.133 250.792,326.466 248.5,325.5 Z"/></g>
<g><path style="opacity:0.094" fill="#dbdbdb" d="M 54.5,324.5 C 55.9313,325.78 56.5979,327.447 56.5,329.5C 55.0687,328.22 54.4021,326.553 54.5,324.5 Z"/></g>
<g><path style="opacity:0.106" fill="#d4d4d4" d="M 75.5,324.5 C 75.5979,326.553 74.9313,328.22 73.5,329.5C 73.4021,327.447 74.0687,325.78 75.5,324.5 Z"/></g>
<g><path style="opacity:0.102" fill="#ececec" d="M 22.5,294.5 C 22.8333,295.833 23.1667,297.167 23.5,298.5C 22.9469,319.223 22.9469,339.89 23.5,360.5C 23.3333,361.833 23.1667,363.167 23,364.5C 22.6174,365.056 22.1174,365.389 21.5,365.5C 21.5,365.167 21.5,364.833 21.5,364.5C 21.1691,340.994 21.5025,317.661 22.5,294.5 Z"/></g>
<g><path style="opacity:0.039" fill="#e6e6e6" d="M 315.5,293.5 C 315.333,312.503 315.5,331.503 316,350.5C 316.655,352.628 317.489,354.628 318.5,356.5C 316.827,355.657 315.66,354.324 315,352.5C 314.171,332.662 314.338,312.996 315.5,293.5 Z"/></g>
<g><path style="opacity:0.469" fill="#8f8f8f" d="M 335.5,295.5 C 335.5,296.833 335.5,298.167 335.5,299.5C 336.441,313.011 336.441,326.678 335.5,340.5C 335.5,342.5 335.5,344.5 335.5,346.5C 334.167,329.5 334.167,312.5 335.5,295.5 Z"/></g>
<g><path style="opacity:0.454" fill="#8e8e8e" d="M 383.5,295.5 C 384.833,312.833 384.833,330.167 383.5,347.5C 383.5,345.167 383.5,342.833 383.5,340.5C 382.227,328.502 382.227,316.502 383.5,304.5C 383.5,301.5 383.5,298.5 383.5,295.5 Z"/></g>
<g><path style="opacity:0.084" fill="#e2e2e2" d="M 402.5,288.5 C 404.867,291.68 405.867,295.347 405.5,299.5C 405.445,315.164 405.445,330.831 405.5,346.5C 405.461,348.952 404.794,350.952 403.5,352.5C 403.788,331.14 403.455,309.807 402.5,288.5 Z"/></g>
<g><path style="opacity:0.022" fill="#eeeeee" d="M 109.5,364.5 C 108.177,361.062 107.51,357.229 107.5,353C 108.022,336.098 108.356,319.264 108.5,302.5C 108.333,301.5 108.167,300.5 108,299.5C 107.722,300.416 107.222,301.082 106.5,301.5C 106.608,299.217 107.441,297.217 109,295.5C 109.5,318.498 109.667,341.498 109.5,364.5 Z"/></g>
<g><path style="opacity:0.776" fill="#939393" d="M 73.5,329.5 C 73.8799,331.698 73.2132,333.365 71.5,334.5C 71.7959,332.597 72.4625,330.93 73.5,329.5 Z"/></g>
<g><path style="opacity:0.035" fill="#d4d4d4" d="M 93.5,330.5 C 93.1631,334.836 91.4965,338.503 88.5,341.5C 89.3992,337.376 91.0659,333.709 93.5,330.5 Z"/></g>
<g><path style="opacity:0.035" fill="#dddddd" d="M 71.5,335.5 C 70.4861,337.574 69.4861,339.574 68.5,341.5C 68.3893,340.883 68.056,340.383 67.5,340C 68.2829,337.882 69.6162,336.382 71.5,335.5 Z"/></g>
<g><path style="opacity:0.029" fill="#d6d6d6" d="M 57.5,332.5 C 60.1648,334.835 61.4982,337.835 61.5,341.5C 59.9303,338.686 58.5969,335.686 57.5,332.5 Z"/></g>
<g><path style="opacity:0.047" fill="#d5d5d5" d="M 35.5,325.5 C 39.2122,332.959 42.5455,340.626 45.5,348.5C 44.5028,348.53 43.8361,348.03 43.5,347C 41.3943,341.291 38.8943,335.791 36,330.5C 35.5065,328.866 35.3398,327.199 35.5,325.5 Z"/></g>
<g><path style="opacity:0.217" fill="#bdbdbd" d="M 159.5,350.5 C 158.504,336.01 158.171,321.343 158.5,306.5C 152.167,306.5 145.833,306.5 139.5,306.5C 139.333,322.17 139.5,337.837 140,353.5C 141.481,354.471 142.315,355.804 142.5,357.5C 140.589,357.426 139.422,356.426 139,354.5C 137.723,337.852 137.557,321.518 138.5,305.5C 145.459,305.348 152.292,305.348 159,305.5C 160.139,320.51 160.305,335.51 159.5,350.5 Z"/></g>
<g><path style="opacity:0.037" fill="#d6d6d6" d="M 305.5,327.5 C 306.239,327.369 306.906,327.536 307.5,328C 306.849,335.431 306.683,342.931 307,350.5C 304.113,356.89 299.28,360.89 292.5,362.5C 298.064,360.105 302.231,356.105 305,350.5C 305.5,342.841 305.666,335.174 305.5,327.5 Z"/></g>
<g><path style="opacity:0.021" fill="#ededed" d="M -0.5,340.5 C 0.166667,340.5 0.833333,340.5 1.5,340.5C 1.5,344.5 1.5,348.5 1.5,352.5C 0.833333,352.5 0.166667,352.5 -0.5,352.5C -0.5,348.5 -0.5,344.5 -0.5,340.5 Z"/></g>
<g><path style="opacity:0.021" fill="#f1f1f1" d="M 197.5,316.5 C 197.5,328.5 197.5,340.5 197.5,352.5C 196.624,352.631 195.957,352.298 195.5,351.5C 195.861,339.851 196.528,328.184 197.5,316.5 Z"/></g>
<g><path style="opacity:0.036" fill="#d1d1d1" d="M 282.5,327.5 C 283.794,328.29 284.961,329.29 286,330.5C 286.667,336.167 286.667,341.833 286,347.5C 285.181,351.171 283.015,353.505 279.5,354.5C 276.833,354.5 274.167,354.5 271.5,354.5C 274.509,353.717 277.676,353.05 281,352.5C 282.477,351.556 283.477,350.223 284,348.5C 285.072,342.859 285.405,337.193 285,331.5C 283.519,330.529 282.685,329.196 282.5,327.5 Z"/></g>
<g><path style="opacity:0.018" fill="#dadada" d="M 383.5,340.5 C 383.5,342.833 383.5,345.167 383.5,347.5C 383.539,348.756 383.039,349.756 382,350.5C 380.293,348.963 378.793,347.296 377.5,345.5C 378.93,345.421 380.264,345.754 381.5,346.5C 382.169,344.369 382.835,342.369 383.5,340.5 Z"/></g>
<g><path style="opacity:0.014" fill="#e9e9e9" d="M 413.5,340.5 C 413.372,344.881 413.705,349.215 414.5,353.5C 413.883,353.389 413.383,353.056 413,352.5C 412.188,348.311 412.355,344.311 413.5,340.5 Z"/></g>
<g><path style="opacity:0.033" fill="#e0e0e0" d="M 433.5,340.5 C 434.581,344.192 435.915,347.858 437.5,351.5C 441.582,352.689 445.582,353.689 449.5,354.5C 446.833,354.5 444.167,354.5 441.5,354.5C 436.615,354.071 433.949,351.404 433.5,346.5C 433.5,344.5 433.5,342.5 433.5,340.5 Z"/></g>
<g><path style="opacity:0.078" fill="#eaeaea" d="M 68.5,341.5 C 68.573,343.027 67.9063,344.027 66.5,344.5C 66.427,342.973 67.0937,341.973 68.5,341.5 Z"/></g>
<g><path style="opacity:0.033" fill="#dbdbdb" d="M 335.5,340.5 C 336.17,345.171 337.837,349.504 340.5,353.5C 337.672,352.004 336.006,349.671 335.5,346.5C 335.5,344.5 335.5,342.5 335.5,340.5 Z"/></g>
<g><path style="opacity:0.01" fill="#d0d0d0" d="M 377.5,345.5 C 370.159,345.334 362.826,345.5 355.5,346C 356.056,346.383 356.389,346.883 356.5,347.5C 355.603,348.598 354.77,348.598 354,347.5C 353.316,346.216 353.483,345.049 354.5,344C 362.37,343.464 370.037,343.964 377.5,345.5 Z"/></g>
<g><path style="opacity:0.059" fill="#a8a8a8" d="M 62.5,343.5 C 63.2323,344.808 64.0656,346.142 65,347.5C 65.2784,346.584 65.7784,345.918 66.5,345.5C 66.762,346.978 66.4287,348.311 65.5,349.5C 63.0217,348.278 62.0217,346.278 62.5,343.5 Z"/></g>
<g><path style="opacity:0.067" fill="#cbcbcb" d="M 87.5,343.5 C 86.3484,347.145 85.1818,350.812 84,354.5C 83.6232,355.942 82.7899,356.942 81.5,357.5C 82.5422,352.358 84.5422,347.691 87.5,343.5 Z"/></g>
<g><path style="opacity:0.004" fill="#d4d4d4" d="M 45.5,348.5 C 46.9313,349.78 47.5979,351.447 47.5,353.5C 45.744,352.448 45.0773,350.781 45.5,348.5 Z"/></g>
<g><path style="opacity:0.024" fill="#d5d5d5" d="M 356.5,347.5 C 358.833,349.5 361.167,351.5 363.5,353.5C 359.911,352.908 357.578,350.908 356.5,347.5 Z"/></g>
<g><path style="opacity:0.01" fill="#e1e1e1" d="M 353.5,354.5 C 350.167,354.5 346.833,354.5 343.5,354.5C 342.209,354.737 341.209,354.404 340.5,353.5C 341.117,353.389 341.617,353.056 342,352.5C 345.935,353.138 349.769,353.804 353.5,354.5 Z"/></g>
<g><path style="opacity:0.028" fill="#ededed" d="M 493.5,352.5 C 493.5,356.5 493.5,360.5 493.5,364.5C 493.167,364.5 492.833,364.5 492.5,364.5C 492.5,361.167 492.5,357.833 492.5,354.5C 490.5,354.5 488.5,354.5 486.5,354.5C 486.611,353.883 486.944,353.383 487.5,353C 489.473,352.505 491.473,352.338 493.5,352.5 Z"/></g>
<g><path style="opacity:0.471" fill="#9a9a9a" d="M 160.5,352.5 C 163.781,353.852 167.281,354.519 171,354.5C 179.903,353.711 188.736,353.377 197.5,353.5C 192.376,354.829 186.876,355.495 181,355.5C 175.5,355.333 170,355.167 164.5,355C 162.934,354.392 161.6,353.558 160.5,352.5 Z"/></g>
<g><path style="opacity:0.463" fill="#9a9a9a" d="M 271.5,354.5 C 274.167,354.5 276.833,354.5 279.5,354.5C 262.341,355.497 245.008,355.83 227.5,355.5C 227.5,355.167 227.5,354.833 227.5,354.5C 241.982,353.642 256.649,353.642 271.5,354.5 Z"/></g>
<g><path style="opacity:0.461" fill="#828282" d="M 363.5,353.5 C 364.289,353.783 364.956,354.283 365.5,355C 357.988,355.822 350.655,355.655 343.5,354.5C 346.833,354.5 350.167,354.5 353.5,354.5C 357.042,354.813 360.375,354.479 363.5,353.5 Z"/></g>
<g><path style="opacity:0.025" fill="#dcdcdc" d="M 414.5,353.5 C 417.599,357.934 421.599,361.267 426.5,363.5C 420.326,362.651 416.326,359.318 414.5,353.5 Z"/></g>
<g><path style="opacity:0.462" fill="#8d8d8d" d="M 486.5,354.5 C 488.5,354.5 490.5,354.5 492.5,354.5C 492.5,357.833 492.5,361.167 492.5,364.5C 490.735,365.461 488.735,365.795 486.5,365.5C 481.968,365.818 477.634,365.485 473.5,364.5C 479.5,364.5 485.5,364.5 491.5,364.5C 491.5,361.5 491.5,358.5 491.5,355.5C 474.658,355.83 457.992,355.497 441.5,354.5C 444.167,354.5 446.833,354.5 449.5,354.5C 461.83,353.287 474.163,353.287 486.5,354.5 Z"/></g>
<g><path style="opacity:0.224" fill="#c9c9c9" d="M 47.5,353.5 C 49.1042,354.287 49.7709,355.62 49.5,357.5C 47.8958,356.713 47.2291,355.38 47.5,353.5 Z"/></g>
<g><path style="opacity:0.397" fill="#bababa" d="M 227.5,354.5 C 227.5,354.833 227.5,355.167 227.5,355.5C 227.5,358.5 227.5,361.5 227.5,364.5C 247.169,364.667 266.836,364.5 286.5,364C 288.436,363.187 290.436,362.687 292.5,362.5C 291.4,363.558 290.066,364.392 288.5,365C 280.827,365.402 273.16,365.902 265.5,366.5C 254.29,365.607 242.79,365.274 231,365.5C 229.019,365.371 227.353,364.704 226,363.5C 225.333,360.833 225.333,358.167 226,355.5C 226.383,354.944 226.883,354.611 227.5,354.5 Z"/></g>
<g><path style="opacity:0.608" fill="#a3a3a3" d="M 142.5,357.5 C 144.027,357.427 145.027,358.094 145.5,359.5C 143.973,359.573 142.973,358.906 142.5,357.5 Z"/></g>
<g><path style="opacity:0.029" fill="#dcdcdc" d="M 402.5,354.5 C 400.962,358.031 399.962,361.697 399.5,365.5C 397.704,364.207 396.037,362.707 394.5,361C 397.961,359.695 400.628,357.529 402.5,354.5 Z"/></g>
<g><path style="opacity:0.004" fill="#d6d6d6" d="M 49.5,357.5 C 50.9063,357.973 51.573,358.973 51.5,360.5C 50.0937,360.027 49.427,359.027 49.5,357.5 Z"/></g>
<g><path style="opacity:0.004" fill="#dddddd" d="M 79.5,360.5 C 79.0269,361.906 78.0269,362.573 76.5,362.5C 76.9731,361.094 77.9731,360.427 79.5,360.5 Z"/></g>
<g><path style="opacity:0.022" fill="#dedede" d="M 318.5,356.5 C 321.857,358.866 325.19,361.199 328.5,363.5C 323.695,363.111 320.362,360.777 318.5,356.5 Z"/></g>
<g><path style="opacity:0.031" fill="#dcdcdc" d="M 53.5,362.5 C 55.2838,362.893 56.9505,363.559 58.5,364.5C 56.4899,365.349 54.8233,364.682 53.5,362.5 Z"/></g>
<g><path style="opacity:0.029" fill="#bdbdbd" d="M 150.5,362.5 C 152.898,362.259 154.898,362.926 156.5,364.5C 154.102,364.741 152.102,364.074 150.5,362.5 Z"/></g>
<g><path style="opacity:0.338" fill="#b8b8b8" d="M 1.5,364.5 C 7.83333,364.5 14.1667,364.5 20.5,364.5C 20.8333,364.5 21.1667,364.5 21.5,364.5C 21.5,364.833 21.5,365.167 21.5,365.5C 16.9532,365.38 12.1199,365.714 7,366.5C 4.70024,366.506 2.53358,366.006 0.5,365C 0.728446,364.601 1.06178,364.435 1.5,364.5 Z"/></g>
<g><path style="opacity:0.042" fill="#d6d6d6" d="M 76.5,362.5 C 76.4226,363.75 75.756,364.583 74.5,365C 69.3158,365.816 64.3158,365.65 59.5,364.5C 65.3585,364.949 71.0252,364.283 76.5,362.5 Z"/></g>
<g><path style="opacity:0.35" fill="#afafaf" d="M 109.5,364.5 C 116.167,364.5 122.833,364.5 129.5,364.5C 129.53,365.497 129.03,366.164 128,366.5C 121.653,366.983 115.486,366.317 109.5,364.5 Z"/></g>
<g><path style="opacity:0.028" fill="#eaeaea" d="M 217.5,362.5 C 218.947,363.134 219.613,364.301 219.5,366C 218.99,368.706 218.323,371.373 217.5,374C 217.164,375.03 216.497,375.53 215.5,375.5C 217.183,371.364 217.85,367.031 217.5,362.5 Z"/></g>
<g><path style="opacity:0.402" fill="#b2b2b2" d="M 328.5,363.5 C 344.652,364.09 360.652,364.757 376.5,365.5C 364.151,366.291 351.817,366.624 339.5,366.5C 335.518,366.139 331.851,365.139 328.5,363.5 Z"/></g>
<g><path style="opacity:0.364" fill="#c2c2c2" d="M 426.5,363.5 C 442.138,364.437 457.805,364.771 473.5,364.5C 477.634,365.485 481.968,365.818 486.5,365.5C 470.095,365.788 453.595,366.121 437,366.5C 433.296,365.911 429.796,364.911 426.5,363.5 Z"/></g>
<g><path style="opacity:0.026" fill="#cdcdcd" d="M 158.5,364.5 C 171.5,364.5 184.5,364.5 197.5,364.5C 198.372,371.295 195.372,374.628 188.5,374.5C 190.82,373.582 192.987,372.248 195,370.5C 195.49,369.207 195.657,367.873 195.5,366.5C 187.17,365.223 178.837,365.223 170.5,366.5C 166.26,366.46 162.26,365.794 158.5,364.5 Z"/></g>
<g><path style="opacity:0.063" fill="#b5b5b5" d="M 401.5,367.5 C 403.404,367.738 404.738,368.738 405.5,370.5C 403.596,370.262 402.262,369.262 401.5,367.5 Z"/></g>
<g><path style="opacity:0.814" fill="#5d5d5d" d="M 188.5,374.5 C 172.342,375.496 156.009,375.83 139.5,375.5C 139.5,375.167 139.5,374.833 139.5,374.5C 155.787,373.902 172.121,373.902 188.5,374.5 Z"/></g>
<g><path style="opacity:0.136" fill="#c4c4c4" d="M 376.5,365.5 C 379.916,368.071 383.25,370.904 386.5,374C 393.833,374.667 401.167,374.667 408.5,374C 406.574,373.578 405.574,372.411 405.5,370.5C 407.553,371.534 409.22,373.034 410.5,375C 402.167,375.667 393.833,375.667 385.5,375C 381.958,372.293 378.958,369.126 376.5,365.5 Z"/></g>
<g><path style="opacity:0.458" fill="#a6a6a6" d="M 139.5,374.5 C 139.5,374.833 139.5,375.167 139.5,375.5C 139.5,378.5 139.5,381.5 139.5,384.5C 139.167,384.5 138.833,384.5 138.5,384.5C 138.74,382.519 138.406,380.352 137.5,378C 137.387,376.301 138.053,375.134 139.5,374.5 Z"/></g>
<g><path style="opacity:0.016" fill="#d7d7d7" d="M 212.5,378.5 C 211.781,380.888 210.115,382.388 207.5,383C 204.49,384.532 201.49,385.032 198.5,384.5C 203.355,383.076 208.022,381.076 212.5,378.5 Z"/></g>
<g><path style="opacity:0.032" fill="#f2f2f2" d="M 138.5,384.5 C 138.833,384.5 139.167,384.5 139.5,384.5C 158.167,384.5 176.833,384.5 195.5,384.5C 191.389,385.708 187.055,386.375 182.5,386.5C 174.665,385.194 166.832,385.194 159,386.5C 151.991,386.071 145.158,385.404 138.5,384.5 Z"/></g>
</svg>
