<?xml version="1.0" encoding="UTF-8"?>
<!DOCTYPE svg PUBLIC "-//W3C//DTD SVG 1.1//EN" "http://www.w3.org/Graphics/SVG/1.1/DTD/svg11.dtd">
<svg xmlns="http://www.w3.org/2000/svg" version="1.1" width="225px" height="225px" style="shape-rendering:geometricPrecision; text-rendering:geometricPrecision; image-rendering:optimizeQuality; fill-rule:evenodd; clip-rule:evenodd" xmlns:xlink="http://www.w3.org/1999/xlink">
<g><path style="opacity:0.447" fill="#6d2134" d="M 128.5,36.5 C 127.5,36.5 126.5,36.5 125.5,36.5C 125.5,37.5 125.5,38.5 125.5,39.5C 124.188,38.8549 123.188,37.8549 122.5,36.5C 124.636,35.2072 126.636,35.2072 128.5,36.5 Z"/></g>
<g><path style="opacity:1" fill="#902843" d="M 128.5,36.5 C 130.632,36.5544 131.965,37.5544 132.5,39.5C 130.368,39.4456 129.035,38.4456 128.5,36.5 Z"/></g>
<g><path style="opacity:1" fill="#c52a4e" d="M 128.5,36.5 C 129.035,38.4456 130.368,39.4456 132.5,39.5C 135.201,42.4976 134.534,44.8309 130.5,46.5C 129.5,46.5 128.5,46.5 127.5,46.5C 127.662,44.4727 127.495,42.4727 127,40.5C 126.617,39.944 126.117,39.6107 125.5,39.5C 125.5,38.5 125.5,37.5 125.5,36.5C 126.5,36.5 127.5,36.5 128.5,36.5 Z"/></g>
<g><path style="opacity:1" fill="#8a2b41" d="M 144.5,41.5 C 142.09,40.5615 139.756,40.5615 137.5,41.5C 137.5,40.5 137.5,39.5 137.5,38.5C 140.491,38.1663 142.824,39.1663 144.5,41.5 Z"/></g>
<g><path style="opacity:1" fill="#912740" d="M 149.5,45.5 C 152.277,47.9505 154.277,50.9505 155.5,54.5C 152.378,52.3556 150.378,49.3556 149.5,45.5 Z"/></g>
<g><path style="opacity:1" fill="#88293d" d="M 125.5,39.5 C 126.117,39.6107 126.617,39.944 127,40.5C 127.495,42.4727 127.662,44.4727 127.5,46.5C 128.5,46.5 129.5,46.5 130.5,46.5C 130.842,47.3382 131.508,47.6716 132.5,47.5C 129.9,51.3694 127.9,55.3694 126.5,59.5C 122.594,54.2769 122.594,48.9436 126.5,43.5C 125.754,42.2638 125.421,40.9305 125.5,39.5 Z M 128.5,49.5 C 128.291,50.9217 127.791,52.255 127,53.5C 126.227,51.6476 126.727,50.3143 128.5,49.5 Z"/></g>
<g><path style="opacity:1" fill="#8d263e" d="M 113.5,55.5 C 109.785,55.577 106.119,55.2436 102.5,54.5C 95.485,54.5782 88.485,54.9115 81.5,55.5C 86.4127,53.9925 91.5793,53.3258 97,53.5C 102.743,53.3582 108.243,54.0249 113.5,55.5 Z"/></g>
<g><path style="opacity:1" fill="#de224e" d="M 144.5,41.5 C 146.749,42.0798 148.415,43.4131 149.5,45.5C 150.378,49.3556 152.378,52.3556 155.5,54.5C 155.5,54.8333 155.5,55.1667 155.5,55.5C 155.678,60.0395 155.345,64.5395 154.5,69C 151.923,73.673 149.923,78.5063 148.5,83.5C 146.853,85.3264 144.853,86.6597 142.5,87.5C 139.762,87.8511 137.096,88.5178 134.5,89.5C 133.614,90.325 133.281,91.325 133.5,92.5C 137.514,92.6655 141.514,92.4988 145.5,92C 146.737,91.7679 147.737,91.2679 148.5,90.5C 153.154,90.6718 157.154,89.1718 160.5,86C 162.734,82.3645 164.568,78.5311 166,74.5C 167.085,73.7069 168.252,73.0402 169.5,72.5C 171.232,74.2827 172.732,76.2827 174,78.5C 175.113,79.305 176.279,79.9717 177.5,80.5C 177.833,83.1667 178.167,85.8333 178.5,88.5C 179.5,88.5 180.5,88.5 181.5,88.5C 181.625,95.2145 183.125,101.548 186,107.5C 186.5,115.159 186.666,122.826 186.5,130.5C 184.835,136.484 183.169,142.484 181.5,148.5C 180.18,149.942 178.514,150.608 176.5,150.5C 176.5,146.833 176.5,143.167 176.5,139.5C 175.167,139.5 173.833,139.5 172.5,139.5C 172.002,142.487 171.502,145.487 171,148.5C 168.072,153.571 165.905,158.904 164.5,164.5C 162.738,165.262 161.738,166.596 161.5,168.5C 161.5,168.833 161.5,169.167 161.5,169.5C 159.609,170.536 157.776,170.536 156,169.5C 155.982,167.203 156.149,164.869 156.5,162.5C 157.947,160.162 157.447,158.162 155,156.5C 154.716,158.886 153.716,159.552 152,158.5C 151.503,160.81 151.337,163.143 151.5,165.5C 151.5,166.167 151.167,166.5 150.5,166.5C 149.094,166.973 148.427,167.973 148.5,169.5C 146.598,168.489 144.598,168.322 142.5,169C 142.833,169.333 143.167,169.667 143.5,170C 141.757,171.11 140.424,172.61 139.5,174.5C 138.914,174.291 138.414,173.957 138,173.5C 137.415,175.661 136.582,177.661 135.5,179.5C 131.246,180.869 126.913,181.869 122.5,182.5C 123.043,179.962 124.043,177.628 125.5,175.5C 128.897,174.432 130.897,172.099 131.5,168.5C 128.753,168.813 126.086,168.48 123.5,167.5C 124.423,164.553 125.089,161.553 125.5,158.5C 126.15,158.196 126.817,157.863 127.5,157.5C 130.238,150.74 131.072,143.74 130,136.5C 128.187,135.391 127.354,136.058 127.5,138.5C 127.5,138.833 127.5,139.167 127.5,139.5C 126.5,139.5 125.5,139.5 124.5,139.5C 121.743,143.789 119.576,148.455 118,153.5C 114.039,154.295 111.539,156.628 110.5,160.5C 108.62,160.229 107.287,160.896 106.5,162.5C 106.158,163.338 105.492,163.672 104.5,163.5C 96.1763,164.668 87.8429,164.668 79.5,163.5C 79.1667,163.5 78.8333,163.5 78.5,163.5C 77.8592,162.518 77.1925,161.518 76.5,160.5C 78.1557,157.145 77.1557,155.145 73.5,154.5C 73.5,154.167 73.5,153.833 73.5,153.5C 71.7945,146.891 72.4612,140.557 75.5,134.5C 77.8669,135.164 79.8669,136.497 81.5,138.5C 82.1667,140.833 82.8333,143.167 83.5,145.5C 84.6223,146.63 85.9557,147.297 87.5,147.5C 90.204,148.714 92.8707,148.714 95.5,147.5C 101.601,148.051 104.934,145.384 105.5,139.5C 108.961,138.889 111.628,140.056 113.5,143C 114.167,143.667 114.833,143.667 115.5,143C 113.703,134.974 111.37,127.141 108.5,119.5C 105.5,119.833 104.167,118.5 104.5,115.5C 101.962,114.957 99.6282,113.957 97.5,112.5C 97.0269,111.094 96.0269,110.427 94.5,110.5C 93.656,108.241 91.9893,107.241 89.5,107.5C 89.4226,106.25 88.756,105.417 87.5,105C 84.5219,104.304 81.5219,103.804 78.5,103.5C 77.8333,103.5 77.1667,103.5 76.5,103.5C 71.0924,101.247 65.4258,100.914 59.5,102.5C 58.2867,102.747 57.62,103.414 57.5,104.5C 57.5,104.833 57.5,105.167 57.5,105.5C 56.4168,105.539 55.4168,105.873 54.5,106.5C 53.8333,105.5 53.1667,104.5 52.5,103.5C 51.8933,103.624 51.56,103.957 51.5,104.5C 51.5,104.833 51.5,105.167 51.5,105.5C 50.0221,104.552 49.0221,103.219 48.5,101.5C 48.1667,101.5 47.8333,101.5 47.5,101.5C 46.4154,99.4131 44.7488,98.0798 42.5,97.5C 41.9525,95.5153 40.9525,93.8486 39.5,92.5C 38.8333,91.1667 37.8333,90.1667 36.5,89.5C 36.2221,81.7809 39.8887,77.4476 47.5,76.5C 49.5273,76.6621 51.5273,76.4955 53.5,76C 55.6464,74.3983 57.9798,73.2317 60.5,72.5C 60.6287,70.7839 60.962,69.1172 61.5,67.5C 64.6839,65.1582 68.0172,62.9915 71.5,61C 72.7932,60.51 74.1266,60.3433 75.5,60.5C 75.5,59.5 75.5,58.5 75.5,57.5C 77.1016,55.9261 79.1016,55.2594 81.5,55.5C 88.485,54.9115 95.485,54.5782 102.5,54.5C 102.611,55.1174 102.944,55.6174 103.5,56C 111.016,56.3992 118.35,57.5658 125.5,59.5C 125.833,59.5 126.167,59.5 126.5,59.5C 127.9,55.3694 129.9,51.3694 132.5,47.5C 134.543,45.792 136.21,43.792 137.5,41.5C 139.756,40.5615 142.09,40.5615 144.5,41.5 Z"/></g>
<g><path style="opacity:1" fill="#b02a4a" d="M 102.5,54.5 C 106.119,55.2436 109.785,55.577 113.5,55.5C 117.915,55.8606 121.915,57.1939 125.5,59.5C 118.35,57.5658 111.016,56.3992 103.5,56C 102.944,55.6174 102.611,55.1174 102.5,54.5 Z"/></g>
<g><path style="opacity:1" fill="#ac2a48" d="M 75.5,57.5 C 75.5,58.5 75.5,59.5 75.5,60.5C 74.1266,60.3433 72.7932,60.51 71.5,61C 68.0172,62.9915 64.6839,65.1582 61.5,67.5C 64.7689,62.2341 69.4356,58.9008 75.5,57.5 Z"/></g>
<g><path style="opacity:1" fill="#a62947" d="M 155.5,55.5 C 159.019,66.2228 156.686,75.5561 148.5,83.5C 149.923,78.5063 151.923,73.673 154.5,69C 155.345,64.5395 155.678,60.0395 155.5,55.5 Z"/></g>
<g><path style="opacity:1" fill="#a92a47" d="M 177.5,80.5 C 176.279,79.9717 175.113,79.305 174,78.5C 172.732,76.2827 171.232,74.2827 169.5,72.5C 168.252,73.0402 167.085,73.7069 166,74.5C 164.568,78.5311 162.734,82.3645 160.5,86C 157.154,89.1718 153.154,90.6718 148.5,90.5C 158.809,85.8368 165.142,77.8368 167.5,66.5C 171.822,70.4833 175.155,75.15 177.5,80.5 Z"/></g>
<g><path style="opacity:1" fill="#c2294e" d="M 61.5,67.5 C 60.962,69.1172 60.6287,70.7839 60.5,72.5C 57.9798,73.2317 55.6464,74.3983 53.5,76C 51.5273,76.4955 49.5273,76.6621 47.5,76.5C 47.5,76.1667 47.5,75.8333 47.5,75.5C 52.7862,73.8587 57.4528,71.192 61.5,67.5 Z"/></g>
<g><path style="opacity:0.894" fill="#88233b" d="M 47.5,75.5 C 47.5,75.8333 47.5,76.1667 47.5,76.5C 39.8887,77.4476 36.2221,81.7809 36.5,89.5C 34.7211,80.9145 38.3878,76.2478 47.5,75.5 Z"/></g>
<g><path style="opacity:1" fill="#b02c4a" d="M 177.5,80.5 C 179.341,82.8485 180.674,85.5152 181.5,88.5C 180.5,88.5 179.5,88.5 178.5,88.5C 178.167,85.8333 177.833,83.1667 177.5,80.5 Z"/></g>
<g><path style="opacity:0.016" fill="#5c111c" d="M 36.5,89.5 C 37.8333,90.1667 38.8333,91.1667 39.5,92.5C 37.5,92.5 36.5,91.5 36.5,89.5 Z"/></g>
<g><path style="opacity:0.629" fill="#98233e" d="M 142.5,87.5 C 140.304,88.8119 137.97,89.9786 135.5,91C 139.848,91.4155 144.181,91.2488 148.5,90.5C 147.737,91.2679 146.737,91.7679 145.5,92C 141.514,92.4988 137.514,92.6655 133.5,92.5C 133.281,91.325 133.614,90.325 134.5,89.5C 137.096,88.5178 139.762,87.8511 142.5,87.5 Z"/></g>
<g><path style="opacity:1" fill="#84263b" d="M 183.5,93.5 C 185.277,96.5046 186.277,99.8379 186.5,103.5C 184.723,100.495 183.723,97.1621 183.5,93.5 Z"/></g>
<g><path style="opacity:0.929" fill="#701e30" d="M 42.5,97.5 C 44.7488,98.0798 46.4154,99.4131 47.5,101.5C 45.2512,100.92 43.5846,99.5869 42.5,97.5 Z"/></g>
<g><path style="opacity:0.845" fill="#87293d" d="M 76.5,103.5 C 70.0661,102.23 63.7328,102.563 57.5,104.5C 57.62,103.414 58.2867,102.747 59.5,102.5C 65.4258,100.914 71.0924,101.247 76.5,103.5 Z"/></g>
<g><path style="opacity:0.318" fill="#4a1f26" d="M 48.5,101.5 C 49.0221,103.219 50.0221,104.552 51.5,105.5C 50.9924,107.233 50.159,107.566 49,106.5C 48.5065,104.866 48.3398,103.199 48.5,101.5 Z"/></g>
<g><path style="opacity:1" fill="#92243e" d="M 78.5,103.5 C 81.5219,103.804 84.5219,104.304 87.5,105C 88.756,105.417 89.4226,106.25 89.5,107.5C 85.6929,106.307 82.0262,104.974 78.5,103.5 Z"/></g>
<g><path style="opacity:0.592" fill="#73283b" d="M 51.5,104.5 C 51.56,103.957 51.8933,103.624 52.5,103.5C 53.1667,104.5 53.8333,105.5 54.5,106.5C 55.4168,105.873 56.4168,105.539 57.5,105.5C 54.2773,111.139 52.2773,110.805 51.5,104.5 Z"/></g>
<g><path style="opacity:1" fill="#92223c" d="M 89.5,107.5 C 91.9893,107.241 93.656,108.241 94.5,110.5C 92.5659,109.89 90.8993,108.89 89.5,107.5 Z"/></g>
<g><path style="opacity:0.596" fill="#6b2231" d="M 94.5,110.5 C 96.0269,110.427 97.0269,111.094 97.5,112.5C 95.9731,112.573 94.9731,111.906 94.5,110.5 Z"/></g>
<g><path style="opacity:1" fill="#b12c4b" d="M 181.5,88.5 C 182.931,89.7804 183.598,91.4471 183.5,93.5C 183.723,97.1621 184.723,100.495 186.5,103.5C 188.007,108.413 188.674,113.579 188.5,119C 188.467,122.915 188.133,126.749 187.5,130.5C 187.167,130.5 186.833,130.5 186.5,130.5C 186.666,122.826 186.5,115.159 186,107.5C 183.125,101.548 181.625,95.2145 181.5,88.5 Z"/></g>
<g><path style="opacity:1" fill="#aa2745" d="M 97.5,112.5 C 99.6282,113.957 101.962,114.957 104.5,115.5C 104.167,118.5 105.5,119.833 108.5,119.5C 111.37,127.141 113.703,134.974 115.5,143C 114.833,143.667 114.167,143.667 113.5,143C 111.628,140.056 108.961,138.889 105.5,139.5C 107.344,137.114 109.511,137.114 112,139.5C 111.888,134.574 110.555,129.908 108,125.5C 104.971,120.77 101.471,116.437 97.5,112.5 Z"/></g>
<g><path style="opacity:1" fill="#b32747" d="M 87.5,147.5 C 85.9557,147.297 84.6223,146.63 83.5,145.5C 82.8333,143.167 82.1667,140.833 81.5,138.5C 79.8669,136.497 77.8669,135.164 75.5,134.5C 78.553,131.86 81.7197,131.86 85,134.5C 84.7852,137.811 84.7852,141.144 85,144.5C 86.045,145.373 86.8783,146.373 87.5,147.5 Z"/></g>
<g><path style="opacity:1" fill="#91273f" d="M 186.5,130.5 C 186.833,130.5 187.167,130.5 187.5,130.5C 186.875,137.043 184.875,143.043 181.5,148.5C 183.169,142.484 184.835,136.484 186.5,130.5 Z"/></g>
<g><path style="opacity:0.965" fill="#a02743" d="M 125.5,158.5 C 127.967,151.7 129.133,144.7 129,137.5C 128.617,138.056 128.117,138.389 127.5,138.5C 127.354,136.058 128.187,135.391 130,136.5C 131.072,143.74 130.238,150.74 127.5,157.5C 126.817,157.863 126.15,158.196 125.5,158.5 Z"/></g>
<g><path style="opacity:1" fill="#a92b48" d="M 75.5,134.5 C 72.4612,140.557 71.7945,146.891 73.5,153.5C 69.7692,147.696 69.6025,141.696 73,135.5C 73.6708,134.748 74.5041,134.414 75.5,134.5 Z"/></g>
<g><path style="opacity:1" fill="#9a2642" d="M 100.5,140.5 C 100.5,141.167 100.5,141.833 100.5,142.5C 99.1667,142.833 99.1667,143.167 100.5,143.5C 100.369,144.239 100.536,144.906 101,145.5C 102.277,143.253 103.777,141.253 105.5,139.5C 104.934,145.384 101.601,148.051 95.5,147.5C 96.3795,144.738 97.5462,142.071 99,139.5C 99.3826,140.056 99.8826,140.389 100.5,140.5 Z"/></g>
<g><path style="opacity:0.008" fill="#000000" d="M 100.5,142.5 C 101.833,143.167 101.833,143.167 100.5,142.5 Z"/></g>
<g><path style="opacity:0.004" fill="#000000" d="M 100.5,139.5 C 101.833,140.167 101.833,140.167 100.5,139.5 Z"/></g>
<g><path style="opacity:1" fill="#a72644" d="M 127.5,139.5 C 124.894,149.081 119.227,156.081 110.5,160.5C 111.539,156.628 114.039,154.295 118,153.5C 119.576,148.455 121.743,143.789 124.5,139.5C 125.5,139.5 126.5,139.5 127.5,139.5 Z"/></g>
<g><path style="opacity:1" fill="#a02944" d="M 181.5,148.5 C 181.649,149.552 181.483,150.552 181,151.5C 179.088,153.657 177.421,155.991 176,158.5C 175.891,153.386 175.224,148.386 174,143.5C 172.251,151.291 169.084,158.291 164.5,164.5C 165.905,158.904 168.072,153.571 171,148.5C 171.502,145.487 172.002,142.487 172.5,139.5C 173.833,139.5 175.167,139.5 176.5,139.5C 176.5,143.167 176.5,146.833 176.5,150.5C 178.514,150.608 180.18,149.942 181.5,148.5 Z"/></g>
<g><path style="opacity:1" fill="#ae2745" d="M 156.5,162.5 C 156.631,161.761 156.464,161.094 156,160.5C 154.951,162.618 153.451,164.284 151.5,165.5C 151.337,163.143 151.503,160.81 152,158.5C 153.716,159.552 154.716,158.886 155,156.5C 157.447,158.162 157.947,160.162 156.5,162.5 Z"/></g>
<g><path style="opacity:0.992" fill="#87263b" d="M 73.5,154.5 C 77.1557,155.145 78.1557,157.145 76.5,160.5C 77.1925,161.518 77.8592,162.518 78.5,163.5C 76.528,162.549 74.528,161.549 72.5,160.5C 73.6651,159.416 74.9984,158.583 76.5,158C 75.2899,156.961 74.2899,155.794 73.5,154.5 Z"/></g>
<g><path style="opacity:0.098" fill="#6b1c2c" d="M 110.5,160.5 C 109.486,161.674 108.153,162.34 106.5,162.5C 107.287,160.896 108.62,160.229 110.5,160.5 Z"/></g>
<g><path style="opacity:0.973" fill="#962440" d="M 79.5,163.5 C 87.8429,164.668 96.1763,164.668 104.5,163.5C 100.508,164.863 96.3413,165.863 92,166.5C 87.6587,165.863 83.492,164.863 79.5,163.5 Z"/></g>
<g><path style="opacity:0.133" fill="#6f1f2d" d="M 164.5,164.5 C 164.262,166.404 163.262,167.738 161.5,168.5C 161.738,166.596 162.738,165.262 164.5,164.5 Z"/></g>
<g><path style="opacity:0.443" fill="#45141c" d="M 119.5,166.5 C 119.573,168.027 118.906,169.027 117.5,169.5C 117.427,167.973 118.094,166.973 119.5,166.5 Z"/></g>
<g><path style="opacity:0.027" fill="#5c132b" d="M 150.5,166.5 C 150.573,168.027 149.906,169.027 148.5,169.5C 148.427,167.973 149.094,166.973 150.5,166.5 Z"/></g>
<g><path style="opacity:1" fill="#be2b4e" d="M 125.5,158.5 C 125.089,161.553 124.423,164.553 123.5,167.5C 126.086,168.48 128.753,168.813 131.5,168.5C 130.897,172.099 128.897,174.432 125.5,175.5C 126.96,173.537 128.627,171.704 130.5,170C 128.169,170.157 125.836,170.657 123.5,171.5C 120.786,171.75 118.119,171.917 115.5,172C 116.056,171.617 116.389,171.117 116.5,170.5C 116.5,169.833 116.833,169.5 117.5,169.5C 118.906,169.027 119.573,168.027 119.5,166.5C 121.885,164.116 123.885,161.45 125.5,158.5 Z"/></g>
<g><path style="opacity:1" fill="#b42546" d="M 148.5,169.5 C 144.767,173.561 140.433,176.894 135.5,179.5C 136.582,177.661 137.415,175.661 138,173.5C 138.414,173.957 138.914,174.291 139.5,174.5C 140.424,172.61 141.757,171.11 143.5,170C 143.167,169.667 142.833,169.333 142.5,169C 144.598,168.322 146.598,168.489 148.5,169.5 Z"/></g>
<g><path style="opacity:0.376" fill="#691c31" d="M 116.5,170.5 C 116.389,171.117 116.056,171.617 115.5,172C 118.119,171.917 120.786,171.75 123.5,171.5C 120.162,172.76 116.662,173.76 113,174.5C 112.832,172.159 113.999,170.826 116.5,170.5 Z"/></g>
<g><path style="opacity:0.973" fill="#a02844" d="M 156.5,162.5 C 156.149,164.869 155.982,167.203 156,169.5C 157.776,170.536 159.609,170.536 161.5,169.5C 158.457,173.544 154.791,176.877 150.5,179.5C 149.833,179.5 149.5,179.167 149.5,178.5C 151.855,173.129 154.188,167.795 156.5,162.5 Z"/></g>
<g><path style="opacity:0.341" fill="#341723" d="M 149.5,178.5 C 149.5,179.167 149.833,179.5 150.5,179.5C 149.822,182.401 148.488,182.901 146.5,181C 147.373,179.955 148.373,179.122 149.5,178.5 Z"/></g>
<g><path style="opacity:1" fill="#ab2847" d="M 125.5,175.5 C 124.043,177.628 123.043,179.962 122.5,182.5C 126.913,181.869 131.246,180.869 135.5,179.5C 131.959,182.309 127.959,184.476 123.5,186C 120.883,186.822 118.216,187.322 115.5,187.5C 113.708,187.634 112.042,187.301 110.5,186.5C 115.757,183.251 120.757,179.585 125.5,175.5 Z"/></g>
<g><path style="opacity:0.196" fill="#462229" d="M 110.5,186.5 C 112.042,187.301 113.708,187.634 115.5,187.5C 113.034,188.634 110.367,188.801 107.5,188C 108.244,186.961 109.244,186.461 110.5,186.5 Z"/></g>
</svg>
