<?xml version="1.0" encoding="UTF-8"?>
<!DOCTYPE svg PUBLIC "-//W3C//DTD SVG 1.1//EN" "http://www.w3.org/Graphics/SVG/1.1/DTD/svg11.dtd">
<svg xmlns="http://www.w3.org/2000/svg" version="1.1" width="225px" height="225px" style="shape-rendering:geometricPrecision; text-rendering:geometricPrecision; image-rendering:optimizeQuality; fill-rule:evenodd; clip-rule:evenodd" xmlns:xlink="http://www.w3.org/1999/xlink">
<g><path style="opacity:0.998" fill="#040404" d="M 101.5,-0.5 C 101.833,-0.5 102.167,-0.5 102.5,-0.5C 102.833,0.833333 103.167,0.833333 103.5,-0.5C 110.167,-0.5 116.833,-0.5 123.5,-0.5C 174.844,7.33413 207.678,36.3341 222,86.5C 222.867,91.9724 223.7,97.3057 224.5,102.5C 224.5,106.833 224.5,111.167 224.5,115.5C 223.167,116.167 223.167,116.833 224.5,117.5C 224.5,118.5 224.5,119.5 224.5,120.5C 220.912,157.095 203.912,185.762 173.5,206.5C 142.752,160.672 112.252,114.672 82,68.5C 78.5616,63.9191 74.0616,62.4191 68.5,64C 67.2986,64.9025 66.4652,66.0692 66,67.5C 65.3333,101.167 65.3333,134.833 66,168.5C 67.1351,171.859 69.4684,173.192 73,172.5C 76.1682,172.894 78.6682,171.894 80.5,169.5C 81.1667,144.833 81.8333,120.167 82.5,95.5C 109.108,134.459 135.775,173.459 162.5,212.5C 149.574,219.368 135.907,223.368 121.5,224.5C 114.5,224.5 107.5,224.5 100.5,224.5C 43.1334,214.467 9.4667,180.8 -0.5,123.5C -0.5,115.833 -0.5,108.167 -0.5,100.5C 9.58271,42.7509 43.5827,9.08423 101.5,-0.5 Z M 158.5,64.5 C 158.831,94.338 158.498,124.005 157.5,153.5C 153.273,146.055 148.773,138.722 144,131.5C 143.333,108.833 143.333,86.1667 144,63.5C 149.212,59.4174 154.045,59.7508 158.5,64.5 Z"/></g>
<g><path style="opacity:0.198" fill="#6f6f6f" d="M 158.5,64.5 C 159.83,94.336 159.83,124.336 158.5,154.5C 157.893,154.376 157.56,154.043 157.5,153.5C 158.498,124.005 158.831,94.338 158.5,64.5 Z"/></g>
<g><path style="opacity:0.186" fill="#9c9c9c" d="M 82.5,95.5 C 81.8333,120.167 81.1667,144.833 80.5,169.5C 80.1669,144.491 80.5002,119.491 81.5,94.5C 82.1067,94.6236 82.44,94.9569 82.5,95.5 Z"/></g>
</svg>
