<?xml version="1.0" encoding="UTF-8"?>
<!DOCTYPE svg PUBLIC "-//W3C//DTD SVG 1.1//EN" "http://www.w3.org/Graphics/SVG/1.1/DTD/svg11.dtd">
<svg xmlns="http://www.w3.org/2000/svg" version="1.1" width="260px" height="260px" style="shape-rendering:geometricPrecision; text-rendering:geometricPrecision; image-rendering:optimizeQuality; fill-rule:evenodd; clip-rule:evenodd" xmlns:xlink="http://www.w3.org/1999/xlink">
<g><path style="opacity:0.016" fill="#e0e0e0" d="M 165.5,26.5 C 164.5,26.5 163.5,26.5 162.5,26.5C 162.167,26.5 161.833,26.5 161.5,26.5C 160.263,25.2566 160.596,24.2566 162.5,23.5C 164.213,23.8793 165.213,24.8793 165.5,26.5 Z"/></g>
<g><path style="opacity:1" fill="#383838" d="M 162.5,26.5 C 163.5,26.5 164.5,26.5 165.5,26.5C 166.492,26.3284 167.158,26.6618 167.5,27.5C 168.659,29.2503 170.326,30.2503 172.5,30.5C 172.987,31.4734 173.487,32.4734 174,33.5C 174.5,50.8301 174.667,68.1635 174.5,85.5C 171.506,87.9998 168.173,89.9998 164.5,91.5C 162.973,91.427 161.973,92.0937 161.5,93.5C 158.356,96.7979 155.023,97.1312 151.5,94.5C 151.027,93.0937 150.027,92.427 148.5,92.5C 148.027,91.0937 147.027,90.427 145.5,90.5C 143.847,90.3404 142.514,89.6737 141.5,88.5C 141.027,87.0937 140.027,86.427 138.5,86.5C 137.508,86.6716 136.842,86.3382 136.5,85.5C 136.5,77.5 136.5,69.5 136.5,61.5C 138.674,61.2503 140.341,60.2503 141.5,58.5C 141.833,58.5 142.167,58.5 142.5,58.5C 144.027,58.573 145.027,57.9063 145.5,56.5C 147.663,54.9172 149.996,53.5839 152.5,52.5C 154.117,51.962 155.784,51.6287 157.5,51.5C 158.492,51.3284 159.158,51.6618 159.5,52.5C 159.821,54.0481 160.821,54.7148 162.5,54.5C 162.5,45.1667 162.5,35.8333 162.5,26.5 Z M 158.5,68.5 C 159.777,70.1484 160.777,71.9817 161.5,74C 161.658,75.5869 160.991,77.0869 159.5,78.5C 157.565,79.1495 155.565,79.4828 153.5,79.5C 152.564,78.0256 151.23,77.0256 149.5,76.5C 149.93,74.62 149.93,72.62 149.5,70.5C 152.277,68.2475 155.277,67.5808 158.5,68.5 Z"/></g>
<g><path style="opacity:0.165" fill="#c8c8c8" d="M 167.5,27.5 C 169.674,27.7497 171.341,28.7497 172.5,30.5C 170.326,30.2503 168.659,29.2503 167.5,27.5 Z"/></g>
<g><path style="opacity:0.032" fill="#eaeaea" d="M 174.5,31.5 C 175.748,32.3339 176.415,33.6672 176.5,35.5C 176.489,37.0451 176.156,38.3784 175.5,39.5C 175.721,36.7212 175.388,34.0545 174.5,31.5 Z"/></g>
<g><path style="opacity:0.449" fill="#a6a6a6" d="M 161.5,26.5 C 161.833,26.5 162.167,26.5 162.5,26.5C 162.5,35.8333 162.5,45.1667 162.5,54.5C 160.821,54.7148 159.821,54.0481 159.5,52.5C 160.117,52.6107 160.617,52.944 161,53.5C 160.869,44.4255 161.036,35.4255 161.5,26.5 Z"/></g>
<g><path style="opacity:0.592" fill="#d5e4bb" d="M 106.5,51.5 C 104.833,51.5 103.167,51.5 101.5,51.5C 101.369,50.7611 101.536,50.0944 102,49.5C 102.741,50.6405 103.575,50.6405 104.5,49.5C 105.522,49.8555 106.189,50.5222 106.5,51.5 Z"/></g>
<g><path style="opacity:0.094" fill="#d1d1d1" d="M 157.5,51.5 C 155.784,51.6287 154.117,51.962 152.5,52.5C 153.879,50.4031 155.545,50.0698 157.5,51.5 Z"/></g>
<g><path style="opacity:0.999" fill="#3a3a3a" d="M 54.5,51.5 C 55.305,53.2128 56.305,54.8794 57.5,56.5C 58.7362,55.7542 60.0695,55.4208 61.5,55.5C 62.4916,55.3284 63.1583,55.6618 63.5,56.5C 65.1184,58.316 67.1184,59.6493 69.5,60.5C 69.8333,60.5 70.1667,60.5 70.5,60.5C 71.4504,70.4478 71.7838,80.4478 71.5,90.5C 70.5,90.5 69.5,90.5 68.5,90.5C 66.1815,90.0075 64.1815,89.0075 62.5,87.5C 61.7095,86.5987 60.7095,85.9321 59.5,85.5C 58.8333,85.5 58.5,85.1667 58.5,84.5C 58.8205,79.3054 58.4872,74.3054 57.5,69.5C 56.5084,69.6716 55.8417,69.3382 55.5,68.5C 54.8658,67.0532 53.6991,66.3866 52,66.5C 50.9302,66.528 50.0968,66.8614 49.5,67.5C 47.9731,67.427 46.9731,68.0937 46.5,69.5C 46.6659,74.5111 46.4993,79.5111 46,84.5C 45.6174,85.056 45.1174,85.3893 44.5,85.5C 42.326,85.7497 40.6594,86.7497 39.5,88.5C 38.4863,89.6737 37.153,90.3404 35.5,90.5C 34.5,90.5 33.5,90.5 32.5,90.5C 32.5,80.8333 32.5,71.1667 32.5,61.5C 32.8417,60.6618 33.5084,60.3284 34.5,60.5C 35.7095,60.0679 36.7095,59.4013 37.5,58.5C 39.8477,58.4077 41.5144,57.4077 42.5,55.5C 42.8417,54.6618 43.5084,54.3284 44.5,54.5C 47.8705,53.4243 51.2039,52.4243 54.5,51.5 Z"/></g>
<g><path style="opacity:0.999" fill="#3b3b3b" d="M 218.5,56.5 C 218.973,57.9063 219.973,58.573 221.5,58.5C 222.492,58.3284 223.158,58.6618 223.5,59.5C 223.75,60.9221 224.583,61.9221 226,62.5C 226.497,64.8098 226.663,67.1432 226.5,69.5C 224.025,72.2411 221.025,74.2411 217.5,75.5C 216.167,75.5 214.833,75.5 213.5,75.5C 214.649,70.1448 212.483,67.1448 207,66.5C 204.88,67.1402 203.046,68.1402 201.5,69.5C 200.844,70.6216 200.511,71.9549 200.5,73.5C 200.585,75.3328 201.252,76.6661 202.5,77.5C 202.842,78.3382 203.508,78.6716 204.5,78.5C 204.842,79.3382 205.508,79.6716 206.5,79.5C 207.446,82.3126 209.446,83.646 212.5,83.5C 215.686,84.3563 218.353,86.023 220.5,88.5C 218.636,90.6002 216.303,91.9335 213.5,92.5C 211.973,92.427 210.973,93.0937 210.5,94.5C 208.5,94.5 206.5,94.5 204.5,94.5C 203.508,94.6716 202.842,94.3382 202.5,93.5C 202.027,92.0937 201.027,91.427 199.5,91.5C 197.847,91.3404 196.514,90.6737 195.5,89.5C 195.027,88.0937 194.027,87.427 192.5,87.5C 191.508,87.6716 190.842,87.3382 190.5,86.5C 190.217,85.7109 189.717,85.0442 189,84.5C 188.5,76.8406 188.334,69.1739 188.5,61.5C 188.842,60.6618 189.508,60.3284 190.5,60.5C 192.882,59.6493 194.882,58.316 196.5,56.5C 198.153,56.3404 199.486,55.6737 200.5,54.5C 202.318,52.4197 204.651,51.0864 207.5,50.5C 211.317,52.2414 214.983,54.2414 218.5,56.5 Z"/></g>
<g><path style="opacity:0.898" fill="#8d8d8d" d="M 54.5,51.5 C 51.2039,52.4243 47.8705,53.4243 44.5,54.5C 46.7625,53.1041 48.9291,51.4375 51,49.5C 52.3024,50.0848 53.469,50.7515 54.5,51.5 Z"/></g>
<g><path style="opacity:0.643" fill="#c9e09c" d="M 101.5,51.5 C 101.027,52.9063 100.027,53.573 98.5,53.5C 98.9731,52.0937 99.9731,51.427 101.5,51.5 Z"/></g>
<g><path style="opacity:1" fill="#82be0f" d="M 101.5,51.5 C 103.167,51.5 104.833,51.5 106.5,51.5C 108.062,51.7329 109.395,52.3995 110.5,53.5C 110.973,54.9063 111.973,55.573 113.5,55.5C 113.973,56.9063 114.973,57.573 116.5,57.5C 118.062,57.7329 119.395,58.3995 120.5,59.5C 121.167,60.1667 121.833,60.8333 122.5,61.5C 122.5,69.5 122.5,77.5 122.5,85.5C 119.992,87.9236 116.992,89.5903 113.5,90.5C 112.29,90.9321 111.29,91.5987 110.5,92.5C 108.145,93.0944 105.978,94.0944 104,95.5C 102.594,94.5862 101.094,93.9195 99.5,93.5C 97.847,93.3404 96.5137,92.6737 95.5,91.5C 95.0269,90.0937 94.0269,89.427 92.5,89.5C 90.1815,89.0075 88.1815,88.0075 86.5,86.5C 86.2172,85.7109 85.7172,85.0442 85,84.5C 84.3333,77.1667 84.3333,69.8333 85,62.5C 86.045,61.6266 86.8783,60.6266 87.5,59.5C 88.5137,58.3263 89.847,57.6596 91.5,57.5C 93.0269,57.573 94.0269,56.9063 94.5,55.5C 95.6049,54.3995 96.9382,53.7329 98.5,53.5C 100.027,53.573 101.027,52.9063 101.5,51.5 Z"/></g>
<g><path style="opacity:1" fill="#6b6b6b" d="M 54.5,51.5 C 57.0316,52.5957 59.3649,53.9291 61.5,55.5C 60.0695,55.4208 58.7362,55.7542 57.5,56.5C 56.305,54.8794 55.305,53.2128 54.5,51.5 Z"/></g>
<g><path style="opacity:0.071" fill="#e3e7da" d="M 110.5,53.5 C 112.027,53.427 113.027,54.0937 113.5,55.5C 111.973,55.573 110.973,54.9063 110.5,53.5 Z"/></g>
<g><path style="opacity:0.071" fill="#d0d0d0" d="M 200.5,54.5 C 199.486,55.6737 198.153,56.3404 196.5,56.5C 197.345,54.2381 198.678,53.5714 200.5,54.5 Z"/></g>
<g><path style="opacity:0.008" fill="#dee8ce" d="M 113.5,55.5 C 115.027,55.427 116.027,56.0937 116.5,57.5C 114.973,57.573 113.973,56.9063 113.5,55.5 Z"/></g>
<g><path style="opacity:0.569" fill="#d1e8a5" d="M 94.5,55.5 C 94.0269,56.9063 93.0269,57.573 91.5,57.5C 91.9731,56.0937 92.9731,55.427 94.5,55.5 Z"/></g>
<g><path style="opacity:0.557" fill="#9d9d9d" d="M 42.5,55.5 C 41.5144,57.4077 39.8477,58.4077 37.5,58.5C 38.6594,56.7497 40.326,55.7497 42.5,55.5 Z"/></g>
<g><path style="opacity:0.11" fill="#d1d1d1" d="M 63.5,56.5 C 66.267,56.8702 68.267,58.2036 69.5,60.5C 67.1184,59.6493 65.1184,58.316 63.5,56.5 Z"/></g>
<g><path style="opacity:0.651" fill="#9a9a9a" d="M 145.5,56.5 C 145.027,57.9063 144.027,58.573 142.5,58.5C 142.973,57.0937 143.973,56.427 145.5,56.5 Z"/></g>
<g><path style="opacity:0.133" fill="#cbcbcb" d="M 196.5,56.5 C 194.882,58.316 192.882,59.6493 190.5,60.5C 191.733,58.2036 193.733,56.8702 196.5,56.5 Z"/></g>
<g><path style="opacity:0.071" fill="#d1d1d1" d="M 218.5,56.5 C 220.027,56.427 221.027,57.0937 221.5,58.5C 219.973,58.573 218.973,57.9063 218.5,56.5 Z"/></g>
<g><path style="opacity:0.09" fill="#d4d4d4" d="M 37.5,58.5 C 36.7095,59.4013 35.7095,60.0679 34.5,60.5C 34.6322,57.9931 35.6322,57.3264 37.5,58.5 Z"/></g>
<g><path style="opacity:0.004" fill="#e8ede0" d="M 120.5,59.5 C 121.873,59.3433 123.207,59.51 124.5,60C 123.944,60.3826 123.611,60.8826 123.5,61.5C 123.167,61.5 122.833,61.5 122.5,61.5C 121.833,60.8333 121.167,60.1667 120.5,59.5 Z"/></g>
<g><path style="opacity:0.008" fill="#dddddd" d="M 141.5,58.5 C 140.341,60.2503 138.674,61.2503 136.5,61.5C 137.486,59.5923 139.152,58.5923 141.5,58.5 Z"/></g>
<g><path style="opacity:0.726" fill="#898989" d="M 172.5,30.5 C 173.492,30.3284 174.158,30.6618 174.5,31.5C 175.388,34.0545 175.721,36.7212 175.5,39.5C 175.349,49.4286 175.682,59.4286 176.5,69.5C 176.632,75.0767 175.965,80.41 174.5,85.5C 174.667,68.1635 174.5,50.8301 174,33.5C 173.487,32.4734 172.987,31.4734 172.5,30.5 Z"/></g>
<g><path style="opacity:0.456" fill="#9d9d9d" d="M 188.5,61.5 C 188.334,69.1739 188.5,76.8406 189,84.5C 189.717,85.0442 190.217,85.7109 190.5,86.5C 189.504,86.5858 188.671,86.2524 188,85.5C 187.691,84.2341 187.191,83.0674 186.5,82C 187.072,75.3399 187.739,68.5065 188.5,61.5 Z"/></g>
<g><path style="opacity:0.328" fill="#d1e4ae" d="M 87.5,59.5 C 86.8783,60.6266 86.045,61.6266 85,62.5C 84.3333,69.8333 84.3333,77.1667 85,84.5C 85.7172,85.0442 86.2172,85.7109 86.5,86.5C 85.5041,86.5858 84.6708,86.2524 84,85.5C 83.3333,77.5 83.3333,69.5 84,61.5C 84.8159,60.1772 85.9826,59.5106 87.5,59.5 Z"/></g>
<g><path style="opacity:0.813" fill="#c0da83" d="M 122.5,61.5 C 122.833,61.5 123.167,61.5 123.5,61.5C 124.32,69.2052 124.653,76.5385 124.5,83.5C 124.145,84.5223 123.478,85.189 122.5,85.5C 122.5,77.5 122.5,69.5 122.5,61.5 Z"/></g>
<g><path style="opacity:0.272" fill="#c4c4c4" d="M 136.5,61.5 C 136.5,69.5 136.5,77.5 136.5,85.5C 135.683,83.1691 135.016,80.6691 134.5,78C 135.102,72.3547 135.769,66.8547 136.5,61.5 Z"/></g>
<g><path style="opacity:0.243" fill="#b6b6b6" d="M 223.5,59.5 C 224.721,60.0283 225.887,60.695 227,61.5C 227.801,64.367 227.634,67.0336 226.5,69.5C 226.663,67.1432 226.497,64.8098 226,62.5C 224.583,61.9221 223.75,60.9221 223.5,59.5 Z"/></g>
<g><path style="opacity:0.102" fill="#cccccc" d="M 49.5,67.5 C 50.0968,66.8614 50.9302,66.528 52,66.5C 53.6991,66.3866 54.8658,67.0532 55.5,68.5C 53.5648,67.8505 51.5648,67.5172 49.5,67.5 Z"/></g>
<g><path style="opacity:1" fill="#dbded7" d="M 217.5,75.5 C 216.828,76.2674 215.995,76.9341 215,77.5C 213.989,76.6634 212.822,76.33 211.5,76.5C 212.427,70.4789 210.094,68.4789 204.5,70.5C 203.548,72.0453 203.215,73.712 203.5,75.5C 202.833,75.5 202.167,75.5 201.5,75.5C 201.5,73.5 201.5,71.5 201.5,69.5C 203.046,68.1402 204.88,67.1402 207,66.5C 212.483,67.1448 214.649,70.1448 213.5,75.5C 214.833,75.5 216.167,75.5 217.5,75.5 Z"/></g>
<g><path style="opacity:0.039" fill="#c9c9c9" d="M 49.5,67.5 C 49.0269,68.9063 48.0269,69.573 46.5,69.5C 46.9731,68.0937 47.9731,67.427 49.5,67.5 Z"/></g>
<g><path style="opacity:1" fill="#88bf1e" d="M 211.5,76.5 C 211.167,76.5 210.833,76.5 210.5,76.5C 208.883,77.038 207.216,77.3713 205.5,77.5C 205.158,76.6618 204.492,76.3284 203.5,76.5C 203.5,76.1667 203.5,75.8333 203.5,75.5C 203.215,73.712 203.548,72.0453 204.5,70.5C 210.094,68.4789 212.427,70.4789 211.5,76.5 Z"/></g>
<g><path style="opacity:0.284" fill="#c9c9c9" d="M 57.5,69.5 C 58.4872,74.3054 58.8205,79.3054 58.5,84.5C 56.4857,79.6797 56.1524,74.6797 57.5,69.5 Z"/></g>
<g><path style="opacity:0.688" fill="#838383" d="M 149.5,70.5 C 149.93,72.62 149.93,74.62 149.5,76.5C 148.167,74.5 148.167,72.5 149.5,70.5 Z"/></g>
<g><path style="opacity:0.481" fill="#ababab" d="M 158.5,68.5 C 161.359,68.8007 162.693,70.4673 162.5,73.5C 162.511,75.9168 161.511,77.5834 159.5,78.5C 160.991,77.0869 161.658,75.5869 161.5,74C 160.777,71.9817 159.777,70.1484 158.5,68.5 Z"/></g>
<g><path style="opacity:0.553" fill="#939196" d="M 201.5,69.5 C 201.5,71.5 201.5,73.5 201.5,75.5C 201.833,76.1667 202.167,76.8333 202.5,77.5C 201.252,76.6661 200.585,75.3328 200.5,73.5C 200.511,71.9549 200.844,70.6216 201.5,69.5 Z"/></g>
<g><path style="opacity:0.725" fill="#a6a6a6" d="M 149.5,76.5 C 151.23,77.0256 152.564,78.0256 153.5,79.5C 151.368,79.4456 150.035,78.4456 149.5,76.5 Z"/></g>
<g><path style="opacity:0.09" fill="#d4d7cf" d="M 203.5,76.5 C 204.492,76.3284 205.158,76.6618 205.5,77.5C 204.833,77.5 204.5,77.8333 204.5,78.5C 203.508,78.6716 202.842,78.3382 202.5,77.5C 203.167,77.5 203.5,77.1667 203.5,76.5 Z"/></g>
<g><path style="opacity:0.004" fill="#e0e6db" d="M 210.5,76.5 C 210.013,77.4734 209.513,78.4734 209,79.5C 208.023,78.2264 207.189,78.2264 206.5,79.5C 205.508,79.6716 204.842,79.3382 204.5,78.5C 205.167,78.5 205.5,78.1667 205.5,77.5C 207.216,77.3713 208.883,77.038 210.5,76.5 Z"/></g>
<g><path style="opacity:0.978" fill="#7f7f7f" d="M 206.5,79.5 C 208.882,80.3507 210.882,81.684 212.5,83.5C 209.446,83.646 207.446,82.3126 206.5,79.5 Z"/></g>
<g><path style="opacity:0.157" fill="#d1d1d1" d="M 44.5,85.5 C 43.3406,87.2503 41.674,88.2503 39.5,88.5C 40.6594,86.7497 42.326,85.7497 44.5,85.5 Z"/></g>
<g><path style="opacity:0.014" fill="#e2e2e2" d="M 59.5,85.5 C 60.7095,85.9321 61.7095,86.5987 62.5,87.5C 60.8212,87.7148 59.8212,87.0481 59.5,85.5 Z"/></g>
<g><path style="opacity:0.318" fill="#b5b5b5" d="M 138.5,86.5 C 140.027,86.427 141.027,87.0937 141.5,88.5C 139.973,88.573 138.973,87.9063 138.5,86.5 Z"/></g>
<g><path style="opacity:0.145" fill="#dbdbdb" d="M 32.5,61.5 C 32.5,71.1667 32.5,80.8333 32.5,90.5C 33.5,90.5 34.5,90.5 35.5,90.5C 33.485,91.8525 31.8183,91.3525 30.5,89C 30.8136,79.8769 31.4802,70.7103 32.5,61.5 Z"/></g>
<g><path style="opacity:0.129" fill="#d7d7d7" d="M 70.5,60.5 C 71.6266,61.1217 72.6266,61.955 73.5,63C 72.6803,72.4226 72.1803,81.9226 72,91.5C 70.4212,92.7996 69.2545,92.4663 68.5,90.5C 69.5,90.5 70.5,90.5 71.5,90.5C 71.7838,80.4478 71.4504,70.4478 70.5,60.5 Z"/></g>
<g><path style="opacity:0.314" fill="#b1b1b1" d="M 192.5,87.5 C 194.027,87.427 195.027,88.0937 195.5,89.5C 193.973,89.573 192.973,88.9063 192.5,87.5 Z"/></g>
<g><path style="opacity:0.298" fill="#d9eab4" d="M 92.5,89.5 C 94.0269,89.427 95.0269,90.0937 95.5,91.5C 93.9731,91.573 92.9731,90.9063 92.5,89.5 Z"/></g>
<g><path style="opacity:0.012" fill="#e2ead5" d="M 113.5,90.5 C 113.179,92.0481 112.179,92.7148 110.5,92.5C 111.29,91.5987 112.29,90.9321 113.5,90.5 Z"/></g>
<g><path style="opacity:0.314" fill="#afafaf" d="M 145.5,90.5 C 147.027,90.427 148.027,91.0937 148.5,92.5C 146.973,92.573 145.973,91.9063 145.5,90.5 Z"/></g>
<g><path style="opacity:0.004" fill="#e2e2e2" d="M 164.5,91.5 C 164.027,92.9063 163.027,93.573 161.5,93.5C 161.973,92.0937 162.973,91.427 164.5,91.5 Z"/></g>
<g><path style="opacity:0.243" fill="#c1c1c1" d="M 199.5,91.5 C 201.027,91.427 202.027,92.0937 202.5,93.5C 200.973,93.573 199.973,92.9063 199.5,91.5 Z"/></g>
<g><path style="opacity:0.141" fill="#cbcbcb" d="M 148.5,92.5 C 150.027,92.427 151.027,93.0937 151.5,94.5C 149.973,94.573 148.973,93.9063 148.5,92.5 Z"/></g>
<g><path style="opacity:0.004" fill="#d7d7d7" d="M 213.5,92.5 C 213.027,93.9063 212.027,94.573 210.5,94.5C 210.973,93.0937 211.973,92.427 213.5,92.5 Z"/></g>
<g><path style="opacity:0.722" fill="#a6a6a7" d="M 204.5,94.5 C 206.5,94.5 208.5,94.5 210.5,94.5C 208.5,97.1667 206.5,97.1667 204.5,94.5 Z"/></g>
<g><path style="opacity:0.055" fill="#dee6cb" d="M 110.5,92.5 C 108.754,94.4594 106.587,95.7927 104,96.5C 101.817,96.4779 100.317,95.4779 99.5,93.5C 101.094,93.9195 102.594,94.5862 104,95.5C 105.978,94.0944 108.145,93.0944 110.5,92.5 Z"/></g>
<g><path style="opacity:0.506" fill="#c5e08b" d="M 136.5,97.5 C 132.178,96.2741 127.845,96.2741 123.5,97.5C 125.29,96.0027 127.456,95.336 130,95.5C 132.544,95.336 134.71,96.0027 136.5,97.5 Z"/></g>
<g><path style="opacity:0.62" fill="#cfe39d" d="M 116.5,101.5 C 116.027,102.906 115.027,103.573 113.5,103.5C 113.973,102.094 114.973,101.427 116.5,101.5 Z"/></g>
<g><path style="opacity:0.169" fill="#e5e9d9" d="M 219.5,103.5 C 217.5,103.5 215.5,103.5 213.5,103.5C 215.705,101.084 217.705,101.084 219.5,103.5 Z"/></g>
<g><path style="opacity:0.718" fill="#bbda79" d="M 113.5,103.5 C 112.514,105.408 110.848,106.408 108.5,106.5C 109.659,104.75 111.326,103.75 113.5,103.5 Z"/></g>
<g><path style="opacity:0.016" fill="#edf7d7" d="M 150.5,105.5 C 152.179,105.285 153.179,105.952 153.5,107.5C 152.29,107.068 151.29,106.401 150.5,105.5 Z"/></g>
<g><path style="opacity:0.463" fill="#cbdeab" d="M 211.5,104.5 C 210.833,105.833 209.833,106.833 208.5,107.5C 208.5,105.5 209.5,104.5 211.5,104.5 Z"/></g>
<g><path style="opacity:1" fill="#a4cd52" d="M 213.5,103.5 C 215.5,103.5 217.5,103.5 219.5,103.5C 227.383,106.255 229.383,111.255 225.5,118.5C 224.094,118.973 223.427,119.973 223.5,121.5C 223.158,122.338 222.492,122.672 221.5,122.5C 218.5,122.5 215.5,122.5 212.5,122.5C 210.251,121.92 208.585,120.587 207.5,118.5C 207.371,116.784 207.038,115.117 206.5,113.5C 206.5,112.833 206.5,112.167 206.5,111.5C 207.404,110.791 207.737,109.791 207.5,108.5C 207.5,107.833 207.833,107.5 208.5,107.5C 209.833,106.833 210.833,105.833 211.5,104.5C 211.842,103.662 212.508,103.328 213.5,103.5 Z M 221.5,108.5 C 222.167,108.833 222.833,109.167 223.5,109.5C 223.586,110.496 223.252,111.329 222.5,112C 223.094,112.464 223.761,112.631 224.5,112.5C 224.672,113.492 224.338,114.158 223.5,114.5C 223.167,115.833 222.833,117.167 222.5,118.5C 221.833,117.167 221.167,115.833 220.5,114.5C 221.15,112.565 221.483,110.565 221.5,108.5 Z M 210.5,109.5 C 212.256,110.552 212.923,112.219 212.5,114.5C 211.624,114.631 210.957,114.298 210.5,113.5C 211.807,112.135 211.807,110.802 210.5,109.5 Z"/></g>
<g><path style="opacity:0.094" fill="#e4ead9" d="M 220.5,106.5 C 219.833,106.5 219.5,106.833 219.5,107.5C 217.265,107.205 215.265,107.539 213.5,108.5C 213.167,108.5 212.833,108.5 212.5,108.5C 212.5,107.833 212.167,107.5 211.5,107.5C 212.946,106.06 214.779,105.393 217,105.5C 218.385,105.514 219.551,105.848 220.5,106.5 Z"/></g>
<g><path style="opacity:0.357" fill="#e4efca" d="M 106.5,107.5 C 105.486,108.674 104.153,109.34 102.5,109.5C 103.287,107.896 104.62,107.229 106.5,107.5 Z"/></g>
<g><path style="opacity:0.557" fill="#d2eaa9" d="M 102.5,109.5 C 102.027,110.906 101.027,111.573 99.5,111.5C 99.9731,110.094 100.973,109.427 102.5,109.5 Z"/></g>
<g><path style="opacity:1" fill="#bfd986" d="M 155.5,108.5 C 157.819,108.992 159.819,109.992 161.5,111.5C 158.68,111.913 156.68,110.913 155.5,108.5 Z"/></g>
<g><path style="opacity:0.055" fill="#e5ead3" d="M 207.5,108.5 C 207.737,109.791 207.404,110.791 206.5,111.5C 205.285,110.221 205.618,109.221 207.5,108.5 Z"/></g>
<g><path style="opacity:0.557" fill="#bdd582" d="M 211.5,107.5 C 212.167,107.5 212.5,107.833 212.5,108.5C 212.833,108.5 213.167,108.5 213.5,108.5C 213.5,111.833 213.5,115.167 213.5,118.5C 213.167,118.5 212.833,118.5 212.5,118.5C 212.5,118.167 212.5,117.833 212.5,117.5C 212.5,116.5 212.5,115.5 212.5,114.5C 212.923,112.219 212.256,110.552 210.5,109.5C 210.328,108.508 210.662,107.842 211.5,107.5 Z"/></g>
<g><path style="opacity:0.004" fill="#f5f9ea" d="M 223.5,109.5 C 224.404,110.209 224.737,111.209 224.5,112.5C 223.761,112.631 223.094,112.464 222.5,112C 223.252,111.329 223.586,110.496 223.5,109.5 Z"/></g>
<g><path style="opacity:0.035" fill="#e4ead5" d="M 210.5,109.5 C 211.807,110.802 211.807,112.135 210.5,113.5C 210.957,114.298 211.624,114.631 212.5,114.5C 212.5,115.5 212.5,116.5 212.5,117.5C 212.167,117.5 211.833,117.5 211.5,117.5C 211.167,116.167 210.833,116.167 210.5,117.5C 207.941,114.757 207.941,112.09 210.5,109.5 Z"/></g>
<g><path style="opacity:1" fill="#a8cd5a" d="M 99.5,111.5 C 98.1906,114.451 95.8573,115.784 92.5,115.5C 94.3356,113.412 96.6689,112.079 99.5,111.5 Z"/></g>
<g><path style="opacity:1" fill="#8fc32b" d="M 219.5,107.5 C 219.833,107.5 220.167,107.5 220.5,107.5C 220.5,108.167 220.833,108.5 221.5,108.5C 221.483,110.565 221.15,112.565 220.5,114.5C 219.833,119.833 219.167,119.833 218.5,114.5C 217.5,114.5 216.5,114.5 215.5,114.5C 215.843,116.483 215.176,117.817 213.5,118.5C 213.5,115.167 213.5,111.833 213.5,108.5C 215.265,107.539 217.265,107.205 219.5,107.5 Z"/></g>
<g><path style="opacity:0.2" fill="#d7e5b9" d="M 217.5,110.5 C 218.043,110.56 218.376,110.893 218.5,111.5C 217.675,112.386 216.675,112.719 215.5,112.5C 215.281,111.325 215.614,110.325 216.5,109.5C 217.107,109.624 217.44,109.957 217.5,110.5 Z"/></g>
<g><path style="opacity:1" fill="#8ac125" d="M 136.5,97.5 C 141.5,99.6643 146.167,102.331 150.5,105.5C 151.29,106.401 152.29,107.068 153.5,107.5C 154.492,107.328 155.158,107.662 155.5,108.5C 156.68,110.913 158.68,111.913 161.5,111.5C 163.109,114.114 165.109,116.447 167.5,118.5C 168.736,117.754 170.07,117.421 171.5,117.5C 173.153,117.66 174.486,118.326 175.5,119.5C 175.821,121.048 176.821,121.715 178.5,121.5C 181.331,122.079 183.664,123.412 185.5,125.5C 185.5,125.833 185.5,126.167 185.5,126.5C 184.167,126.5 182.833,126.5 181.5,126.5C 181.5,125.5 181.5,124.5 181.5,123.5C 179.5,124.167 177.5,124.833 175.5,125.5C 175.64,127.124 174.973,128.29 173.5,129C 174.416,129.278 175.082,129.778 175.5,130.5C 174.833,130.5 174.167,130.5 173.5,130.5C 171.847,130.34 170.514,129.674 169.5,128.5C 169.027,127.094 168.027,126.427 166.5,126.5C 163.331,125.083 160.331,123.417 157.5,121.5C 157.027,120.094 156.027,119.427 154.5,119.5C 154.027,118.094 153.027,117.427 151.5,117.5C 148.515,116.674 145.849,115.341 143.5,113.5C 143.027,112.094 142.027,111.427 140.5,111.5C 138.847,111.34 137.514,110.674 136.5,109.5C 135.341,107.75 133.674,106.75 131.5,106.5C 130.5,106.5 129.5,106.5 128.5,106.5C 126.326,106.75 124.659,107.75 123.5,109.5C 121.326,109.75 119.659,110.75 118.5,112.5C 117.486,113.674 116.153,114.34 114.5,114.5C 112.973,114.427 111.973,115.094 111.5,116.5C 110.486,117.674 109.153,118.34 107.5,118.5C 105.326,118.75 103.659,119.75 102.5,121.5C 100.847,121.66 99.5137,122.326 98.5,123.5C 93.7844,126.863 88.7844,129.863 83.5,132.5C 83.1667,132.5 82.8333,132.5 82.5,132.5C 82.0825,131.778 81.4158,131.278 80.5,131C 82.2556,130.798 83.9223,130.298 85.5,129.5C 85.2907,128.914 84.9574,128.414 84.5,128C 86.9418,127.06 89.2751,125.894 91.5,124.5C 90.5,120.833 88.8333,120.5 86.5,123.5C 85.8182,122.757 85.1515,122.091 84.5,121.5C 85.8333,120.167 87.1667,118.833 88.5,117.5C 89.5137,116.326 90.847,115.66 92.5,115.5C 95.8573,115.784 98.1906,114.451 99.5,111.5C 101.027,111.573 102.027,110.906 102.5,109.5C 104.153,109.34 105.486,108.674 106.5,107.5C 106.842,106.662 107.508,106.328 108.5,106.5C 110.848,106.408 112.514,105.408 113.5,103.5C 115.027,103.573 116.027,102.906 116.5,101.5C 118.663,99.9172 120.996,98.5839 123.5,97.5C 127.845,96.2741 132.178,96.2741 136.5,97.5 Z"/></g>
<g><path style="opacity:0.192" fill="#e5f4c8" d="M 140.5,111.5 C 142.027,111.427 143.027,112.094 143.5,113.5C 141.973,113.573 140.973,112.906 140.5,111.5 Z"/></g>
<g><path style="opacity:0.004" fill="#e3edd7" d="M 123.5,109.5 C 122.341,111.25 120.674,112.25 118.5,112.5C 119.659,110.75 121.326,109.75 123.5,109.5 Z"/></g>
<g><path style="opacity:0.22" fill="#d8e6c5" d="M 131.5,106.5 C 133.674,106.75 135.341,107.75 136.5,109.5C 134.326,109.25 132.659,108.25 131.5,106.5 Z"/></g>
<g><path style="opacity:0.024" fill="#e0ebd1" d="M 128.5,106.5 C 127.341,108.25 125.674,109.25 123.5,109.5C 124.659,107.75 126.326,106.75 128.5,106.5 Z"/></g>
<g><path style="opacity:0.024" fill="#edf9df" d="M 114.5,114.5 C 114.027,115.906 113.027,116.573 111.5,116.5C 111.973,115.094 112.973,114.427 114.5,114.5 Z"/></g>
<g><path style="opacity:1" fill="#aace63" d="M 161.5,111.5 C 165.118,113.137 168.451,115.137 171.5,117.5C 170.07,117.421 168.736,117.754 167.5,118.5C 165.109,116.447 163.109,114.114 161.5,111.5 Z"/></g>
<g><path style="opacity:0.196" fill="#e3ead5" d="M 206.5,113.5 C 207.038,115.117 207.371,116.784 207.5,118.5C 205.655,117.005 205.322,115.338 206.5,113.5 Z"/></g>
<g><path style="opacity:0.176" fill="#d9e7ba" d="M 88.5,117.5 C 87.1667,118.833 85.8333,120.167 84.5,121.5C 83.8333,121.5 83.1667,121.5 82.5,121.5C 83.8021,119.178 85.8021,117.845 88.5,117.5 Z"/></g>
<g><path style="opacity:0.412" fill="#d1e6a0" d="M 151.5,117.5 C 153.027,117.427 154.027,118.094 154.5,119.5C 152.973,119.573 151.973,118.906 151.5,117.5 Z"/></g>
<g><path style="opacity:0.11" fill="#dde8c9" d="M 220.5,114.5 C 221.167,115.833 221.833,117.167 222.5,118.5C 222.027,119.906 221.027,120.573 219.5,120.5C 217.5,119.167 215.5,119.167 213.5,120.5C 211.81,120.144 210.81,119.144 210.5,117.5C 210.833,117.5 211.167,117.5 211.5,117.5C 211.5,118.167 211.833,118.5 212.5,118.5C 212.833,118.5 213.167,118.5 213.5,118.5C 215.176,117.817 215.843,116.483 215.5,114.5C 216.5,114.5 217.5,114.5 218.5,114.5C 219.167,119.833 219.833,119.833 220.5,114.5 Z"/></g>
<g><path style="opacity:0.275" fill="#dbe6bd" d="M 107.5,118.5 C 106.599,120.727 104.933,121.727 102.5,121.5C 103.659,119.75 105.326,118.75 107.5,118.5 Z"/></g>
<g><path style="opacity:0.302" fill="#d1e4b6" d="M 154.5,119.5 C 156.027,119.427 157.027,120.094 157.5,121.5C 155.973,121.573 154.973,120.906 154.5,119.5 Z"/></g>
<g><path style="opacity:0.804" fill="#d1e49f" d="M 175.5,119.5 C 176.71,119.932 177.71,120.599 178.5,121.5C 176.821,121.715 175.821,121.048 175.5,119.5 Z"/></g>
<g><path style="opacity:0.027" fill="#e1ecc9" d="M 225.5,118.5 C 225.715,120.179 225.048,121.179 223.5,121.5C 223.427,119.973 224.094,118.973 225.5,118.5 Z"/></g>
<g><path style="opacity:0.145" fill="#dce8c5" d="M 102.5,121.5 C 101.713,123.104 100.38,123.771 98.5,123.5C 99.5137,122.326 100.847,121.66 102.5,121.5 Z"/></g>
<g><path style="opacity:0.825" fill="#d2e4a3" d="M 212.5,122.5 C 215.5,122.5 218.5,122.5 221.5,122.5C 221.631,123.376 221.298,124.043 220.5,124.5C 218.045,124.257 215.545,124.257 213,124.5C 212.536,123.906 212.369,123.239 212.5,122.5 Z"/></g>
<g><path style="opacity:0.365" fill="#cfe2b4" d="M 79.5,122.5 C 78.7377,124.262 77.4044,125.262 75.5,125.5C 76.2623,123.738 77.5956,122.738 79.5,122.5 Z"/></g>
<g><path style="opacity:0.11" fill="#dbe6c9" d="M 185.5,126.5 C 185.5,126.167 185.5,125.833 185.5,125.5C 187.027,125.427 188.027,126.094 188.5,127.5C 187.391,127.443 186.391,127.11 185.5,126.5 Z"/></g>
<g><path style="opacity:0.204" fill="#e7f2cd" d="M 166.5,126.5 C 168.027,126.427 169.027,127.094 169.5,128.5C 167.973,128.573 166.973,127.906 166.5,126.5 Z"/></g>
<g><path style="opacity:1" fill="#81bd04" d="M 185.5,126.5 C 186.391,127.11 187.391,127.443 188.5,127.5C 188.427,129.027 189.094,130.027 190.5,130.5C 191.817,152.961 191.817,175.294 190.5,197.5C 189.493,197.452 189.16,198.452 189.5,200.5C 188.5,200.5 187.5,200.5 186.5,200.5C 186.5,201.833 186.5,203.167 186.5,204.5C 185.391,204.557 184.391,204.89 183.5,205.5C 183.265,204.903 182.765,204.57 182,204.5C 179.744,206.085 177.244,206.752 174.5,206.5C 174.279,204.336 173.279,202.67 171.5,201.5C 171.5,200.833 171.833,200.5 172.5,200.5C 174.674,200.25 176.341,199.25 177.5,197.5C 177.833,197.5 178.167,197.5 178.5,197.5C 179.5,197.167 180.167,196.5 180.5,195.5C 180.833,195.5 181.167,195.5 181.5,195.5C 182.833,175.5 182.833,155.5 181.5,135.5C 180.738,133.738 179.404,132.738 177.5,132.5C 177.167,132.5 176.833,132.5 176.5,132.5C 176.167,131.833 175.833,131.167 175.5,130.5C 175.082,129.778 174.416,129.278 173.5,129C 174.973,128.29 175.64,127.124 175.5,125.5C 177.5,124.833 179.5,124.167 181.5,123.5C 181.5,124.5 181.5,125.5 181.5,126.5C 182.833,126.5 184.167,126.5 185.5,126.5 Z"/></g>
<g><path style="opacity:0.506" fill="#cde0a9" d="M 73.5,126.5 C 72.5,128.167 71.1667,129.5 69.5,130.5C 69.8333,128.167 71.1667,126.833 73.5,126.5 Z"/></g>
<g><path style="opacity:0.627" fill="#c7df9c" d="M 188.5,127.5 C 189.906,127.973 190.573,128.973 190.5,130.5C 189.094,130.027 188.427,129.027 188.5,127.5 Z"/></g>
<g><path style="opacity:0.208" fill="#e3f2c8" d="M 173.5,130.5 C 174.167,130.5 174.833,130.5 175.5,130.5C 175.833,131.167 176.167,131.833 176.5,132.5C 174.973,132.573 173.973,131.906 173.5,130.5 Z"/></g>
<g><path style="opacity:0.004" fill="#ecf7d8" d="M 82.5,132.5 C 82.8333,132.5 83.1667,132.5 83.5,132.5C 82.713,134.104 81.3797,134.771 79.5,134.5C 80.2905,133.599 81.2905,132.932 82.5,132.5 Z"/></g>
<g><path style="opacity:0.467" fill="#d2e4ac" d="M 177.5,132.5 C 179.404,132.738 180.738,133.738 181.5,135.5C 179.596,135.262 178.262,134.262 177.5,132.5 Z"/></g>
<g><path style="opacity:0.592" fill="#d0e1a5" d="M 151.5,137.5 C 151.5,137.833 151.5,138.167 151.5,138.5C 144.798,138.336 138.131,138.669 131.5,139.5C 134.564,138.009 137.897,137.009 141.5,136.5C 144.81,136.524 148.144,136.858 151.5,137.5 Z"/></g>
<g><path style="opacity:0.267" fill="#d7e6be" d="M 151.5,138.5 C 151.5,138.167 151.5,137.833 151.5,137.5C 156.778,137.642 161.112,139.642 164.5,143.5C 160.519,141.013 156.186,139.347 151.5,138.5 Z"/></g>
<g><path style="opacity:0.31" fill="#d6e7af" d="M 190.5,130.5 C 191.117,130.611 191.617,130.944 192,131.5C 192.667,153.833 192.667,176.167 192,198.5C 191.722,199.416 191.222,200.082 190.5,200.5C 190.5,199.5 190.5,198.5 190.5,197.5C 191.817,175.294 191.817,152.961 190.5,130.5 Z"/></g>
<g><path style="opacity:1" fill="#89c024" d="M 104.5,139.5 C 107.5,139.5 110.5,139.5 113.5,139.5C 113.5,160.167 113.5,180.833 113.5,201.5C 113.269,205.293 111.935,208.626 109.5,211.5C 109.5,212.167 109.167,212.5 108.5,212.5C 106.219,212.077 104.552,212.744 103.5,214.5C 100.5,214.5 97.5,214.5 94.5,214.5C 93.158,213.207 91.4913,212.374 89.5,212C 88.1667,211.333 88.1667,210.667 89.5,210C 88.8333,209.667 88.1667,209.333 87.5,209C 88.938,208.781 90.2713,208.281 91.5,207.5C 90.9747,206.808 90.3081,206.308 89.5,206C 90.5707,205.148 91.5707,204.315 92.5,203.5C 94.7638,204.219 97.0971,204.552 99.5,204.5C 101.973,204.912 103.306,203.912 103.5,201.5C 103.179,180.758 103.512,160.091 104.5,139.5 Z"/></g>
<g><path style="opacity:0.306" fill="#d8e7c1" d="M 130.5,139.5 C 127.872,141.488 125.205,143.488 122.5,145.5C 124.023,142.063 126.689,140.063 130.5,139.5 Z"/></g>
<g><path style="opacity:0.848" fill="#bcd87a" d="M 69.5,130.5 C 69.5,152.833 69.5,175.167 69.5,197.5C 69.1667,197.5 68.8333,197.5 68.5,197.5C 67.3372,176.004 67.1705,154.337 68,132.5C 68.2784,131.584 68.7784,130.918 69.5,130.5 Z"/></g>
<g><path style="opacity:1" fill="#83bd10" d="M 82.5,121.5 C 83.1667,121.5 83.8333,121.5 84.5,121.5C 85.1515,122.091 85.8182,122.757 86.5,123.5C 88.8333,120.5 90.5,120.833 91.5,124.5C 89.2751,125.894 86.9418,127.06 84.5,128C 84.9574,128.414 85.2907,128.914 85.5,129.5C 83.9223,130.298 82.2556,130.798 80.5,131C 81.4158,131.278 82.0825,131.778 82.5,132.5C 81.2905,132.932 80.2905,133.599 79.5,134.5C 78.8826,134.611 78.3826,134.944 78,135.5C 77.1709,155.671 77.3375,175.671 78.5,195.5C 79.5137,196.674 80.847,197.34 82.5,197.5C 86.2009,199.012 89.5342,201.012 92.5,203.5C 91.5707,204.315 90.5707,205.148 89.5,206C 90.3081,206.308 90.9747,206.808 91.5,207.5C 90.2713,208.281 88.938,208.781 87.5,209C 88.1667,209.333 88.8333,209.667 89.5,210C 88.1667,210.667 88.1667,211.333 89.5,212C 91.4913,212.374 93.158,213.207 94.5,214.5C 93.8333,214.5 93.1667,214.5 92.5,214.5C 90.7162,214.107 89.0495,213.441 87.5,212.5C 87.0269,211.094 86.0269,210.427 84.5,210.5C 82.847,210.34 81.5137,209.674 80.5,208.5C 79.656,206.241 77.9893,205.241 75.5,205.5C 74.7377,203.738 73.4044,202.738 71.5,202.5C 70.5592,200.95 69.8925,199.284 69.5,197.5C 69.5,175.167 69.5,152.833 69.5,130.5C 71.1667,129.5 72.5,128.167 73.5,126.5C 73.8417,125.662 74.5084,125.328 75.5,125.5C 77.4044,125.262 78.7377,124.262 79.5,122.5C 80.391,121.89 81.391,121.557 82.5,121.5 Z"/></g>
<g><path style="opacity:0.573" fill="#cde0a8" d="M 164.5,143.5 C 165.906,143.973 166.573,144.973 166.5,146.5C 165.094,146.027 164.427,145.027 164.5,143.5 Z"/></g>
<g><path style="opacity:0.224" fill="#d7e5b9" d="M 166.5,146.5 C 167.906,146.973 168.573,147.973 168.5,149.5C 167.094,149.027 166.427,148.027 166.5,146.5 Z"/></g>
<g><path style="opacity:0.247" fill="#dfe8ce" d="M 122.5,145.5 C 120.784,149.972 120.118,154.638 120.5,159.5C 119.357,156.024 119.19,152.358 120,148.5C 120.377,147.058 121.21,146.058 122.5,145.5 Z"/></g>
<g><path style="opacity:0.118" fill="#dbe7c3" d="M 132.5,150.5 C 131.465,152.205 131.465,153.872 132.5,155.5C 135.148,157.038 137.815,158.372 140.5,159.5C 135.517,160.017 132.184,158.017 130.5,153.5C 130.453,151.962 131.12,150.962 132.5,150.5 Z"/></g>
<g><path style="opacity:0.106" fill="#ddeace" d="M 168.5,150.5 C 170.358,152.774 170.691,155.274 169.5,158C 165.973,158.808 162.64,158.641 159.5,157.5C 162.5,157.5 165.5,157.5 168.5,157.5C 168.5,155.167 168.5,152.833 168.5,150.5 Z"/></g>
<g><path style="opacity:0.494" fill="#cfe3a7" d="M 79.5,134.5 C 79.531,154.817 79.1977,175.15 78.5,195.5C 77.3375,175.671 77.1709,155.671 78,135.5C 78.3826,134.944 78.8826,134.611 79.5,134.5 Z"/></g>
<g><path style="opacity:1" fill="#86bf1b" d="M 151.5,138.5 C 156.186,139.347 160.519,141.013 164.5,143.5C 164.427,145.027 165.094,146.027 166.5,146.5C 166.427,148.027 167.094,149.027 168.5,149.5C 168.5,149.833 168.5,150.167 168.5,150.5C 168.5,152.833 168.5,155.167 168.5,157.5C 165.5,157.5 162.5,157.5 159.5,157.5C 158.463,156.07 157.796,154.403 157.5,152.5C 157.5,150.5 156.5,149.5 154.5,149.5C 149.908,148.402 145.241,147.735 140.5,147.5C 137.772,147.171 135.438,147.837 133.5,149.5C 133.5,150.167 133.167,150.5 132.5,150.5C 131.12,150.962 130.453,151.962 130.5,153.5C 132.184,158.017 135.517,160.017 140.5,159.5C 141.5,159.5 142.5,159.5 143.5,159.5C 148.591,161.129 153.924,162.129 159.5,162.5C 160.791,162.263 161.791,162.596 162.5,163.5C 163.514,164.674 164.847,165.34 166.5,165.5C 167.167,165.5 167.5,165.833 167.5,166.5C 167.738,168.404 168.738,169.738 170.5,170.5C 171.403,173.391 171.736,176.391 171.5,179.5C 170.766,180.708 170.433,182.041 170.5,183.5C 170.573,185.027 169.906,186.027 168.5,186.5C 167.167,187.167 166.167,188.167 165.5,189.5C 163.801,189.34 162.134,189.506 160.5,190C 161.056,190.383 161.389,190.883 161.5,191.5C 158.06,192.511 154.726,193.511 151.5,194.5C 148.133,195.747 144.799,195.747 141.5,194.5C 137.979,193.693 134.312,193.026 130.5,192.5C 129.209,192.737 128.209,192.404 127.5,191.5C 126.738,189.738 125.404,188.738 123.5,188.5C 122.833,188.5 122.5,188.167 122.5,187.5C 121.974,185.77 120.974,184.436 119.5,183.5C 117.687,180.504 117.354,177.504 118.5,174.5C 121.833,174.5 125.167,174.5 128.5,174.5C 129.434,175.568 129.768,176.901 129.5,178.5C 129.427,180.027 130.094,181.027 131.5,181.5C 132.287,183.104 133.62,183.771 135.5,183.5C 138.356,185.006 141.523,185.672 145,185.5C 147.361,185.496 149.527,185.163 151.5,184.5C 151.833,184.5 152.167,184.5 152.5,184.5C 156.002,184.924 158.335,183.59 159.5,180.5C 159.833,179.167 160.167,177.833 160.5,176.5C 160.5,174.5 159.5,173.5 157.5,173.5C 156.391,173.443 155.391,173.11 154.5,172.5C 148.845,170.224 142.845,169.224 136.5,169.5C 135.081,168.549 133.415,168.216 131.5,168.5C 130.209,168.737 129.209,168.404 128.5,167.5C 128.027,166.094 127.027,165.427 125.5,165.5C 125.027,164.094 124.027,163.427 122.5,163.5C 121.326,162.486 120.66,161.153 120.5,159.5C 120.118,154.638 120.784,149.972 122.5,145.5C 125.205,143.488 127.872,141.488 130.5,139.5C 130.833,139.5 131.167,139.5 131.5,139.5C 138.131,138.669 144.798,138.336 151.5,138.5 Z"/></g>
<g><path style="opacity:0.443" fill="#deedbf" d="M 154.5,149.5 C 156.5,149.5 157.5,150.5 157.5,152.5C 156.167,151.833 155.167,150.833 154.5,149.5 Z"/></g>
<g><path style="opacity:0.188" fill="#dae8c4" d="M 140.5,147.5 C 138.401,148.612 136.067,149.279 133.5,149.5C 135.438,147.837 137.772,147.171 140.5,147.5 Z"/></g>
<g><path style="opacity:0.157" fill="#dae6c5" d="M 143.5,159.5 C 149.142,159.496 154.475,160.496 159.5,162.5C 153.924,162.129 148.591,161.129 143.5,159.5 Z"/></g>
<g><path style="opacity:0.348" fill="#d4e6b2" d="M 181.5,135.5 C 182.833,155.5 182.833,175.5 181.5,195.5C 181.184,175.643 181.184,155.643 181.5,135.5 Z"/></g>
<g><path style="opacity:0.09" fill="#ebf7d7" d="M 162.5,163.5 C 164.38,163.229 165.713,163.896 166.5,165.5C 164.847,165.34 163.514,164.674 162.5,163.5 Z"/></g>
<g><path style="opacity:0.486" fill="#cfe7a5" d="M 122.5,163.5 C 124.027,163.427 125.027,164.094 125.5,165.5C 123.973,165.573 122.973,164.906 122.5,163.5 Z"/></g>
<g><path style="opacity:0.38" fill="#d0eca3" d="M 125.5,165.5 C 127.027,165.427 128.027,166.094 128.5,167.5C 126.973,167.573 125.973,166.906 125.5,165.5 Z"/></g>
<g><path style="opacity:0.859" fill="#cbe398" d="M 167.5,166.5 C 169.262,167.262 170.262,168.596 170.5,170.5C 168.738,169.738 167.738,168.404 167.5,166.5 Z"/></g>
<g><path style="opacity:0.702" fill="#d6eba9" d="M 131.5,168.5 C 133.415,168.216 135.081,168.549 136.5,169.5C 134.741,170.261 133.074,169.928 131.5,168.5 Z"/></g>
<g><path style="opacity:0.612" fill="#cee0a6" d="M 136.5,169.5 C 142.845,169.224 148.845,170.224 154.5,172.5C 148.301,171.911 142.301,170.911 136.5,169.5 Z"/></g>
<g><path style="opacity:0.529" fill="#c7e292" d="M 128.5,174.5 C 125.167,174.5 121.833,174.5 118.5,174.5C 118.369,173.761 118.536,173.094 119,172.5C 122.27,173.132 125.437,173.799 128.5,174.5 Z"/></g>
<g><path style="opacity:0.322" fill="#deecc7" d="M 157.5,173.5 C 159.5,173.5 160.5,174.5 160.5,176.5C 159.167,175.833 158.167,174.833 157.5,173.5 Z"/></g>
<g><path style="opacity:0.673" fill="#bdd981" d="M 104.5,139.5 C 107.625,138.521 110.958,138.187 114.5,138.5C 115.237,158.817 115.237,179.151 114.5,199.5C 114.672,200.492 114.338,201.158 113.5,201.5C 113.5,180.833 113.5,160.167 113.5,139.5C 110.5,139.5 107.5,139.5 104.5,139.5 Z"/></g>
<g><path style="opacity:0.278" fill="#dbe7c7" d="M 129.5,178.5 C 130.906,178.973 131.573,179.973 131.5,181.5C 130.094,181.027 129.427,180.027 129.5,178.5 Z"/></g>
<g><path style="opacity:0.043" fill="#e0e9cd" d="M 131.5,181.5 C 133.153,181.66 134.486,182.326 135.5,183.5C 133.62,183.771 132.287,183.104 131.5,181.5 Z"/></g>
<g><path style="opacity:0.086" fill="#e2eae2" d="M 171.5,179.5 C 172.471,180.962 172.138,182.295 170.5,183.5C 170.433,182.041 170.766,180.708 171.5,179.5 Z"/></g>
<g><path style="opacity:0.659" fill="#d0e8a1" d="M 159.5,180.5 C 158.335,183.59 156.002,184.924 152.5,184.5C 154.929,183.449 157.262,182.116 159.5,180.5 Z"/></g>
<g><path style="opacity:0.341" fill="#d4e9ad" d="M 135.5,183.5 C 140.797,184.275 146.13,184.608 151.5,184.5C 149.527,185.163 147.361,185.496 145,185.5C 141.523,185.672 138.356,185.006 135.5,183.5 Z"/></g>
<g><path style="opacity:0.004" fill="#e4e9dd" d="M 119.5,183.5 C 120.974,184.436 121.974,185.77 122.5,187.5C 120.554,186.965 119.554,185.632 119.5,183.5 Z"/></g>
<g><path style="opacity:0.004" fill="#e2e9d3" d="M 168.5,186.5 C 168.5,188.5 167.5,189.5 165.5,189.5C 166.167,188.167 167.167,187.167 168.5,186.5 Z"/></g>
<g><path style="opacity:0.506" fill="#cbdfaa" d="M 123.5,188.5 C 125.404,188.738 126.738,189.738 127.5,191.5C 125.596,191.262 124.262,190.262 123.5,188.5 Z"/></g>
<g><path style="opacity:1" fill="#abcb66" d="M 165.5,189.5 C 165.027,190.906 164.027,191.573 162.5,191.5C 162.167,191.5 161.833,191.5 161.5,191.5C 161.389,190.883 161.056,190.383 160.5,190C 162.134,189.506 163.801,189.34 165.5,189.5 Z"/></g>
<g><path style="opacity:0.098" fill="#dfedc9" d="M 161.5,191.5 C 161.833,191.5 162.167,191.5 162.5,191.5C 162.389,192.117 162.056,192.617 161.5,193C 158.243,194.043 154.91,194.543 151.5,194.5C 154.726,193.511 158.06,192.511 161.5,191.5 Z"/></g>
<g><path style="opacity:0.596" fill="#d1e3ac" d="M 130.5,192.5 C 134.312,193.026 137.979,193.693 141.5,194.5C 140.784,194.783 139.951,195.116 139,195.5C 136.595,194.726 134.095,194.226 131.5,194C 130.944,193.617 130.611,193.117 130.5,192.5 Z"/></g>
<g><path style="opacity:0.129" fill="#dde9c9" d="M 78.5,195.5 C 80.3797,195.229 81.713,195.896 82.5,197.5C 80.847,197.34 79.5137,196.674 78.5,195.5 Z"/></g>
<g><path style="opacity:0.027" fill="#ebf2e4" d="M 180.5,195.5 C 180.167,196.5 179.5,197.167 178.5,197.5C 178.5,196.167 179.167,195.5 180.5,195.5 Z"/></g>
<g><path style="opacity:0.02" fill="#e3ecd6" d="M 177.5,197.5 C 176.341,199.25 174.674,200.25 172.5,200.5C 173.659,198.75 175.326,197.75 177.5,197.5 Z"/></g>
<g><path style="opacity:0.31" fill="#d2e5b3" d="M 68.5,197.5 C 68.8333,197.5 69.1667,197.5 69.5,197.5C 69.8925,199.284 70.5592,200.95 71.5,202.5C 69.2591,201.7 68.2591,200.034 68.5,197.5 Z"/></g>
<g><path style="opacity:1" fill="#a0c850" d="M 190.5,197.5 C 190.5,198.5 190.5,199.5 190.5,200.5C 189.833,202.5 188.5,203.833 186.5,204.5C 186.5,203.167 186.5,201.833 186.5,200.5C 187.5,200.5 188.5,200.5 189.5,200.5C 189.16,198.452 189.493,197.452 190.5,197.5 Z"/></g>
<g><path style="opacity:0.533" fill="#d2e1b0" d="M 103.5,201.5 C 103.306,203.912 101.973,204.912 99.5,204.5C 100.795,203.512 102.128,202.512 103.5,201.5 Z"/></g>
<g><path style="opacity:0.314" fill="#d8e7c1" d="M 114.5,199.5 C 115.097,199.735 115.43,200.235 115.5,201C 114.744,203.856 113.911,206.689 113,209.5C 112.184,210.823 111.017,211.489 109.5,211.5C 111.935,208.626 113.269,205.293 113.5,201.5C 114.338,201.158 114.672,200.492 114.5,199.5 Z"/></g>
<g><path style="opacity:0.627" fill="#c0d88c" d="M 71.5,202.5 C 73.4044,202.738 74.7377,203.738 75.5,205.5C 73.5956,205.262 72.2623,204.262 71.5,202.5 Z"/></g>
<g><path style="opacity:1" fill="#bcd680" d="M 75.5,205.5 C 77.9893,205.241 79.656,206.241 80.5,208.5C 78.5659,207.89 76.8993,206.89 75.5,205.5 Z"/></g>
<g><path style="opacity:0.004" fill="#e1eadf" d="M 186.5,204.5 C 186.027,205.906 185.027,206.573 183.5,206.5C 183.5,206.167 183.5,205.833 183.5,205.5C 184.391,204.89 185.391,204.557 186.5,204.5 Z"/></g>
<g><path style="opacity:0.275" fill="#dbe9c8" d="M 160.5,207.5 C 159.101,208.89 157.434,209.89 155.5,210.5C 156.401,208.273 158.067,207.273 160.5,207.5 Z"/></g>
<g><path style="opacity:0.153" fill="#e1f1cb" d="M 84.5,210.5 C 86.0269,210.427 87.0269,211.094 87.5,212.5C 85.9731,212.573 84.9731,211.906 84.5,210.5 Z"/></g>
<g><path style="opacity:1" fill="#adcf68" d="M 108.5,212.5 C 108.027,213.906 107.027,214.573 105.5,214.5C 104.833,214.5 104.167,214.5 103.5,214.5C 104.552,212.744 106.219,212.077 108.5,212.5 Z"/></g>
<g><path style="opacity:0.514" fill="#c7dd9b" d="M 153.5,211.5 C 152.514,213.408 150.848,214.408 148.5,214.5C 149.659,212.75 151.326,211.75 153.5,211.5 Z"/></g>
<g><path style="opacity:0.451" fill="#d8e8ba" d="M 92.5,214.5 C 93.1667,214.5 93.8333,214.5 94.5,214.5C 97.5,214.5 100.5,214.5 103.5,214.5C 104.167,214.5 104.833,214.5 105.5,214.5C 101.323,216.448 96.9898,216.448 92.5,214.5 Z"/></g>
<g><path style="opacity:0.569" fill="#cbdea8" d="M 146.5,215.5 C 146.027,216.906 145.027,217.573 143.5,217.5C 143.973,216.094 144.973,215.427 146.5,215.5 Z"/></g>
<g><path style="opacity:0.967" fill="#c0d88e" d="M 118.5,218.5 C 116.167,218.5 113.833,218.5 111.5,218.5C 113.916,215.966 116.25,215.966 118.5,218.5 Z"/></g>
<g><path style="opacity:0.012" fill="#ecf0e8" d="M 162.5,218.5 C 162.027,219.906 161.027,220.573 159.5,220.5C 159.973,219.094 160.973,218.427 162.5,218.5 Z"/></g>
<g><path style="opacity:0.439" fill="#deefbe" d="M 109.5,219.5 C 108.571,220.315 107.571,221.148 106.5,222C 107.056,222.383 107.389,222.883 107.5,223.5C 106.244,223.539 105.244,223.039 104.5,222C 105.653,220.117 107.319,219.284 109.5,219.5 Z"/></g>
<g><path style="opacity:0.027" fill="#e8f2d1" d="M 156.5,221.5 C 156.027,222.906 155.027,223.573 153.5,223.5C 153.973,222.094 154.973,221.427 156.5,221.5 Z"/></g>
<g><path style="opacity:0.004" fill="#fbffe8" d="M 107.5,224.5 C 106.833,225.167 106.833,225.167 107.5,224.5 Z"/></g>
<g><path style="opacity:0.349" fill="#d5ebae" d="M 107.5,224.5 C 107.5,224.167 107.5,223.833 107.5,223.5C 109.027,223.427 110.027,224.094 110.5,225.5C 109.391,225.443 108.391,225.11 107.5,224.5 Z"/></g>
<g><path style="opacity:0.035" fill="#f2f8e0" d="M 153.5,223.5 C 153.027,224.906 152.027,225.573 150.5,225.5C 150.973,224.094 151.973,223.427 153.5,223.5 Z"/></g>
<g><path style="opacity:1" fill="#88c022" d="M 171.5,201.5 C 173.279,202.67 174.279,204.336 174.5,206.5C 177.244,206.752 179.744,206.085 182,204.5C 182.765,204.57 183.265,204.903 183.5,205.5C 183.5,205.833 183.5,206.167 183.5,206.5C 176.663,210.753 169.663,214.753 162.5,218.5C 160.973,218.427 159.973,219.094 159.5,220.5C 158.609,221.11 157.609,221.443 156.5,221.5C 154.973,221.427 153.973,222.094 153.5,223.5C 151.973,223.427 150.973,224.094 150.5,225.5C 149.167,226.167 147.833,226.833 146.5,227.5C 144.973,227.427 143.973,228.094 143.5,229.5C 142.486,230.674 141.153,231.34 139.5,231.5C 135.181,233.959 130.515,234.959 125.5,234.5C 125.027,233.094 124.027,232.427 122.5,232.5C 119.996,231.416 117.663,230.083 115.5,228.5C 115.027,227.094 114.027,226.427 112.5,226.5C 111.508,226.672 110.842,226.338 110.5,225.5C 110.027,224.094 109.027,223.427 107.5,223.5C 107.389,222.883 107.056,222.383 106.5,222C 107.571,221.148 108.571,220.315 109.5,219.5C 109.842,218.662 110.508,218.328 111.5,218.5C 113.833,218.5 116.167,218.5 118.5,218.5C 118.833,218.5 119.167,218.5 119.5,218.5C 120.035,220.446 121.368,221.446 123.5,221.5C 125.153,221.66 126.486,222.326 127.5,223.5C 128.538,225.519 129.872,225.853 131.5,224.5C 134.1,223.532 136.434,222.199 138.5,220.5C 140.027,220.573 141.027,219.906 141.5,218.5C 141.842,217.662 142.508,217.328 143.5,217.5C 145.027,217.573 146.027,216.906 146.5,215.5C 146.842,214.662 147.508,214.328 148.5,214.5C 150.848,214.408 152.514,213.408 153.5,211.5C 153.842,210.662 154.508,210.328 155.5,210.5C 157.434,209.89 159.101,208.89 160.5,207.5C 163.678,204.742 167.345,202.742 171.5,201.5 Z"/></g>
<g><path style="opacity:0.271" fill="#d1e2b1" d="M 127.5,223.5 C 128.833,223.833 130.167,224.167 131.5,224.5C 129.872,225.853 128.538,225.519 127.5,223.5 Z"/></g>
<g><path style="opacity:0.361" fill="#cbdfa0" d="M 138.5,220.5 C 136.434,222.199 134.1,223.532 131.5,224.5C 133.121,222.058 135.454,220.725 138.5,220.5 Z"/></g>
<g><path style="opacity:0.663" fill="#c7df9e" d="M 141.5,218.5 C 141.027,219.906 140.027,220.573 138.5,220.5C 138.973,219.094 139.973,218.427 141.5,218.5 Z"/></g>
<g><path style="opacity:0.71" fill="#cde1a3" d="M 119.5,218.5 C 121.23,219.026 122.564,220.026 123.5,221.5C 121.368,221.446 120.035,220.446 119.5,218.5 Z"/></g>
<g><path style="opacity:0.263" fill="#dceeb7" d="M 112.5,226.5 C 114.027,226.427 115.027,227.094 115.5,228.5C 113.973,228.573 112.973,227.906 112.5,226.5 Z"/></g>
<g><path style="opacity:0.024" fill="#f1f8dc" d="M 146.5,227.5 C 146.027,228.906 145.027,229.573 143.5,229.5C 143.973,228.094 144.973,227.427 146.5,227.5 Z"/></g>
<g><path style="opacity:0.255" fill="#d3e4ba" d="M 122.5,232.5 C 124.027,232.427 125.027,233.094 125.5,234.5C 123.973,234.573 122.973,233.906 122.5,232.5 Z"/></g>
<g><path style="opacity:0.141" fill="#d8e5c1" d="M 139.5,231.5 C 138.547,233.61 136.881,234.777 134.5,235C 131.304,235.805 128.304,235.638 125.5,234.5C 130.515,234.959 135.181,233.959 139.5,231.5 Z"/></g>
</svg>
