<?xml version="1.0" encoding="UTF-8"?>
<!DOCTYPE svg PUBLIC "-//W3C//DTD SVG 1.1//EN" "http://www.w3.org/Graphics/SVG/1.1/DTD/svg11.dtd">
<svg xmlns="http://www.w3.org/2000/svg" version="1.1" width="225px" height="225px" style="shape-rendering:geometricPrecision; text-rendering:geometricPrecision; image-rendering:optimizeQuality; fill-rule:evenodd; clip-rule:evenodd" xmlns:xlink="http://www.w3.org/1999/xlink">
<g><path style="opacity:1" fill="#3a6f9b" d="M 78.5,131.5 C 77.5233,134.287 77.19,137.287 77.5,140.5C 73.1667,140.5 68.8333,140.5 64.5,140.5C 56.7094,137.875 51.876,132.541 50,124.5C 49.3333,115.833 49.3333,107.167 50,98.5C 51.966,90.5309 56.7993,85.0309 64.5,82C 80.1773,81.8329 95.844,81.3329 111.5,80.5C 101.522,79.5015 91.5222,79.1681 81.5,79.5C 78.8088,65.7071 83.8088,56.2071 96.5,51C 106.833,50.3333 117.167,50.3333 127.5,51C 135,53.1667 139.833,58 142,65.5C 150.423,101.755 135.923,116.922 98.5,111C 86.9391,113.061 80.2724,119.894 78.5,131.5 Z M 93.5,59.5 C 100.644,60.9396 101.977,64.4396 97.5,70C 91.8326,71.3277 89.3326,69.1611 90,63.5C 90.6897,61.6498 91.8564,60.3164 93.5,59.5 Z"/></g>
<g><path style="opacity:0.859" fill="#ffe39f" d="M 159.5,83.5 C 155.167,83.5 150.833,83.5 146.5,83.5C 146.81,86.7131 146.477,89.7131 145.5,92.5C 144.842,91.2067 144.508,89.7067 144.5,88C 144.305,85.6477 144.972,83.6477 146.5,82C 150.95,82.0545 155.283,82.5545 159.5,83.5 Z"/></g>
<g><path style="opacity:1" fill="#ffce40" d="M 159.5,83.5 C 167.741,85.5921 172.574,90.9255 174,99.5C 174.667,108.167 174.667,116.833 174,125.5C 172.617,134.662 167.451,139.995 158.5,141.5C 142.797,140.849 127.464,141.516 112.5,143.5C 122.319,144.494 132.319,144.827 142.5,144.5C 144.526,154.574 141.859,163.074 134.5,170C 132.283,171.275 129.949,172.275 127.5,173C 117.167,173.667 106.833,173.667 96.5,173C 88.907,170.908 84.2404,166.075 82.5,158.5C 82.5,148.5 82.5,138.5 82.5,128.5C 84.1434,121.352 88.4767,116.518 95.5,114C 105.167,113.667 114.833,113.333 124.5,113C 128.45,112.516 132.117,111.349 135.5,109.5C 138.5,108.5 140.5,106.5 141.5,103.5C 143.121,99.9273 144.454,96.2606 145.5,92.5C 146.477,89.7131 146.81,86.7131 146.5,83.5C 150.833,83.5 155.167,83.5 159.5,83.5 Z M 126.5,163.5 C 125.833,162.167 124.833,161.167 123.5,160.5C 123.644,155.187 126.31,153.021 131.5,154C 135.613,158.068 135.113,161.568 130,164.5C 128.989,163.663 127.822,163.33 126.5,163.5 Z"/></g>
<g><path style="opacity:0.812" fill="#ffe4a2" d="M 141.5,103.5 C 140.5,106.5 138.5,108.5 135.5,109.5C 137.167,107.167 139.167,105.167 141.5,103.5 Z"/></g>
<g><path style="opacity:0.839" fill="#ffe095" d="M 82.5,128.5 C 82.5,138.5 82.5,148.5 82.5,158.5C 81.6308,151.672 80.9641,144.672 80.5,137.5C 80.4474,134.215 81.1141,131.215 82.5,128.5 Z"/></g>
<g><path style="opacity:0.738" fill="#7695b4" d="M 78.5,131.5 C 78.5,134.833 78.5,138.167 78.5,141.5C 73.6367,141.819 68.97,141.486 64.5,140.5C 68.8333,140.5 73.1667,140.5 77.5,140.5C 77.19,137.287 77.5233,134.287 78.5,131.5 Z"/></g>
<g><path style="opacity:0.763" fill="#ffd773" d="M 158.5,141.5 C 143.265,142.181 127.931,142.848 112.5,143.5C 127.464,141.516 142.797,140.849 158.5,141.5 Z"/></g>
<g><path style="opacity:0.788" fill="#ffe8b2" d="M 123.5,160.5 C 124.833,161.167 125.833,162.167 126.5,163.5C 124.5,163.5 123.5,162.5 123.5,160.5 Z"/></g>
</svg>
