<?xml version="1.0" encoding="UTF-8"?>
<!DOCTYPE svg PUBLIC "-//W3C//DTD SVG 1.1//EN" "http://www.w3.org/Graphics/SVG/1.1/DTD/svg11.dtd">
<svg xmlns="http://www.w3.org/2000/svg" version="1.1" width="512px" height="512px" style="shape-rendering:geometricPrecision; text-rendering:geometricPrecision; image-rendering:optimizeQuality; fill-rule:evenodd; clip-rule:evenodd" xmlns:xlink="http://www.w3.org/1999/xlink">
<g><path style="opacity:0.964" fill="#00d8ff" d="M 349.5,41.5 C 372.958,41.3103 388.458,52.3103 396,74.5C 404.688,107.918 404.188,141.252 394.5,174.5C 413.894,180.469 432.561,188.302 450.5,198C 509.56,235.011 510.226,273.011 452.5,312C 434.455,322.355 415.455,330.522 395.5,336.5C 402.667,363.505 404.5,390.839 401,418.5C 392.048,464.397 365.548,479.23 321.5,463C 296.929,451.761 275.096,436.594 256,417.5C 234.172,439.338 208.672,455.505 179.5,466C 145.725,476.031 123.225,464.531 112,431.5C 105.395,400.051 106.562,368.885 115.5,338C 89.6104,330.054 65.6104,318.388 43.5,303C 4.84671,271.265 4.84671,239.599 43.5,208C 65.3724,192.566 89.3724,181.732 115.5,175.5C 108.609,148.869 106.443,121.869 109,94.5C 115.982,47.917 141.815,32.417 186.5,48C 212.502,58.9113 235.336,74.4113 255,94.5C 276.802,72.3451 302.302,55.8451 331.5,45C 337.581,43.5026 343.581,42.3359 349.5,41.5 Z M 154.5,63.5 C 167.582,64.3538 179.915,67.8538 191.5,74C 209.371,83.7036 225.371,95.8703 239.5,110.5C 225.219,126.276 211.885,142.776 199.5,160C 178.298,161.91 157.298,165.076 136.5,169.5C 129.636,144.534 127.803,119.201 131,93.5C 132.205,82.9224 136.705,74.0891 144.5,67C 147.85,65.5137 151.184,64.347 154.5,63.5 Z M 346.5,63.5 C 358.511,61.5894 367.344,65.9227 373,76.5C 376.757,84.7717 379.09,93.4384 380,102.5C 381.666,124.837 379.666,146.837 374,168.5C 373.275,169.059 372.442,169.392 371.5,169.5C 351.372,165.034 331.038,161.868 310.5,160C 298.368,142.421 285.035,125.754 270.5,110C 286.939,93.5625 305.606,80.2292 326.5,70C 333.119,67.2926 339.786,65.126 346.5,63.5 Z M 281.5,157.5 C 264.154,157.833 246.821,157.5 229.5,156.5C 237.232,145.712 245.899,135.712 255.5,126.5C 264.912,136.242 273.579,146.576 281.5,157.5 Z M 247.5,178.5 C 264.526,178.853 281.526,179.686 298.5,181C 314.262,204.127 328.428,228.294 341,253.5C 341.667,254.833 341.667,256.167 341,257.5C 328.485,283.227 313.985,307.561 297.5,330.5C 269.194,332.982 240.861,333.149 212.5,331C 195.688,307.227 181.022,282.061 168.5,255.5C 181.435,229.762 195.769,204.929 211.5,181C 223.647,180.055 235.647,179.222 247.5,178.5 Z M 179.5,183.5 C 180.873,183.343 182.207,183.51 183.5,184C 174.288,198.921 165.455,214.087 157,229.5C 151.569,216.872 146.736,204.038 142.5,191C 154.875,188.053 167.208,185.553 179.5,183.5 Z M 326.5,184.5 C 326.917,183.876 327.584,183.543 328.5,183.5C 341.569,185.511 354.569,187.845 367.5,190.5C 363.78,203.935 358.947,216.935 353,229.5C 344.702,214.07 335.869,199.07 326.5,184.5 Z M 120.5,195.5 C 127.494,215.799 135.494,235.799 144.5,255.5C 135.557,275.39 127.723,295.723 121,316.5C 98.6476,309.739 77.8143,299.906 58.5,287C 49.4674,280.637 42.6341,272.471 38,262.5C 35.5467,254.513 36.88,247.18 42,240.5C 55.0393,225.547 70.8727,214.38 89.5,207C 99.8934,203.039 110.227,199.206 120.5,195.5 Z M 388.5,196.5 C 411.942,202.557 433.609,212.39 453.5,226C 461.479,231.643 467.645,238.809 472,247.5C 474.717,256.365 473.05,264.365 467,271.5C 453.711,285.448 438.211,296.282 420.5,304C 410.472,308.231 400.305,312.064 390,315.5C 382.947,295.005 375.114,274.838 366.5,255C 375.117,235.983 382.45,216.483 388.5,196.5 Z M 156.5,281.5 C 164.927,297.517 174.261,313.017 184.5,328C 176.149,327.555 167.815,326.555 159.5,325C 153.579,324.187 147.912,322.687 142.5,320.5C 146.902,307.371 151.569,294.371 156.5,281.5 Z M 352.5,281.5 C 353.75,281.577 354.583,282.244 355,283.5C 360.242,295.623 364.576,307.956 368,320.5C 354.427,324.344 340.594,326.51 326.5,327C 336.328,312.511 344.995,297.345 352.5,281.5 Z M 372.5,341.5 C 373.496,341.414 374.329,341.748 375,342.5C 380.519,363.505 382.519,384.839 381,406.5C 380.131,417.986 376.798,428.653 371,438.5C 364.047,446.787 355.214,449.62 344.5,447C 326.409,442.454 310.075,434.454 295.5,423C 287.371,416.54 279.537,409.706 272,402.5C 271.333,401.833 271.333,401.167 272,400.5C 286.157,385.335 298.99,369.168 310.5,352C 324.511,350.147 338.511,348.147 352.5,346C 359.372,344.807 366.038,343.307 372.5,341.5 Z M 136.5,342.5 C 157.69,346.67 179.023,350.003 200.5,352.5C 212.754,369.824 226.088,386.324 240.5,402C 225.179,416.655 208.179,428.989 189.5,439C 181.768,442.466 173.768,445.133 165.5,447C 151.153,449.91 140.986,444.743 135,431.5C 128.563,411.158 127.23,390.491 131,369.5C 132.265,360.342 134.098,351.342 136.5,342.5 Z M 228.5,354.5 C 246.329,353.338 264.329,353.171 282.5,354C 273.667,364.833 264.833,375.667 256,386.5C 246.594,375.936 237.428,365.269 228.5,354.5 Z"/></g>
<g><path style="opacity:0.979" fill="#00d8ff" d="M 251.5,211.5 C 285.845,214.009 301.011,232.342 297,266.5C 287.765,291.539 269.932,301.706 243.5,297C 217.202,286.907 207.368,268.074 214,240.5C 221.17,223.818 233.67,214.152 251.5,211.5 Z"/></g>
</svg>
