<?xml version="1.0" encoding="UTF-8"?>
<!DOCTYPE svg PUBLIC "-//W3C//DTD SVG 1.1//EN" "http://www.w3.org/Graphics/SVG/1.1/DTD/svg11.dtd">
<svg xmlns="http://www.w3.org/2000/svg" version="1.1" width="260px" height="194px" style="shape-rendering:geometricPrecision; text-rendering:geometricPrecision; image-rendering:optimizeQuality; fill-rule:evenodd; clip-rule:evenodd" xmlns:xlink="http://www.w3.org/1999/xlink">
<g><path style="opacity:1" fill="#fefefe" d="M 123.5,-0.5 C 168.833,-0.5 214.167,-0.5 259.5,-0.5C 259.5,44.5 259.5,89.5 259.5,134.5C 255.258,123.761 247.591,116.594 236.5,113C 223.877,110.118 211.71,111.284 200,116.5C 192.899,106.16 191.733,95.1604 196.5,83.5C 196.182,82.3527 195.516,81.5194 194.5,81C 184.855,78.223 179.688,81.723 179,91.5C 174.428,101.649 169.095,111.316 163,120.5C 160.112,115.955 158.612,110.955 158.5,105.5C 159.355,100.103 160.189,94.7699 161,89.5C 156.132,88.0853 151.299,88.252 146.5,90C 139.143,110.905 130.143,131.072 119.5,150.5C 118.353,148.235 118.186,145.902 119,143.5C 120.932,134.606 123.098,125.773 125.5,117C 124.535,113.184 122.202,112.017 118.5,113.5C 118.849,99.0034 112.515,94.8367 99.5,101C 93.8787,104.287 89.212,108.621 85.5,114C 77.1667,118.5 68.8333,123 60.5,127.5C 52.9349,120.432 44.9349,113.932 36.5,108C 29.0557,102.235 23.5557,95.0685 20,86.5C 18.3484,78.1192 20.0151,70.4526 25,63.5C 33.6226,52.2126 44.1226,43.0459 56.5,36C 72.3306,26.3891 89.3306,19.7224 107.5,16C 116.553,15.154 125.553,15.4873 134.5,17C 146.164,19.65 150.997,26.8167 149,38.5C 140.936,57.2233 127.103,69.7233 107.5,76C 96.4265,80.2923 85.0931,81.2923 73.5,79C 68.5776,76.7095 63.9109,74.2095 59.5,71.5C 60.741,77.9139 64.4077,82.4139 70.5,85C 92.8072,91.0644 114.141,88.3978 134.5,77C 151.519,66.2937 161.186,50.9604 163.5,31C 162.023,16.1825 154.023,6.84919 139.5,3C 134.046,1.74505 128.713,0.578384 123.5,-0.5 Z"/></g>
<g><path style="opacity:1" fill="#cf649a" d="M 110.5,-0.5 C 114.833,-0.5 119.167,-0.5 123.5,-0.5C 128.713,0.578384 134.046,1.74505 139.5,3C 154.023,6.84919 162.023,16.1825 163.5,31C 161.186,50.9604 151.519,66.2937 134.5,77C 114.141,88.3978 92.8072,91.0644 70.5,85C 64.4077,82.4139 60.741,77.9139 59.5,71.5C 63.9109,74.2095 68.5776,76.7095 73.5,79C 85.0931,81.2923 96.4265,80.2923 107.5,76C 127.103,69.7233 140.936,57.2233 149,38.5C 150.997,26.8167 146.164,19.65 134.5,17C 125.553,15.4873 116.553,15.154 107.5,16C 89.3306,19.7224 72.3306,26.3891 56.5,36C 44.1226,43.0459 33.6226,52.2126 25,63.5C 20.0151,70.4526 18.3484,78.1192 20,86.5C 23.5557,95.0685 29.0557,102.235 36.5,108C 44.9349,113.932 52.9349,120.432 60.5,127.5C 68.8333,123 77.1667,118.5 85.5,114C 89.212,108.621 93.8787,104.287 99.5,101C 112.515,94.8367 118.849,99.0034 118.5,113.5C 122.202,112.017 124.535,113.184 125.5,117C 123.098,125.773 120.932,134.606 119,143.5C 118.186,145.902 118.353,148.235 119.5,150.5C 130.143,131.072 139.143,110.905 146.5,90C 151.299,88.252 156.132,88.0853 161,89.5C 160.189,94.7699 159.355,100.103 158.5,105.5C 158.612,110.955 160.112,115.955 163,120.5C 169.095,111.316 174.428,101.649 179,91.5C 179.688,81.723 184.855,78.223 194.5,81C 195.516,81.5194 196.182,82.3527 196.5,83.5C 191.733,95.1604 192.899,106.16 200,116.5C 211.71,111.284 223.877,110.118 236.5,113C 247.591,116.594 255.258,123.761 259.5,134.5C 259.5,137.5 259.5,140.5 259.5,143.5C 257.12,149.545 252.786,153.545 246.5,155.5C 245.833,155.167 245.167,154.833 244.5,154.5C 253.8,148.946 255.967,141.279 251,131.5C 244.7,124.6 236.866,120.767 227.5,120C 222.167,119.333 216.833,119.333 211.5,120C 208.202,120.487 205.202,121.653 202.5,123.5C 206.857,137.289 202.19,146.789 188.5,152C 178.046,157.033 173.546,153.866 175,142.5C 176.746,138.673 178.746,135.007 181,131.5C 184.016,128.651 186.85,125.651 189.5,122.5C 186.109,116.16 183.609,109.493 182,102.5C 177.464,111.744 172.297,120.577 166.5,129C 173.159,147.338 166.826,158.338 147.5,162C 143.683,163.023 140.183,162.523 137,160.5C 136.333,158.833 136.333,157.167 137,155.5C 143.356,147.978 149.523,140.311 155.5,132.5C 151.567,125.526 148.734,118.193 147,110.5C 139.995,128.176 131.662,145.176 122,161.5C 116.609,168.47 111.942,168.137 108,160.5C 107.667,155.833 107.333,151.167 107,146.5C 104.51,154.984 100.343,162.484 94.5,169C 89.4744,170.494 85.3077,169.327 82,165.5C 75.756,152.997 74.9227,140.164 79.5,127C 74.8701,128.562 70.3701,130.729 66,133.5C 72.34,155.995 66.1734,174.161 47.5,188C 42.2601,190.466 36.9268,192.3 31.5,193.5C 27.8333,193.5 24.1667,193.5 20.5,193.5C 12.2617,190.057 8.26168,183.724 8.5,174.5C 9.56232,164.877 13.8957,157.043 21.5,151C 30.497,143.847 40.1637,137.68 50.5,132.5C 41.6632,125.838 32.6632,119.338 23.5,113C 18.3656,108.867 13.5323,104.367 9,99.5C -1.45774,86.3332 -2.12441,72.6665 7,58.5C 16.2592,44.5733 28.0925,33.4066 42.5,25C 63.5365,11.8255 86.2032,3.32552 110.5,-0.5 Z"/></g>
<g><path style="opacity:1" fill="#fefdfe" d="M -0.5,-0.5 C 36.5,-0.5 73.5,-0.5 110.5,-0.5C 86.2032,3.32552 63.5365,11.8255 42.5,25C 28.0925,33.4066 16.2592,44.5733 7,58.5C -2.12441,72.6665 -1.45774,86.3332 9,99.5C 13.5323,104.367 18.3656,108.867 23.5,113C 32.6632,119.338 41.6632,125.838 50.5,132.5C 40.1637,137.68 30.497,143.847 21.5,151C 13.8957,157.043 9.56232,164.877 8.5,174.5C 8.26168,183.724 12.2617,190.057 20.5,193.5C 13.5,193.5 6.5,193.5 -0.5,193.5C -0.5,128.833 -0.5,64.1667 -0.5,-0.5 Z"/></g>
<g><path style="opacity:1" fill="#fefdfe" d="M 259.5,143.5 C 259.5,160.167 259.5,176.833 259.5,193.5C 183.5,193.5 107.5,193.5 31.5,193.5C 36.9268,192.3 42.2601,190.466 47.5,188C 66.1734,174.161 72.34,155.995 66,133.5C 70.3701,130.729 74.8701,128.562 79.5,127C 74.9227,140.164 75.756,152.997 82,165.5C 85.3077,169.327 89.4744,170.494 94.5,169C 100.343,162.484 104.51,154.984 107,146.5C 107.333,151.167 107.667,155.833 108,160.5C 111.942,168.137 116.609,168.47 122,161.5C 131.662,145.176 139.995,128.176 147,110.5C 148.734,118.193 151.567,125.526 155.5,132.5C 149.523,140.311 143.356,147.978 137,155.5C 136.333,157.167 136.333,158.833 137,160.5C 140.183,162.523 143.683,163.023 147.5,162C 166.826,158.338 173.159,147.338 166.5,129C 172.297,120.577 177.464,111.744 182,102.5C 183.609,109.493 186.109,116.16 189.5,122.5C 186.85,125.651 184.016,128.651 181,131.5C 178.746,135.007 176.746,138.673 175,142.5C 173.546,153.866 178.046,157.033 188.5,152C 202.19,146.789 206.857,137.289 202.5,123.5C 205.202,121.653 208.202,120.487 211.5,120C 216.833,119.333 222.167,119.333 227.5,120C 236.866,120.767 244.7,124.6 251,131.5C 255.967,141.279 253.8,148.946 244.5,154.5C 245.167,154.833 245.833,155.167 246.5,155.5C 252.786,153.545 257.12,149.545 259.5,143.5 Z"/></g>
<g><path style="opacity:1" fill="#fdfafc" d="M 107.5,107.5 C 108.496,107.414 109.329,107.748 110,108.5C 110.667,110.5 110.667,112.5 110,114.5C 106.591,125.73 102.591,136.73 98,147.5C 97.089,150.576 95.2557,152.909 92.5,154.5C 90.0299,151.115 89.0299,147.282 89.5,143C 89.8675,128.096 95.8675,116.262 107.5,107.5 Z"/></g>
<g><path style="opacity:1" fill="#fbf5f8" d="M 191.5,128.5 C 195.028,136.81 192.362,142.81 183.5,146.5C 182.628,144.534 182.795,142.534 184,140.5C 185.933,136.083 188.433,132.083 191.5,128.5 Z"/></g>
<g><path style="opacity:1" fill="#fefcfd" d="M 55.5,138.5 C 60.7728,155.186 55.4394,168.019 39.5,177C 28.6867,182.361 23.8534,179.194 25,167.5C 28.0031,160.499 32.5031,154.665 38.5,150C 44.2324,146.144 49.8991,142.31 55.5,138.5 Z"/></g>
<g><path style="opacity:1" fill="#faf0f5" d="M 157.5,140.5 C 157.813,147.965 154.147,152.465 146.5,154C 150.379,149.626 154.046,145.126 157.5,140.5 Z"/></g>
</svg>
