<?xml version="1.0" encoding="UTF-8"?>
<!DOCTYPE svg PUBLIC "-//W3C//DTD SVG 1.1//EN" "http://www.w3.org/Graphics/SVG/1.1/DTD/svg11.dtd">
<svg xmlns="http://www.w3.org/2000/svg" version="1.1" width="375px" height="375px" style="shape-rendering:geometricPrecision; text-rendering:geometricPrecision; image-rendering:optimizeQuality; fill-rule:evenodd; clip-rule:evenodd" xmlns:xlink="http://www.w3.org/1999/xlink">
<g><path style="opacity:1" fill="#489a7f" d="M 217.5,22.5 C 218.972,24.1175 219.639,26.1175 219.5,28.5C 219.322,31.7374 218.655,34.7374 217.5,37.5C 217.5,32.5 217.5,27.5 217.5,22.5 Z"/></g>
<g><path style="opacity:0.941" fill="#49ad89" d="M 191.5,25.5 C 191.649,26.552 191.483,27.552 191,28.5C 187.583,32.7383 184.083,36.7383 180.5,40.5C 183.436,34.9586 187.103,29.9586 191.5,25.5 Z"/></g>
<g><path style="opacity:0.996" fill="#46a282" d="M 217.5,38.5 C 216.784,45.412 215.451,52.0787 213.5,58.5C 213.603,52.1392 214.103,45.8059 215,39.5C 215.671,38.7476 216.504,38.4142 217.5,38.5 Z"/></g>
<g><path style="opacity:1" fill="#4aaf8b" d="M 180.5,40.5 C 179.955,42.5932 179.122,44.5932 178,46.5C 171.461,52.2574 166.961,59.2574 164.5,67.5C 163.167,67.5 161.833,67.5 160.5,67.5C 166.403,57.9312 173.069,48.9312 180.5,40.5 Z"/></g>
<g><path style="opacity:1" fill="#46ad87" d="M 213.5,59.5 C 210.784,76.4118 207.451,93.0785 203.5,109.5C 205.538,97.2643 206.705,84.931 207,72.5C 209.972,69.5584 211.472,65.8917 211.5,61.5C 211.747,60.2867 212.414,59.62 213.5,59.5 Z"/></g>
<g><path style="opacity:1" fill="#44be8d" d="M 160.5,67.5 C 160.657,68.8734 160.49,70.2068 160,71.5C 157.696,74.4713 155.529,77.4713 153.5,80.5C 153.977,81.4776 154.643,82.3109 155.5,83C 154.257,85.0338 152.757,85.8671 151,85.5C 148.977,87.7693 148.144,90.4359 148.5,93.5C 146.876,93.6399 145.71,92.9733 145,91.5C 143.68,94.1393 142.347,96.8059 141,99.5C 138.552,100.973 136.052,102.307 133.5,103.5C 141.738,90.9289 150.738,78.9289 160.5,67.5 Z"/></g>
<g><path style="opacity:1" fill="#45a281" d="M 203.5,110.5 C 201.552,122.909 199.218,135.242 196.5,147.5C 196.167,147.5 195.833,147.5 195.5,147.5C 197.496,135.513 199.496,123.513 201.5,111.5C 202.183,111.137 202.85,110.804 203.5,110.5 Z"/></g>
<g><path style="opacity:1" fill="#4cb38d" d="M 120.5,121.5 C 119.684,125.147 118.184,128.48 116,131.5C 114.53,132.267 113.03,132.933 111.5,133.5C 113.738,128.929 116.738,124.929 120.5,121.5 Z"/></g>
<g><path style="opacity:0.071" fill="#347765" d="M 195.5,147.5 C 195.833,147.5 196.167,147.5 196.5,147.5C 227.987,149.165 259.653,150.165 291.5,150.5C 259.5,150.5 227.5,150.5 195.5,150.5C 195.5,149.5 195.5,148.5 195.5,147.5 Z"/></g>
<g><path style="opacity:1" fill="#3ece8d" d="M 217.5,22.5 C 217.5,27.5 217.5,32.5 217.5,37.5C 217.5,37.8333 217.5,38.1667 217.5,38.5C 216.504,38.4142 215.671,38.7476 215,39.5C 214.103,45.8059 213.603,52.1392 213.5,58.5C 213.5,58.8333 213.5,59.1667 213.5,59.5C 212.414,59.62 211.747,60.2867 211.5,61.5C 211.472,65.8917 209.972,69.5584 207,72.5C 206.705,84.931 205.538,97.2643 203.5,109.5C 203.5,109.833 203.5,110.167 203.5,110.5C 202.85,110.804 202.183,111.137 201.5,111.5C 199.496,123.513 197.496,135.513 195.5,147.5C 195.5,148.5 195.5,149.5 195.5,150.5C 195.611,151.117 195.944,151.617 196.5,152C 229.5,152.333 262.5,152.667 295.5,153C 296.973,153.71 297.64,154.876 297.5,156.5C 299.199,156.34 300.866,156.506 302.5,157C 307.771,162.012 309.605,168.178 308,175.5C 306.541,178.77 305.374,182.103 304.5,185.5C 303.214,188.117 301.547,190.45 299.5,192.5C 296.833,193.833 294.167,195.167 291.5,196.5C 292.211,199.864 291.044,202.197 288,203.5C 287.506,205.134 287.34,206.801 287.5,208.5C 284.212,213.786 280.546,218.786 276.5,223.5C 275.391,223.557 274.391,223.89 273.5,224.5C 242.093,224.175 210.76,224.508 179.5,225.5C 145.307,224.813 110.973,224.147 76.5,223.5C 75.5084,223.672 74.8417,223.338 74.5,222.5C 71.5526,219.981 69.0526,216.981 67,213.5C 65.6071,208.905 65.2738,204.239 66,199.5C 71.6091,190.051 77.4424,180.718 83.5,171.5C 87.1445,166.337 90.6445,161.004 94,155.5C 100.078,148.267 105.911,140.934 111.5,133.5C 113.03,132.933 114.53,132.267 116,131.5C 118.184,128.48 119.684,125.147 120.5,121.5C 124.066,114.936 128.399,108.936 133.5,103.5C 136.052,102.307 138.552,100.973 141,99.5C 142.347,96.8059 143.68,94.1393 145,91.5C 145.71,92.9733 146.876,93.6399 148.5,93.5C 148.144,90.4359 148.977,87.7693 151,85.5C 152.757,85.8671 154.257,85.0338 155.5,83C 154.643,82.3109 153.977,81.4776 153.5,80.5C 155.529,77.4713 157.696,74.4713 160,71.5C 160.49,70.2068 160.657,68.8734 160.5,67.5C 161.833,67.5 163.167,67.5 164.5,67.5C 166.961,59.2574 171.461,52.2574 178,46.5C 179.122,44.5932 179.955,42.5932 180.5,40.5C 184.083,36.7383 187.583,32.7383 191,28.5C 191.483,27.552 191.649,26.552 191.5,25.5C 196.633,14.1095 204.633,11.6095 215.5,18C 216.582,19.3297 217.249,20.8297 217.5,22.5 Z"/></g>
<g><path style="opacity:1" fill="#4dbc92" d="M 195.5,150.5 C 227.5,150.5 259.5,150.5 291.5,150.5C 305.728,153.254 311.894,161.92 310,176.5C 309.128,180.181 307.294,183.181 304.5,185.5C 305.374,182.103 306.541,178.77 308,175.5C 309.605,168.178 307.771,162.012 302.5,157C 300.866,156.506 299.199,156.34 297.5,156.5C 297.64,154.876 296.973,153.71 295.5,153C 262.5,152.667 229.5,152.333 196.5,152C 195.944,151.617 195.611,151.117 195.5,150.5 Z"/></g>
<g><path style="opacity:1" fill="#49ac89" d="M 83.5,171.5 C 77.4424,180.718 71.6091,190.051 66,199.5C 65.2738,204.239 65.6071,208.905 67,213.5C 69.0526,216.981 71.5526,219.981 74.5,222.5C 71.8045,222.067 69.6379,220.734 68,218.5C 63.7712,212.841 62.4379,206.507 64,199.5C 69.1944,189.159 75.6944,179.826 83.5,171.5 Z"/></g>
<g><path style="opacity:1" fill="#45b38a" d="M 299.5,192.5 C 295.853,198.14 291.853,203.473 287.5,208.5C 287.34,206.801 287.506,205.134 288,203.5C 291.044,202.197 292.211,199.864 291.5,196.5C 294.167,195.167 296.833,193.833 299.5,192.5 Z"/></g>
<g><path style="opacity:1" fill="#4cb98d" d="M 76.5,223.5 C 110.973,224.147 145.307,224.813 179.5,225.5C 173.5,225.5 167.5,225.5 161.5,225.5C 136.814,225.195 112.147,225.528 87.5,226.5C 83.4939,226.235 79.8273,225.235 76.5,223.5 Z"/></g>
<g><path style="opacity:0.02" fill="#356b69" d="M 161.5,225.5 C 167.5,225.5 173.5,225.5 179.5,225.5C 179.5,226.833 179.5,228.167 179.5,229.5C 179.167,229.5 178.833,229.5 178.5,229.5C 178.5,228.5 178.5,227.5 178.5,226.5C 172.642,226.822 166.975,226.489 161.5,225.5 Z"/></g>
<g><path style="opacity:1" fill="#29a16b" d="M 273.5,224.5 C 251.67,225.332 229.67,225.832 207.5,226C 202.738,226.345 198.071,227.178 193.5,228.5C 196.183,230.264 199.016,231.931 202,233.5C 203.016,232.366 203.683,232.699 204,234.5C 204.333,234.167 204.667,233.833 205,233.5C 206.167,234.667 207.333,235.833 208.5,237C 212.287,237.16 215.954,237.826 219.5,239C 217.714,239.196 216.381,240.029 215.5,241.5C 222.708,244.075 228.708,247.575 233.5,252C 237.436,253.461 239.936,252.295 241,248.5C 241.667,251.167 242.333,251.167 243,248.5C 243.495,250.473 243.662,252.473 243.5,254.5C 245.766,254.141 247.599,254.808 249,256.5C 249.383,255.944 249.883,255.611 250.5,255.5C 250.5,256.833 250.5,258.167 250.5,259.5C 245.469,266.19 240.469,272.857 235.5,279.5C 236.7,273.375 235.534,267.709 232,262.5C 231.107,263.711 230.274,263.711 229.5,262.5C 230.833,261.167 230.833,259.833 229.5,258.5C 230.025,257.808 230.692,257.308 231.5,257C 229.965,256.504 228.465,256.67 227,257.5C 225.779,256.728 224.779,255.728 224,254.5C 222.951,255.517 221.784,255.684 220.5,255C 219,253.5 217.5,252 216,250.5C 215.586,250.957 215.086,251.291 214.5,251.5C 211.834,248.889 208.834,247.722 205.5,248C 203.606,246.921 203.273,245.587 204.5,244C 202.833,243.667 201.167,243.333 199.5,243C 196.174,240.826 193.341,238.993 191,237.5C 190.05,238.022 189.216,238.689 188.5,239.5C 186.391,238.35 184.391,237.016 182.5,235.5C 181.914,235.709 181.414,236.043 181,236.5C 180.722,235.584 180.222,234.918 179.5,234.5C 179.5,232.833 179.5,231.167 179.5,229.5C 179.5,228.167 179.5,226.833 179.5,225.5C 210.76,224.508 242.093,224.175 273.5,224.5 Z"/></g>
<g><path style="opacity:1" fill="#259662" d="M 276.5,223.5 C 275.737,225.368 274.737,227.035 273.5,228.5C 271.932,227.527 270.265,227.36 268.5,228C 269.308,228.308 269.975,228.808 270.5,229.5C 269.302,229.94 268.135,230.273 267,230.5C 266.383,231.449 266.549,232.282 267.5,233C 266.399,235.966 264.065,238.466 260.5,240.5C 259.691,242.071 259.357,243.738 259.5,245.5C 257.856,245.286 256.356,245.62 255,246.5C 254.52,250.104 253.02,253.104 250.5,255.5C 249.883,255.611 249.383,255.944 249,256.5C 247.599,254.808 245.766,254.141 243.5,254.5C 243.662,252.473 243.495,250.473 243,248.5C 242.333,251.167 241.667,251.167 241,248.5C 239.936,252.295 237.436,253.461 233.5,252C 228.708,247.575 222.708,244.075 215.5,241.5C 216.381,240.029 217.714,239.196 219.5,239C 215.954,237.826 212.287,237.16 208.5,237C 207.333,235.833 206.167,234.667 205,233.5C 204.667,233.833 204.333,234.167 204,234.5C 203.683,232.699 203.016,232.366 202,233.5C 199.016,231.931 196.183,230.264 193.5,228.5C 198.071,227.178 202.738,226.345 207.5,226C 229.67,225.832 251.67,225.332 273.5,224.5C 274.391,223.89 275.391,223.557 276.5,223.5 Z"/></g>
<g><path style="opacity:1" fill="#3b8f70" d="M 273.5,228.5 C 266.065,239.05 258.399,249.383 250.5,259.5C 250.5,258.167 250.5,256.833 250.5,255.5C 253.02,253.104 254.52,250.104 255,246.5C 256.356,245.62 257.856,245.286 259.5,245.5C 259.357,243.738 259.691,242.071 260.5,240.5C 264.065,238.466 266.399,235.966 267.5,233C 266.549,232.282 266.383,231.449 267,230.5C 268.135,230.273 269.302,229.94 270.5,229.5C 269.975,228.808 269.308,228.308 268.5,228C 270.265,227.36 271.932,227.527 273.5,228.5 Z"/></g>
<g><path style="opacity:1" fill="#2faa74" d="M 179.5,234.5 C 180.222,234.918 180.722,235.584 181,236.5C 181.414,236.043 181.914,235.709 182.5,235.5C 184.391,237.016 186.391,238.35 188.5,239.5C 189.216,238.689 190.05,238.022 191,237.5C 193.341,238.993 196.174,240.826 199.5,243C 201.167,243.333 202.833,243.667 204.5,244C 203.273,245.587 203.606,246.921 205.5,248C 208.834,247.722 211.834,248.889 214.5,251.5C 215.086,251.291 215.586,250.957 216,250.5C 217.5,252 219,253.5 220.5,255C 221.784,255.684 222.951,255.517 224,254.5C 224.779,255.728 225.779,256.728 227,257.5C 228.465,256.67 229.965,256.504 231.5,257C 230.692,257.308 230.025,257.808 229.5,258.5C 230.833,259.833 230.833,261.167 229.5,262.5C 230.274,263.711 231.107,263.711 232,262.5C 235.534,267.709 236.7,273.375 235.5,279.5C 227.853,290.473 219.853,301.14 211.5,311.5C 211.62,309.801 211.954,308.135 212.5,306.5C 211.058,303.972 210.558,301.305 211,298.5C 211.329,302.04 213.162,303.206 216.5,302C 211.672,300.248 211.505,298.414 216,296.5C 216.779,299.097 217.279,299.097 217.5,296.5C 219.218,294.636 220.385,292.303 221,289.5C 221.333,290.167 221.667,290.833 222,291.5C 223.066,289.901 224.566,288.901 226.5,288.5C 227.08,286.363 228.08,284.53 229.5,283C 227.899,282.727 226.399,282.227 225,281.5C 224.544,282.744 225.044,283.577 226.5,284C 225.552,284.483 224.552,284.649 223.5,284.5C 223.336,281.813 223.503,279.146 224,276.5C 224.359,279.544 225.026,279.878 226,277.5C 227.193,278.978 227.693,280.312 227.5,281.5C 228.541,279.009 229.374,279.009 230,281.5C 230.667,278.833 231.333,278.833 232,281.5C 233.682,280.135 233.849,278.635 232.5,277C 234.82,275.512 234.987,273.679 233,271.5C 229.679,278.958 227.012,278.958 225,271.5C 223.333,271.833 221.667,272.167 220,272.5C 219.02,270.941 218.187,269.274 217.5,267.5C 216.702,269.078 216.202,270.744 216,272.5C 215.556,269.389 214.223,266.723 212,264.5C 211.667,265.167 211.333,265.833 211,266.5C 210.138,264.913 209.471,263.246 209,261.5C 208.667,261.833 208.333,262.167 208,262.5C 206.623,258.735 205.623,259.068 205,263.5C 203.447,257.011 202.447,257.011 202,263.5C 201.667,262.167 201.333,260.833 201,259.5C 200.577,260.956 199.744,261.456 198.5,261C 198.527,259.474 199.027,257.974 200,256.5C 199.15,257.424 198.15,257.424 197,256.5C 196.055,256.905 195.388,257.572 195,258.5C 192.876,253.604 191.543,253.604 191,258.5C 190.5,258 190,257.5 189.5,257C 189.833,256 190.167,255 190.5,254C 189.747,252.513 188.914,252.346 188,253.5C 187.085,252.672 186.419,251.672 186,250.5C 184.605,251.815 183.605,251.481 183,249.5C 182.667,250.833 182.333,252.167 182,253.5C 181.792,251.141 181.626,248.974 181.5,247C 180.833,246.333 180.167,246.333 179.5,247C 180.554,248.388 180.72,249.888 180,251.5C 179.667,250.5 179.333,249.5 179,248.5C 178.329,249.252 177.496,249.586 176.5,249.5C 176.128,246.978 176.961,244.978 179,243.5C 179.498,240.518 179.665,237.518 179.5,234.5 Z"/></g>
<g><path style="opacity:1" fill="#44a581" d="M 178.5,229.5 C 178.833,229.5 179.167,229.5 179.5,229.5C 179.5,231.167 179.5,232.833 179.5,234.5C 179.665,237.518 179.498,240.518 179,243.5C 176.961,244.978 176.128,246.978 176.5,249.5C 174.669,256.327 173.335,263.327 172.5,270.5C 172.5,272.167 172.5,273.833 172.5,275.5C 171.5,275.5 170.5,275.5 169.5,275.5C 172.011,259.947 175.011,244.614 178.5,229.5 Z"/></g>
<g><path style="opacity:1" fill="#31b478" d="M 217.5,296.5 C 216.069,294.811 215.236,292.811 215,290.5C 214.439,291.022 213.772,291.355 213,291.5C 211.498,289.825 209.998,288.159 208.5,286.5C 206.164,287.594 206.164,288.927 208.5,290.5C 207.902,291.795 207.402,293.128 207,294.5C 206.187,292.564 205.687,290.564 205.5,288.5C 204.127,288.657 202.793,288.49 201.5,288C 202.673,284.89 202.173,284.723 200,287.5C 199.53,285.226 198.53,283.226 197,281.5C 195.284,282.552 194.284,281.886 194,279.5C 193.333,284.833 192.667,284.833 192,279.5C 191,280.167 190,280.833 189,281.5C 188.544,280.256 189.044,279.423 190.5,279C 189.24,277.887 188.073,277.72 187,278.5C 186.383,277.551 186.549,276.718 187.5,276C 185.606,274.921 185.273,273.587 186.5,272C 183.21,271.411 181.71,272.911 182,276.5C 181.257,274.559 181.424,272.726 182.5,271C 182,270.5 181.5,270 181,269.5C 180.479,277.834 179.813,278.167 179,270.5C 178.333,274.5 177.667,274.5 177,270.5C 175.549,270.264 174.049,270.264 172.5,270.5C 173.335,263.327 174.669,256.327 176.5,249.5C 177.496,249.586 178.329,249.252 179,248.5C 179.333,249.5 179.667,250.5 180,251.5C 180.72,249.888 180.554,248.388 179.5,247C 180.167,246.333 180.833,246.333 181.5,247C 181.626,248.974 181.792,251.141 182,253.5C 182.333,252.167 182.667,250.833 183,249.5C 183.605,251.481 184.605,251.815 186,250.5C 186.419,251.672 187.085,252.672 188,253.5C 188.914,252.346 189.747,252.513 190.5,254C 190.167,255 189.833,256 189.5,257C 190,257.5 190.5,258 191,258.5C 191.543,253.604 192.876,253.604 195,258.5C 195.388,257.572 196.055,256.905 197,256.5C 198.15,257.424 199.15,257.424 200,256.5C 199.027,257.974 198.527,259.474 198.5,261C 199.744,261.456 200.577,260.956 201,259.5C 201.333,260.833 201.667,262.167 202,263.5C 202.447,257.011 203.447,257.011 205,263.5C 205.623,259.068 206.623,258.735 208,262.5C 208.333,262.167 208.667,261.833 209,261.5C 209.471,263.246 210.138,264.913 211,266.5C 211.333,265.833 211.667,265.167 212,264.5C 214.223,266.723 215.556,269.389 216,272.5C 216.202,270.744 216.702,269.078 217.5,267.5C 218.187,269.274 219.02,270.941 220,272.5C 221.667,272.167 223.333,271.833 225,271.5C 227.012,278.958 229.679,278.958 233,271.5C 234.987,273.679 234.82,275.512 232.5,277C 233.849,278.635 233.682,280.135 232,281.5C 231.333,278.833 230.667,278.833 230,281.5C 229.374,279.009 228.541,279.009 227.5,281.5C 227.693,280.312 227.193,278.978 226,277.5C 225.026,279.878 224.359,279.544 224,276.5C 223.503,279.146 223.336,281.813 223.5,284.5C 224.552,284.649 225.552,284.483 226.5,284C 225.044,283.577 224.544,282.744 225,281.5C 226.399,282.227 227.899,282.727 229.5,283C 228.08,284.53 227.08,286.363 226.5,288.5C 224.566,288.901 223.066,289.901 222,291.5C 221.667,290.833 221.333,290.167 221,289.5C 220.385,292.303 219.218,294.636 217.5,296.5 Z"/></g>
<g><path style="opacity:1" fill="#35be82" d="M 217.5,296.5 C 217.279,299.097 216.779,299.097 216,296.5C 211.505,298.414 211.672,300.248 216.5,302C 213.162,303.206 211.329,302.04 211,298.5C 210.558,301.305 211.058,303.972 212.5,306.5C 211.954,308.135 211.62,309.801 211.5,311.5C 210.25,311.423 209.417,310.756 209,309.5C 208.601,309.728 208.435,310.062 208.5,310.5C 207.206,309.71 206.039,308.71 205,307.5C 204.667,308.167 204.333,308.833 204,309.5C 201.989,305.998 200.656,305.998 200,309.5C 198.575,308.788 197.075,308.621 195.5,309C 196.623,307.956 197.956,307.29 199.5,307C 198.729,305.002 199.395,303.335 201.5,302C 199.806,300.272 198.639,300.772 198,303.5C 197.333,299.5 196.667,299.5 196,303.5C 195.333,300.833 194.667,300.833 194,303.5C 193.072,300.965 191.238,299.965 188.5,300.5C 188.5,298.833 188.5,297.167 188.5,295.5C 183.786,295.827 179.12,295.493 174.5,294.5C 173.926,291.823 173.259,289.157 172.5,286.5C 171.522,286.977 170.689,287.643 170,288.5C 169.722,287.584 169.222,286.918 168.5,286.5C 169.324,283.236 169.658,279.902 169.5,276.5C 169.5,276.167 169.5,275.833 169.5,275.5C 170.5,275.5 171.5,275.5 172.5,275.5C 172.5,273.833 172.5,272.167 172.5,270.5C 174.049,270.264 175.549,270.264 177,270.5C 177.667,274.5 178.333,274.5 179,270.5C 179.813,278.167 180.479,277.834 181,269.5C 181.5,270 182,270.5 182.5,271C 181.424,272.726 181.257,274.559 182,276.5C 181.71,272.911 183.21,271.411 186.5,272C 185.273,273.587 185.606,274.921 187.5,276C 186.549,276.718 186.383,277.551 187,278.5C 188.073,277.72 189.24,277.887 190.5,279C 189.044,279.423 188.544,280.256 189,281.5C 190,280.833 191,280.167 192,279.5C 192.667,284.833 193.333,284.833 194,279.5C 194.284,281.886 195.284,282.552 197,281.5C 198.53,283.226 199.53,285.226 200,287.5C 202.173,284.723 202.673,284.89 201.5,288C 202.793,288.49 204.127,288.657 205.5,288.5C 205.687,290.564 206.187,292.564 207,294.5C 207.402,293.128 207.902,291.795 208.5,290.5C 206.164,288.927 206.164,287.594 208.5,286.5C 209.998,288.159 211.498,289.825 213,291.5C 213.772,291.355 214.439,291.022 215,290.5C 215.236,292.811 216.069,294.811 217.5,296.5 Z"/></g>
<g><path style="opacity:1" fill="#46a985" d="M 169.5,276.5 C 169.658,279.902 169.324,283.236 168.5,286.5C 168.665,289.85 168.498,293.183 168,296.5C 165.667,306.789 163.333,317.122 161,327.5C 160.502,330.817 160.335,334.15 160.5,337.5C 159.5,337.5 158.5,337.5 157.5,337.5C 161.01,316.951 165.01,296.618 169.5,276.5 Z"/></g>
<g><path style="opacity:1" fill="#3bca8a" d="M 168.5,286.5 C 169.222,286.918 169.722,287.584 170,288.5C 170.689,287.643 171.522,286.977 172.5,286.5C 173.259,289.157 173.926,291.823 174.5,294.5C 179.12,295.493 183.786,295.827 188.5,295.5C 188.5,297.167 188.5,298.833 188.5,300.5C 191.238,299.965 193.072,300.965 194,303.5C 194.667,300.833 195.333,300.833 196,303.5C 196.667,299.5 197.333,299.5 198,303.5C 198.639,300.772 199.806,300.272 201.5,302C 199.395,303.335 198.729,305.002 199.5,307C 197.956,307.29 196.623,307.956 195.5,309C 197.075,308.621 198.575,308.788 200,309.5C 200.656,305.998 201.989,305.998 204,309.5C 204.333,308.833 204.667,308.167 205,307.5C 206.039,308.71 207.206,309.71 208.5,310.5C 205.374,313.872 203.207,317.872 202,322.5C 201.667,322.167 201.333,321.833 201,321.5C 199.718,325.442 197.385,328.442 194,330.5C 193.506,332.134 193.34,333.801 193.5,335.5C 192.214,338.117 190.547,340.45 188.5,342.5C 184.811,343.862 182.478,346.529 181.5,350.5C 179.167,352.167 177.167,354.167 175.5,356.5C 171.878,357.659 168.211,357.825 164.5,357C 162.248,354.898 159.915,353.064 157.5,351.5C 157.5,351.167 157.5,350.833 157.5,350.5C 157.5,346.833 157.5,343.167 157.5,339.5C 157.5,338.833 157.5,338.167 157.5,337.5C 158.5,337.5 159.5,337.5 160.5,337.5C 160.335,334.15 160.502,330.817 161,327.5C 163.333,317.122 165.667,306.789 168,296.5C 168.498,293.183 168.665,289.85 168.5,286.5 Z"/></g>
<g><path style="opacity:1" fill="#46b087" d="M 211.5,311.5 C 205.975,319.896 199.975,327.896 193.5,335.5C 193.34,333.801 193.506,332.134 194,330.5C 197.385,328.442 199.718,325.442 201,321.5C 201.333,321.833 201.667,322.167 202,322.5C 203.207,317.872 205.374,313.872 208.5,310.5C 208.435,310.062 208.601,309.728 209,309.5C 209.417,310.756 210.25,311.423 211.5,311.5 Z"/></g>
<g><path style="opacity:1" fill="#4d997e" d="M 157.5,339.5 C 157.5,343.167 157.5,346.833 157.5,350.5C 156.007,349.688 155.34,348.355 155.5,346.5C 155.724,343.92 156.391,341.586 157.5,339.5 Z"/></g>
<g><path style="opacity:1" fill="#4aa485" d="M 188.5,342.5 C 185.113,348.088 181.113,353.255 176.5,358C 168.113,361.461 161.78,359.294 157.5,351.5C 159.915,353.064 162.248,354.898 164.5,357C 168.211,357.825 171.878,357.659 175.5,356.5C 177.167,354.167 179.167,352.167 181.5,350.5C 182.478,346.529 184.811,343.862 188.5,342.5 Z"/></g>
</svg>
