<?xml version="1.0" encoding="UTF-8"?>
<!DOCTYPE svg PUBLIC "-//W3C//DTD SVG 1.1//EN" "http://www.w3.org/Graphics/SVG/1.1/DTD/svg11.dtd">
<svg xmlns="http://www.w3.org/2000/svg" version="1.1" width="550px" height="454px" style="shape-rendering:geometricPrecision; text-rendering:geometricPrecision; image-rendering:optimizeQuality; fill-rule:evenodd; clip-rule:evenodd" xmlns:xlink="http://www.w3.org/1999/xlink">
<g><path style="opacity:0.948" fill="#f1f1f1" d="M 416.5,130.5 C 412.5,130.5 408.5,130.5 404.5,130.5C 404.5,134.833 404.5,139.167 404.5,143.5C 403.834,138.983 403.167,134.317 402.5,129.5C 401.707,129.069 400.873,128.735 400,128.5C 397.57,129.786 395.07,130.786 392.5,131.5C 389.188,130.621 385.855,130.454 382.5,131C 381.743,133.944 381.077,136.944 380.5,140C 380.846,142.214 382.012,143.714 384,144.5C 387.37,143.213 390.703,142.88 394,143.5C 396.541,147.031 395.875,149.364 392,150.5C 388.542,149.714 385.042,149.38 381.5,149.5C 380.417,156.088 380.417,162.422 381.5,168.5C 381.5,168.833 381.5,169.167 381.5,169.5C 380.515,173.634 380.182,177.968 380.5,182.5C 379.732,181.737 379.232,180.737 379,179.5C 378.626,180.416 378.126,181.25 377.5,182C 375.385,182.557 373.385,183.391 371.5,184.5C 370.672,179.868 370.172,175.202 370,170.5C 366.256,169.374 362.423,169.207 358.5,170C 357.695,174.749 357.195,179.582 357,184.5C 356.692,185.308 356.192,185.975 355.5,186.5C 353.465,187.041 351.465,187.708 349.5,188.5C 348.863,193.195 348.03,197.862 347,202.5C 342.191,204.032 337.524,203.699 333,201.5C 332.667,200.167 332.333,198.833 332,197.5C 332.314,193.79 332.147,190.124 331.5,186.5C 324.313,185.306 317.147,184.306 310,183.5C 307.333,177.726 307.5,171.893 310.5,166C 310.257,165.098 309.923,164.265 309.5,163.5C 309.833,163.5 310.167,163.5 310.5,163.5C 314.833,163.5 319.167,163.5 323.5,163.5C 322.031,165.105 322.365,165.605 324.5,165C 326.091,162.244 328.424,160.411 331.5,159.5C 332.845,160.347 333.845,161.513 334.5,163C 338.167,163.667 341.833,163.667 345.5,163C 346,162.5 346.5,162 347,161.5C 347.205,156.23 347.372,151.064 347.5,146C 342.981,145.825 338.647,145.325 334.5,144.5C 338.767,144.797 342.934,144.464 347,143.5C 347.499,139.179 347.666,134.846 347.5,130.5C 342.833,130.5 338.167,130.5 333.5,130.5C 337.647,129.675 341.981,129.175 346.5,129C 345.833,128.667 345.167,128.333 344.5,128C 335.324,128.427 326.157,128.26 317,127.5C 311.645,128.006 306.645,129.673 302,132.5C 301.87,136.951 301.204,141.284 300,145.5C 297.214,147.656 294.214,147.99 291,146.5C 289.5,147 288,147.5 286.5,148C 291.606,147.886 296.273,148.72 300.5,150.5C 295.93,149.559 291.263,149.226 286.5,149.5C 286.5,154.167 286.5,158.833 286.5,163.5C 285.674,158.684 285.174,153.684 285,148.5C 283.601,149.227 282.101,149.727 280.5,150C 279.629,154.448 278.796,158.948 278,163.5C 277.167,164.333 276.333,165.167 275.5,166C 276.416,166.278 277.082,166.778 277.5,167.5C 272.167,167.5 266.833,167.5 261.5,167.5C 261.918,166.778 262.584,166.278 263.5,166C 261.47,164.104 259.803,161.937 258.5,159.5C 257.019,160.48 255.685,161.647 254.5,163C 248.833,164 243.167,165 237.5,166C 240.036,166.186 242.369,166.686 244.5,167.5C 239.167,167.5 233.833,167.5 228.5,167.5C 234.067,158.704 238.9,149.371 243,139.5C 245.665,138.526 245.831,137.859 243.5,137.5C 245.555,136.441 246.889,134.775 247.5,132.5C 249.777,128.471 249.777,124.471 247.5,120.5C 249.34,118.341 250.507,115.675 251,112.5C 253.334,98.8318 255.667,85.1652 258,71.5C 259.876,61.8989 265.042,54.7322 273.5,50C 294.933,37.1513 316.933,36.1513 339.5,47C 350.022,52.0898 359.688,58.4232 368.5,66C 387.044,83.1961 402.544,102.696 415,124.5C 415.684,125.784 415.517,126.951 414.5,128C 411.5,128.333 408.5,128.667 405.5,129C 409.356,129.177 413.023,129.677 416.5,130.5 Z M 265.5,130.5 C 269.119,131.244 272.785,131.577 276.5,131.5C 276.666,135.514 276.499,139.514 276,143.5C 273.925,144.134 271.759,144.468 269.5,144.5C 267.036,144.41 264.87,143.743 263,142.5C 262.333,139.5 262.333,136.5 263,133.5C 263.698,132.309 264.531,131.309 265.5,130.5 Z M 360.5,130.5 C 370.012,129.193 373.179,133.193 370,142.5C 366.817,144.523 363.317,145.023 359.5,144C 357.496,141.159 356.996,137.993 358,134.5C 358.48,132.867 359.313,131.534 360.5,130.5 Z M 358.5,149.5 C 362.182,149.335 365.848,149.501 369.5,150C 370.833,154 370.833,158 369.5,162C 365.514,162.499 361.514,162.666 357.5,162.5C 357.231,158.069 357.564,153.735 358.5,149.5 Z M 261.5,167.5 C 255.833,167.5 250.167,167.5 244.5,167.5C 242.369,166.686 240.036,166.186 237.5,166C 243.167,165 248.833,164 254.5,163C 255.685,161.647 257.019,160.48 258.5,159.5C 259.803,161.937 261.47,164.104 263.5,166C 262.584,166.278 261.918,166.778 261.5,167.5 Z M 335.5,168.5 C 339.172,169.021 342.838,169.687 346.5,170.5C 347.806,174.365 347.806,178.198 346.5,182C 342.245,182.796 338.079,182.629 334,181.5C 332.978,176.871 333.478,172.538 335.5,168.5 Z"/></g>
<g><path style="opacity:1" fill="#f44c14" d="M 234.5,100.5 C 234.427,102.027 235.094,103.027 236.5,103.5C 238.262,104.262 239.262,105.596 239.5,107.5C 239.427,109.027 240.094,110.027 241.5,110.5C 242.377,112.728 243.71,114.728 245.5,116.5C 246.073,121.847 246.74,127.18 247.5,132.5C 246.889,134.775 245.555,136.441 243.5,137.5C 241.716,138.72 240.05,138.72 238.5,137.5C 238.5,137.167 238.5,136.833 238.5,136.5C 237.701,133.57 237.368,130.57 237.5,127.5C 237.232,125.901 237.566,124.568 238.5,123.5C 239.757,122.624 239.757,120.957 238.5,118.5C 237.614,119.325 237.281,120.325 237.5,121.5C 237.167,121.5 236.833,121.5 236.5,121.5C 236.5,119.167 236.5,116.833 236.5,114.5C 238.028,114.483 238.528,113.816 238,112.5C 229.339,102.084 218.173,96.2512 204.5,95C 207.693,93.9745 209.026,91.8078 208.5,88.5C 218.699,89.2671 227.365,93.2671 234.5,100.5 Z"/></g>
<g><path style="opacity:1" fill="#f95119" d="M 167.5,127.5 C 166.167,128.167 166.167,128.833 167.5,129.5C 167.232,131.099 167.566,132.432 168.5,133.5C 168.5,134.833 168.5,136.167 168.5,137.5C 168.328,138.492 168.662,139.158 169.5,139.5C 169.328,140.492 169.662,141.158 170.5,141.5C 170.784,143.877 170.784,146.044 170.5,148C 167.054,149.934 164.054,149.434 161.5,146.5C 160.478,141.303 159.145,136.303 157.5,131.5C 157.328,130.508 157.662,129.842 158.5,129.5C 160.28,128.01 160.946,126.01 160.5,123.5C 160.368,120.43 160.701,117.43 161.5,114.5C 164.416,107.074 169.083,100.907 175.5,96C 178.414,96.8289 181.414,97.8289 184.5,99C 177.269,101.352 171.436,105.518 167,111.5C 163.719,115.762 162.885,120.429 164.5,125.5C 165.739,125.942 166.739,126.609 167.5,127.5 Z"/></g>
<g><path style="opacity:1" fill="#393547" d="M 234.5,100.5 C 227.365,93.2671 218.699,89.2671 208.5,88.5C 209.026,91.8078 207.693,93.9745 204.5,95C 218.173,96.2512 229.339,102.084 238,112.5C 238.528,113.816 238.028,114.483 236.5,114.5C 235.5,114.833 234.833,115.5 234.5,116.5C 234.927,120.824 235.261,125.158 235.5,129.5C 235.631,130.239 235.464,130.906 235,131.5C 234.667,130.5 234.333,129.5 234,128.5C 233.119,122.133 232.119,115.8 231,109.5C 228.032,106.398 224.366,105.065 220,105.5C 206.852,107.745 193.685,109.912 180.5,112C 173.088,115.999 169.088,122.165 168.5,130.5C 168.5,129.833 168.167,129.5 167.5,129.5C 167.5,128.833 167.5,128.167 167.5,127.5C 166.739,126.609 165.739,125.942 164.5,125.5C 162.885,120.429 163.719,115.762 167,111.5C 171.436,105.518 177.269,101.352 184.5,99C 181.414,97.8289 178.414,96.8289 175.5,96C 169.083,100.907 164.416,107.074 161.5,114.5C 161.434,107.227 162.768,100.227 165.5,93.5C 167.882,91.9293 170.549,91.096 173.5,91C 175.126,88.3723 177.126,86.039 179.5,84C 185.704,82.1134 191.704,79.7801 197.5,77C 201.905,76.3041 206.239,76.6374 210.5,78C 217.101,81.7971 224.101,84.7971 231.5,87C 235.336,90.843 236.336,95.343 234.5,100.5 Z"/></g>
<g><path style="opacity:0.925" fill="#ffb090" d="M 234.5,100.5 C 235.906,100.973 236.573,101.973 236.5,103.5C 235.094,103.027 234.427,102.027 234.5,100.5 Z"/></g>
<g><path style="opacity:1" fill="#fdb6b6" d="M 235.5,129.5 C 235.98,132.078 236.98,134.412 238.5,136.5C 238.5,136.833 238.5,137.167 238.5,137.5C 237.624,137.369 236.957,137.702 236.5,138.5C 227.873,158.481 212.873,166.314 191.5,162C 181.265,158.263 174.265,151.429 170.5,141.5C 170.754,139.599 170.42,138.933 169.5,139.5C 168.662,139.158 168.328,138.492 168.5,137.5C 169.833,136.167 169.833,134.833 168.5,133.5C 168.5,132.5 168.5,131.5 168.5,130.5C 169.088,122.165 173.088,115.999 180.5,112C 193.685,109.912 206.852,107.745 220,105.5C 224.366,105.065 228.032,106.398 231,109.5C 232.119,115.8 233.119,122.133 234,128.5C 234.333,129.5 234.667,130.5 235,131.5C 235.464,130.906 235.631,130.239 235.5,129.5 Z"/></g>
<g><path style="opacity:0.686" fill="#a88a87" d="M 239.5,107.5 C 240.906,107.973 241.573,108.973 241.5,110.5C 240.094,110.027 239.427,109.027 239.5,107.5 Z"/></g>
<g><path style="opacity:0.008" fill="#fedacd" d="M 236.5,114.5 C 236.5,116.833 236.5,119.167 236.5,121.5C 235.833,119.833 235.167,118.167 234.5,116.5C 234.833,115.5 235.5,114.833 236.5,114.5 Z"/></g>
<g><path style="opacity:1" fill="#453d53" d="M 238.5,123.5 C 238.167,122.833 237.833,122.167 237.5,121.5C 237.281,120.325 237.614,119.325 238.5,118.5C 239.757,120.957 239.757,122.624 238.5,123.5 Z"/></g>
<g><path style="opacity:1" fill="#4e485e" d="M 245.5,116.5 C 247.104,117.287 247.771,118.62 247.5,120.5C 249.777,124.471 249.777,128.471 247.5,132.5C 246.74,127.18 246.073,121.847 245.5,116.5 Z"/></g>
<g><path style="opacity:0.376" fill="#f9b49b" d="M 236.5,121.5 C 236.833,121.5 237.167,121.5 237.5,121.5C 237.833,122.167 238.167,122.833 238.5,123.5C 237.566,124.568 237.232,125.901 237.5,127.5C 236.539,125.735 236.205,123.735 236.5,121.5 Z"/></g>
<g><path style="opacity:0.165" fill="#ffd3c2" d="M 160.5,123.5 C 160.946,126.01 160.28,128.01 158.5,129.5C 158.875,127.302 159.542,125.302 160.5,123.5 Z"/></g>
<g><path style="opacity:1" fill="#583e4c" d="M 239.5,126.5 C 240.993,127.312 241.66,128.645 241.5,130.5C 241.167,131.5 240.833,132.5 240.5,133.5C 239.526,131.257 239.192,128.924 239.5,126.5 Z"/></g>
<g><path style="opacity:0.988" fill="#e8e8e8" d="M 452.5,129.5 C 456.871,129.875 461.204,130.541 465.5,131.5C 465.724,135.712 465.724,140.046 465.5,144.5C 450.581,148.259 446.248,143.259 452.5,129.5 Z"/></g>
<g><path style="opacity:1" fill="#ff551b" d="M 323.5,130.5 C 323.5,134.833 323.5,139.167 323.5,143.5C 319.167,143.5 314.833,143.5 310.5,143.5C 310.5,139.167 310.5,134.833 310.5,130.5C 314.833,129.167 319.167,129.167 323.5,130.5 Z"/></g>
<g><path style="opacity:1" fill="#ff541a" d="M 333.5,130.5 C 338.167,130.5 342.833,130.5 347.5,130.5C 347.666,134.846 347.499,139.179 347,143.5C 342.934,144.464 338.767,144.797 334.5,144.5C 333.195,142.603 332.529,140.269 332.5,137.5C 332.503,134.975 332.837,132.641 333.5,130.5 Z"/></g>
<g><path style="opacity:1" fill="#ff5a21" d="M 416.5,130.5 C 418.344,132.279 419.01,134.612 418.5,137.5C 418.702,139.95 418.369,142.283 417.5,144.5C 414.62,144.463 411.62,144.796 408.5,145.5C 406.667,145.415 405.334,144.748 404.5,143.5C 404.5,139.167 404.5,134.833 404.5,130.5C 408.5,130.5 412.5,130.5 416.5,130.5 Z"/></g>
<g><path style="opacity:1" fill="#ff5116" d="M 428.5,130.5 C 432.846,130.334 437.179,130.501 441.5,131C 442.659,135.119 442.659,139.286 441.5,143.5C 437.167,143.5 432.833,143.5 428.5,143.5C 428.5,139.167 428.5,134.833 428.5,130.5 Z"/></g>
<g><path style="opacity:1" fill="#6b5968" d="M 157.5,131.5 C 159.145,136.303 160.478,141.303 161.5,146.5C 159.871,145.375 158.371,144.041 157,142.5C 156.19,138.642 156.357,134.976 157.5,131.5 Z"/></g>
<g><path style="opacity:0.979" fill="#583e4c" d="M 161.5,134.5 C 164.428,136.124 165.095,138.457 163.5,141.5C 162.056,139.392 161.39,137.059 161.5,134.5 Z"/></g>
<g><path style="opacity:0.018" fill="#f2eeed" d="M 418.5,137.5 C 419.152,138.449 419.486,139.615 419.5,141C 419.392,142.681 418.725,143.848 417.5,144.5C 418.369,142.283 418.702,139.95 418.5,137.5 Z"/></g>
<g><path style="opacity:0.925" fill="#ffb294" d="M 310.5,130.5 C 310.5,134.833 310.5,139.167 310.5,143.5C 314.833,143.5 319.167,143.5 323.5,143.5C 323.5,139.167 323.5,134.833 323.5,130.5C 324.648,134.981 324.815,139.648 324,144.5C 309.607,148.944 305.107,144.277 310.5,130.5 Z"/></g>
<g><path style="opacity:0.879" fill="#ff7b4a" d="M 428.5,130.5 C 428.5,134.833 428.5,139.167 428.5,143.5C 432.833,143.5 437.167,143.5 441.5,143.5C 437.03,144.486 432.363,144.819 427.5,144.5C 427.181,139.637 427.514,134.97 428.5,130.5 Z"/></g>
<g><path style="opacity:0.027" fill="#f2eeed" d="M 404.5,149.5 C 406.641,148.837 408.975,148.503 411.5,148.5C 414.269,148.529 416.603,149.195 418.5,150.5C 418.167,150.5 417.833,150.5 417.5,150.5C 413.366,149.515 409.032,149.182 404.5,149.5 Z"/></g>
<g><path style="opacity:1" fill="#ff5f28" d="M 300.5,150.5 C 301.823,154.9 301.823,159.4 300.5,164C 295.648,164.815 290.981,164.648 286.5,163.5C 286.5,158.833 286.5,154.167 286.5,149.5C 291.263,149.226 295.93,149.559 300.5,150.5 Z"/></g>
<g><path style="opacity:1" fill="#ff5f28" d="M 323.5,163.5 C 319.167,163.5 314.833,163.5 310.5,163.5C 310.5,158.833 310.5,154.167 310.5,149.5C 314.9,148.177 319.4,148.177 324,149.5C 324.815,154.352 324.648,159.019 323.5,163.5 Z"/></g>
<g><path style="opacity:1" fill="#ff5319" d="M 404.5,149.5 C 409.032,149.182 413.366,149.515 417.5,150.5C 417.5,154.833 417.5,159.167 417.5,163.5C 413.167,163.5 408.833,163.5 404.5,163.5C 403.167,158.833 403.167,154.167 404.5,149.5 Z"/></g>
<g><path style="opacity:1" fill="#ff5d26" d="M 441.5,163.5 C 436.833,163.5 432.167,163.5 427.5,163.5C 426.398,159.253 426.232,154.92 427,150.5C 432,149.167 437,149.167 442,150.5C 442.281,154.8 442.115,159.134 441.5,163.5 Z"/></g>
<g><path style="opacity:1" fill="#ff5b23" d="M 450.5,149.5 C 455.5,149.5 460.5,149.5 465.5,149.5C 465.5,154.5 465.5,159.5 465.5,164.5C 460.821,164.666 456.155,164.499 451.5,164C 450.531,159.263 450.197,154.43 450.5,149.5 Z"/></g>
<g><path style="opacity:0.979" fill="#eaeaea" d="M 477.5,129.5 C 480.147,130.824 482.814,130.824 485.5,129.5C 487.029,129.529 488.196,130.196 489,131.5C 489.667,135.833 489.667,140.167 489,144.5C 475.463,145.842 475.297,147.508 488.5,149.5C 489.812,154.364 489.812,159.197 488.5,164C 485.11,164.246 481.777,164.746 478.5,165.5C 477.252,164.96 476.085,164.293 475,163.5C 473.967,157.766 474.467,152.266 476.5,147C 473.359,141.844 472.693,136.344 474.5,130.5C 475.791,130.737 476.791,130.404 477.5,129.5 Z"/></g>
<g><path style="opacity:0.681" fill="#fb946e" d="M 417.5,150.5 C 417.833,150.5 418.167,150.5 418.5,150.5C 418.804,151.15 419.137,151.817 419.5,152.5C 418.896,156.303 418.23,159.969 417.5,163.5C 417.5,159.167 417.5,154.833 417.5,150.5 Z"/></g>
<g><path style="opacity:0.68" fill="#fdab8d" d="M 310.5,149.5 C 310.5,154.167 310.5,158.833 310.5,163.5C 310.167,163.5 309.833,163.5 309.5,163.5C 308.899,161.422 308.566,159.255 308.5,157C 308.3,154.134 308.967,151.634 310.5,149.5 Z"/></g>
<g><path style="opacity:0.125" fill="#f3f3f3" d="M 393.5,168.5 C 391.167,168.5 388.833,168.5 386.5,168.5C 388.042,167.837 389.709,167.17 391.5,166.5C 391.291,165.914 390.957,165.414 390.5,165C 392.375,162.057 393.875,158.89 395,155.5C 398.341,160.162 397.507,163.995 392.5,167C 393.056,167.383 393.389,167.883 393.5,168.5 Z"/></g>
<g><path style="opacity:1" fill="#3f3d56" d="M 290.5,167.5 C 290.833,168.167 291.167,168.833 291.5,169.5C 291.5,173.833 291.5,178.167 291.5,182.5C 291.5,184.167 291.5,185.833 291.5,187.5C 291.5,187.833 291.5,188.167 291.5,188.5C 291.5,189.167 291.5,189.833 291.5,190.5C 291.667,220.502 291.5,250.502 291,280.5C 290.5,281 290,281.5 289.5,282C 268.169,282.5 246.836,282.667 225.5,282.5C 225.5,286.167 225.5,289.833 225.5,293.5C 225.5,297.833 225.5,302.167 225.5,306.5C 234.833,306.5 244.167,306.5 253.5,306.5C 312.833,306.5 372.167,306.5 431.5,306.5C 423.388,325.745 412.055,342.745 397.5,357.5C 379.167,357.5 360.833,357.5 342.5,357.5C 342.825,350.313 342.491,343.313 341.5,336.5C 340.512,335.205 339.512,333.872 338.5,332.5C 337.791,331.596 336.791,331.263 335.5,331.5C 259.002,330.501 182.335,330.167 105.5,330.5C 97.499,323.498 90.1656,315.832 83.5,307.5C 112.329,306.502 141.329,306.169 170.5,306.5C 176.167,306.5 181.833,306.5 187.5,306.5C 187.5,301.167 187.5,295.833 187.5,290.5C 187.5,287.833 187.5,285.167 187.5,282.5C 165.831,282.667 144.164,282.5 122.5,282C 122,281.5 121.5,281 121,280.5C 120.5,252.835 120.333,225.169 120.5,197.5C 120.181,187.584 120.514,177.75 121.5,168C 157.165,167.5 192.832,167.333 228.5,167.5C 233.833,167.5 239.167,167.5 244.5,167.5C 250.167,167.5 255.833,167.5 261.5,167.5C 266.833,167.5 272.167,167.5 277.5,167.5C 281.833,166.167 286.167,166.167 290.5,167.5 Z"/></g>
<g><path style="opacity:1" fill="#fb4401" d="M 291.5,169.5 C 294.167,169.5 296.833,169.5 299.5,169.5C 299.5,173.833 299.5,178.167 299.5,182.5C 296.833,182.5 294.167,182.5 291.5,182.5C 291.5,178.167 291.5,173.833 291.5,169.5 Z"/></g>
<g><path style="opacity:1" fill="#fe4500" d="M 381.5,169.5 C 385.5,169.5 389.5,169.5 393.5,169.5C 393.5,173.833 393.5,178.167 393.5,182.5C 389.167,182.5 384.833,182.5 380.5,182.5C 380.182,177.968 380.515,173.634 381.5,169.5 Z"/></g>
<g><path style="opacity:0.957" fill="#f1f1f1" d="M 404.5,163.5 C 408.833,163.5 413.167,163.5 417.5,163.5C 417.082,164.222 416.416,164.722 415.5,165C 416.787,166.41 417.954,167.91 419,169.5C 419.667,174.5 419.667,179.5 419,184.5C 418.167,185.333 417.333,186.167 416.5,187C 412.579,187.203 408.745,187.703 405,188.5C 404.919,193.187 404.085,197.687 402.5,202C 400.765,202.651 399.098,202.485 397.5,201.5C 394.833,203.167 392.167,204.833 389.5,206.5C 386.897,205.438 384.23,205.272 381.5,206C 380.533,210.401 380.2,214.901 380.5,219.5C 387.945,218.62 394.945,219.787 401.5,223C 410.008,223.871 418.341,223.038 426.5,220.5C 426.183,216.298 426.517,212.298 427.5,208.5C 427.183,212.702 427.517,216.702 428.5,220.5C 432.833,220.5 437.167,220.5 441.5,220.5C 441.5,216.167 441.5,211.833 441.5,207.5C 442.485,211.634 442.818,215.968 442.5,220.5C 443.822,220.33 444.989,220.663 446,221.5C 448.451,251.198 443.618,279.531 431.5,306.5C 412.674,305.503 393.674,305.17 374.5,305.5C 374.047,304.542 373.381,303.708 372.5,303C 366.568,300.691 360.734,298.191 355,295.5C 354.015,293.634 353.515,291.634 353.5,289.5C 356.493,276.134 352.993,264.801 343,255.5C 339.386,248.75 338.72,241.75 341,234.5C 345.635,230.019 350.635,226.019 356,222.5C 356.333,217.5 356.667,212.5 357,207.5C 357.707,205.919 358.54,204.419 359.5,203C 358.584,202.722 357.918,202.222 357.5,201.5C 361.833,201.5 366.167,201.5 370.5,201.5C 369.048,202.302 367.382,202.802 365.5,203C 369.783,204.72 372.283,207.887 373,212.5C 374.961,209.537 377.294,206.871 380,204.5C 379.002,198.132 379.335,191.799 381,185.5C 381.75,184.874 382.584,184.374 383.5,184C 382.263,183.768 381.263,183.268 380.5,182.5C 384.833,182.5 389.167,182.5 393.5,182.5C 392.357,184.101 393.024,184.767 395.5,184.5C 397.973,184.299 400.306,183.632 402.5,182.5C 403.172,176.78 404.172,171.113 405.5,165.5C 405.137,164.817 404.804,164.15 404.5,163.5 Z"/></g>
<g><path style="opacity:0.99" fill="#ebeaea" d="M 427.5,163.5 C 432.167,163.5 436.833,163.5 441.5,163.5C 440.909,164.151 440.243,164.818 439.5,165.5C 443.439,171.862 443.439,178.195 439.5,184.5C 438.271,185.281 436.938,185.781 435.5,186C 437.058,186.21 438.391,186.71 439.5,187.5C 435.833,187.5 432.167,187.5 428.5,187.5C 429.512,185.9 429.012,184.566 427,183.5C 424.643,177.059 425.143,170.892 428.5,165C 427.944,164.617 427.611,164.117 427.5,163.5 Z"/></g>
<g><path style="opacity:1" fill="#ff6029" d="M 451.5,168.5 C 456.167,168.5 460.833,168.5 465.5,168.5C 465.666,173.179 465.499,177.845 465,182.5C 460.333,183.833 455.667,183.833 451,182.5C 450.227,177.748 450.393,173.081 451.5,168.5 Z"/></g>
<g><path style="opacity:1" fill="#ff6530" d="M 475.5,168.5 C 480.099,168.2 484.599,168.533 489,169.5C 489.799,174.087 489.632,178.587 488.5,183C 483.913,183.799 479.413,183.632 475,182.5C 474.227,177.748 474.393,173.081 475.5,168.5 Z"/></g>
<g><path style="opacity:0.845" fill="#ffaf91" d="M 290.5,167.5 C 294.257,167.071 297.757,167.737 301,169.5C 301.814,174.02 301.647,178.354 300.5,182.5C 300.167,182.5 299.833,182.5 299.5,182.5C 299.5,178.167 299.5,173.833 299.5,169.5C 296.833,169.5 294.167,169.5 291.5,169.5C 291.167,168.833 290.833,168.167 290.5,167.5 Z"/></g>
<g><path style="opacity:0.856" fill="#fe9a74" d="M 381.5,169.5 C 381.5,169.167 381.5,168.833 381.5,168.5C 383.167,168.5 384.833,168.5 386.5,168.5C 388.833,168.5 391.167,168.5 393.5,168.5C 394.434,169.772 395.101,171.272 395.5,173C 395.163,175.747 394.996,178.58 395,181.5C 394.617,182.056 394.117,182.389 393.5,182.5C 393.5,178.167 393.5,173.833 393.5,169.5C 389.5,169.5 385.5,169.5 381.5,169.5 Z"/></g>
<g><path style="opacity:0.022" fill="#ede2df" d="M 291.5,182.5 C 294.167,182.5 296.833,182.5 299.5,182.5C 299.833,182.5 300.167,182.5 300.5,182.5C 298.052,183.473 295.385,183.806 292.5,183.5C 292.5,184.5 292.5,185.5 292.5,186.5C 295.059,186.198 297.393,186.532 299.5,187.5C 296.833,187.5 294.167,187.5 291.5,187.5C 291.5,185.833 291.5,184.167 291.5,182.5 Z"/></g>
<g><path style="opacity:1" fill="#fc4806" d="M 291.5,188.5 C 294.167,188.5 296.833,188.5 299.5,188.5C 299.5,191.167 299.5,193.833 299.5,196.5C 297.116,194.115 294.45,192.115 291.5,190.5C 291.5,189.833 291.5,189.167 291.5,188.5 Z"/></g>
<g><path style="opacity:1" fill="#ff5d26" d="M 323.5,188.5 C 324.647,192.646 324.814,196.98 324,201.5C 319.4,202.823 314.9,202.823 310.5,201.5C 310.5,197.167 310.5,192.833 310.5,188.5C 314.833,188.5 319.167,188.5 323.5,188.5 Z"/></g>
<g><path style="opacity:1" fill="#ff4f13" d="M 357.5,188.5 C 361.833,188.5 366.167,188.5 370.5,188.5C 370.5,192.833 370.5,197.167 370.5,201.5C 366.167,201.5 361.833,201.5 357.5,201.5C 356.167,197.167 356.167,192.833 357.5,188.5 Z"/></g>
<g><path style="opacity:1" fill="#fe4500" d="M 441.5,188.5 C 441.5,190.5 441.5,192.5 441.5,194.5C 441.5,196.833 441.5,199.167 441.5,201.5C 437.167,201.5 432.833,201.5 428.5,201.5C 428.5,197.167 428.5,192.833 428.5,188.5C 432.833,188.5 437.167,188.5 441.5,188.5 Z"/></g>
<g><path style="opacity:1" fill="#ff6029" d="M 451.5,187.5 C 456.167,187.5 460.833,187.5 465.5,187.5C 465.666,192.179 465.499,196.845 465,201.5C 460.333,202.833 455.667,202.833 451,201.5C 450.227,196.748 450.393,192.081 451.5,187.5 Z"/></g>
<g><path style="opacity:0.855" fill="#fb8154" d="M 291.5,188.5 C 291.5,188.167 291.5,187.833 291.5,187.5C 294.167,187.5 296.833,187.5 299.5,187.5C 300.167,187.5 300.5,187.833 300.5,188.5C 300.84,191.972 300.507,194.639 299.5,196.5C 299.5,193.833 299.5,191.167 299.5,188.5C 296.833,188.5 294.167,188.5 291.5,188.5 Z"/></g>
<g><path style="opacity:0.689" fill="#fdaf92" d="M 323.5,188.5 C 319.167,188.5 314.833,188.5 310.5,188.5C 310.5,192.833 310.5,197.167 310.5,201.5C 308.152,197.075 307.985,192.408 310,187.5C 313.287,187.346 316.621,187.013 320,186.5C 321.699,186.387 322.866,187.053 323.5,188.5 Z"/></g>
<g><path style="opacity:0.424" fill="#f9b49b" d="M 370.5,201.5 C 370.5,197.167 370.5,192.833 370.5,188.5C 366.167,188.5 361.833,188.5 357.5,188.5C 360.665,187.678 363.998,187.011 367.5,186.5C 368.554,186.68 369.554,187.013 370.5,187.5C 371.812,192.318 371.812,196.985 370.5,201.5 Z"/></g>
<g><path style="opacity:0.795" fill="#fe9c77" d="M 428.5,187.5 C 432.167,187.5 435.833,187.5 439.5,187.5C 440.492,187.328 441.158,187.662 441.5,188.5C 437.167,188.5 432.833,188.5 428.5,188.5C 428.5,192.833 428.5,197.167 428.5,201.5C 427.883,201.389 427.383,201.056 427,200.5C 426.061,195.864 426.561,191.531 428.5,187.5 Z"/></g>
<g><path style="opacity:0.998" fill="#cacaca" d="M 300.5,188.5 C 301.418,197.443 303.918,206.109 308,214.5C 308.198,212.618 308.698,210.952 309.5,209.5C 309.185,213.371 309.518,217.038 310.5,220.5C 314.833,220.5 319.167,220.5 323.5,220.5C 319.688,221.324 315.688,221.824 311.5,222C 316.847,235.199 322.347,248.366 328,261.5C 331.501,279.665 324.668,292.165 307.5,299C 300.079,300.689 292.746,302.689 285.5,305C 315.165,305.5 344.831,305.667 374.5,305.5C 393.674,305.17 412.674,305.503 431.5,306.5C 372.167,306.5 312.833,306.5 253.5,306.5C 252.315,300.773 250.815,295.106 249,289.5C 248.804,287.714 247.971,286.381 246.5,285.5C 239.561,288.476 232.561,291.142 225.5,293.5C 225.5,289.833 225.5,286.167 225.5,282.5C 246.836,282.667 268.169,282.5 289.5,282C 290,281.5 290.5,281 291,280.5C 291.5,250.502 291.667,220.502 291.5,190.5C 294.45,192.115 297.116,194.115 299.5,196.5C 300.507,194.639 300.84,191.972 300.5,188.5 Z"/></g>
<g><path style="opacity:1" fill="#cacaca" d="M 120.5,197.5 C 120.333,225.169 120.5,252.835 121,280.5C 121.5,281 122,281.5 122.5,282C 144.164,282.5 165.831,282.667 187.5,282.5C 187.5,285.167 187.5,287.833 187.5,290.5C 182.428,289.822 177.428,288.822 172.5,287.5C 171.833,293.833 171.167,300.167 170.5,306.5C 141.329,306.169 112.329,306.502 83.5,307.5C 82.8333,307.5 82.5,307.167 82.5,306.5C 89.6552,305.671 96.9885,305.171 104.5,305C 95.2585,299.02 90.2585,290.52 89.5,279.5C 93.6298,263.111 97.9631,246.778 102.5,230.5C 104.091,221.894 106.591,213.561 110,205.5C 112.211,201.121 115.711,198.454 120.5,197.5 Z"/></g>
<g><path style="opacity:1" fill="#fb4502" d="M 199.5,199.5 C 216.58,199.389 222.746,207.389 218,223.5C 209.365,233.621 200.365,233.954 191,224.5C 185.89,213.4 188.723,205.066 199.5,199.5 Z"/></g>
<g><path style="opacity:0.189" fill="#f4ded6" d="M 441.5,194.5 C 442.473,196.948 442.806,199.615 442.5,202.5C 437.637,202.819 432.97,202.486 428.5,201.5C 432.833,201.5 437.167,201.5 441.5,201.5C 441.5,199.167 441.5,196.833 441.5,194.5 Z"/></g>
<g><path style="opacity:0.7" fill="#fb9d7b" d="M 323.5,207.5 C 319.167,207.5 314.833,207.5 310.5,207.5C 310.5,211.833 310.5,216.167 310.5,220.5C 309.518,217.038 309.185,213.371 309.5,209.5C 309.5,208.5 309.5,207.5 309.5,206.5C 313.324,206.326 317.158,205.993 321,205.5C 321.995,206.066 322.828,206.733 323.5,207.5 Z"/></g>
<g><path style="opacity:0.781" fill="#fcab8d" d="M 347.5,207.5 C 342.833,207.5 338.167,207.5 333.5,207.5C 336.642,206.567 339.976,205.901 343.5,205.5C 345.355,205.34 346.688,206.007 347.5,207.5 Z"/></g>
<g><path style="opacity:1" fill="#ff5318" d="M 323.5,207.5 C 324.833,211.833 324.833,216.167 323.5,220.5C 319.167,220.5 314.833,220.5 310.5,220.5C 310.5,216.167 310.5,211.833 310.5,207.5C 314.833,207.5 319.167,207.5 323.5,207.5 Z"/></g>
<g><path style="opacity:1" fill="#ff652f" d="M 333.5,207.5 C 338.167,207.5 342.833,207.5 347.5,207.5C 348.602,211.747 348.768,216.08 348,220.5C 343,221.833 338,221.833 333,220.5C 332.186,215.98 332.353,211.646 333.5,207.5 Z"/></g>
<g><path style="opacity:1" fill="#ff5c25" d="M 404.5,207.5 C 408.833,207.5 413.167,207.5 417.5,207.5C 417.5,211.833 417.5,216.167 417.5,220.5C 413.317,221.811 408.984,221.811 404.5,220.5C 403.201,216.036 403.201,211.702 404.5,207.5 Z"/></g>
<g><path style="opacity:1" fill="#fe4500" d="M 441.5,207.5 C 441.5,211.833 441.5,216.167 441.5,220.5C 437.167,220.5 432.833,220.5 428.5,220.5C 428.5,216.167 428.5,211.833 428.5,207.5C 432.833,207.5 437.167,207.5 441.5,207.5 Z"/></g>
<g><path style="opacity:0.972" fill="#e9e9e9" d="M 452.5,205.5 C 456.571,205.234 460.571,205.567 464.5,206.5C 465.493,211.12 465.827,215.786 465.5,220.5C 460.606,221.761 455.939,221.761 451.5,220.5C 450.016,215.314 450.35,210.314 452.5,205.5 Z"/></g>
<g><path style="opacity:0.989" fill="#ebebeb" d="M 477.5,184.5 C 480.85,184.335 484.183,184.502 487.5,185C 488,185.5 488.5,186 489,186.5C 489.667,191.167 489.667,195.833 489,200.5C 485.615,201.948 482.115,203.115 478.5,204C 481.165,205.201 483.998,206.035 487,206.5C 487.945,206.905 488.612,207.572 489,208.5C 491.59,220.567 486.923,224.567 475,220.5C 474.333,216.167 474.333,211.833 475,207.5C 478.333,205.5 478.333,203.5 475,201.5C 474.333,197.167 474.333,192.833 475,188.5C 475.662,187.016 476.496,185.683 477.5,184.5 Z"/></g>
<g><path style="opacity:0.712" fill="#fca584" d="M 417.5,220.5 C 417.5,216.167 417.5,211.833 417.5,207.5C 413.167,207.5 408.833,207.5 404.5,207.5C 404.611,206.883 404.944,206.383 405.5,206C 409.558,205.233 413.558,205.4 417.5,206.5C 418.812,211.318 418.812,215.985 417.5,220.5 Z"/></g>
<g><path style="opacity:0.813" fill="#fb8457" d="M 441.5,207.5 C 437.167,207.5 432.833,207.5 428.5,207.5C 428.5,211.833 428.5,216.167 428.5,220.5C 427.517,216.702 427.183,212.702 427.5,208.5C 429.397,207.195 431.731,206.529 434.5,206.5C 437.025,206.503 439.359,206.837 441.5,207.5 Z"/></g>
<g><path style="opacity:0.998" fill="#f2f2f2" d="M 102.5,230.5 C 97.9631,246.778 93.6298,263.111 89.5,279.5C 90.2585,290.52 95.2585,299.02 104.5,305C 96.9885,305.171 89.6552,305.671 82.5,306.5C 71.905,294.652 64.405,280.986 60,265.5C 57.658,250.354 63.8247,240.52 78.5,236C 86.6726,234.258 94.6726,232.425 102.5,230.5 Z"/></g>
<g><path style="opacity:1" fill="#fcb5b5" d="M 253.5,306.5 C 244.167,306.5 234.833,306.5 225.5,306.5C 225.5,302.167 225.5,297.833 225.5,293.5C 232.561,291.142 239.561,288.476 246.5,285.5C 247.971,286.381 248.804,287.714 249,289.5C 250.815,295.106 252.315,300.773 253.5,306.5 Z"/></g>
<g><path style="opacity:1" fill="#fbb4b5" d="M 187.5,290.5 C 187.5,295.833 187.5,301.167 187.5,306.5C 181.833,306.5 176.167,306.5 170.5,306.5C 171.167,300.167 171.833,293.833 172.5,287.5C 177.428,288.822 182.428,289.822 187.5,290.5 Z"/></g>
<g><path style="opacity:0.997" fill="#f2f2f2" d="M 106.5,331.5 C 120.171,331.333 133.837,331.5 147.5,332C 146.236,333.861 145.236,335.861 144.5,338C 146.51,340.167 147.844,342.667 148.5,345.5C 147.488,351.524 146.488,357.524 145.5,363.5C 142.726,362.277 140.059,360.777 137.5,359C 126.973,349.968 116.639,340.801 106.5,331.5 Z"/></g>
<g><path style="opacity:1" fill="#c8c8c9" d="M 105.5,330.5 C 182.335,330.167 259.002,330.501 335.5,331.5C 318.167,331.5 300.833,331.5 283.5,331.5C 279.233,331.203 275.066,331.536 271,332.5C 269.011,338.052 269.178,343.385 271.5,348.5C 272.476,349.815 273.476,351.148 274.5,352.5C 270.22,357.344 268.554,363.011 269.5,369.5C 268.596,370.209 268.263,371.209 268.5,372.5C 232.329,372.168 196.329,372.502 160.5,373.5C 154.976,370.908 149.976,367.575 145.5,363.5C 146.488,357.524 147.488,351.524 148.5,345.5C 147.844,342.667 146.51,340.167 144.5,338C 145.236,335.861 146.236,333.861 147.5,332C 133.837,331.5 120.171,331.333 106.5,331.5C 105.833,331.5 105.5,331.167 105.5,330.5 Z"/></g>
<g><path style="opacity:0.98" fill="#f1f1f1" d="M 283.5,331.5 C 300.833,331.5 318.167,331.5 335.5,331.5C 336.791,331.263 337.791,331.596 338.5,332.5C 337.022,332.238 335.689,332.571 334.5,333.5C 333.72,338.977 335.553,343.643 340,347.5C 340.21,345.942 340.71,344.609 341.5,343.5C 341.17,361.341 341.503,379.008 342.5,396.5C 342.833,396.5 343.167,396.5 343.5,396.5C 316.515,409.274 288.181,414.608 258.5,412.5C 262.833,412.5 267.167,412.5 271.5,412.5C 271.257,398.088 270.591,383.755 269.5,369.5C 268.554,363.011 270.22,357.344 274.5,352.5C 273.476,351.148 272.476,349.815 271.5,348.5C 273.017,348.511 274.184,349.177 275,350.5C 276.711,348.044 278.044,345.377 279,342.5C 282.72,340.233 285.887,337.4 288.5,334C 286.825,333.015 285.158,332.181 283.5,331.5 Z"/></g>
<g><path style="opacity:0.719" fill="#747385" d="M 342.5,357.5 C 360.833,357.5 379.167,357.5 397.5,357.5C 397.217,358.289 396.717,358.956 396,359.5C 378.577,358.508 361.077,358.175 343.5,358.5C 342.833,358.5 342.5,358.167 342.5,357.5 Z"/></g>
<g><path style="opacity:0.407" fill="#b6b6bf" d="M 341.5,336.5 C 342.491,343.313 342.825,350.313 342.5,357.5C 342.5,358.167 342.833,358.5 343.5,358.5C 342.699,360.042 342.366,361.708 342.5,363.5C 358.837,363.333 375.17,363.5 391.5,364C 390.956,364.717 390.289,365.217 389.5,365.5C 374.009,364.504 358.342,364.17 342.5,364.5C 342.5,375.167 342.5,385.833 342.5,396.5C 341.503,379.008 341.17,361.341 341.5,343.5C 341.5,341.167 341.5,338.833 341.5,336.5 Z"/></g>
<g><path style="opacity:1" fill="#45425b" d="M 389.5,365.5 C 375.902,378.307 360.569,388.64 343.5,396.5C 343.167,396.5 342.833,396.5 342.5,396.5C 342.5,385.833 342.5,375.167 342.5,364.5C 358.342,364.17 374.009,364.504 389.5,365.5 Z"/></g>
<g><path style="opacity:1" fill="#323143" d="M 269.5,369.5 C 270.591,383.755 271.257,398.088 271.5,412.5C 267.167,412.5 262.833,412.5 258.5,412.5C 243.332,411.208 228.666,407.708 214.5,402C 195.394,394.284 177.394,384.784 160.5,373.5C 196.329,372.502 232.329,372.168 268.5,372.5C 268.263,371.209 268.596,370.209 269.5,369.5 Z"/></g>
</svg>
