<?xml version="1.0" encoding="UTF-8"?>
<!DOCTYPE svg PUBLIC "-//W3C//DTD SVG 1.1//EN" "http://www.w3.org/Graphics/SVG/1.1/DTD/svg11.dtd">
<svg xmlns="http://www.w3.org/2000/svg" version="1.1" width="225px" height="225px" style="shape-rendering:geometricPrecision; text-rendering:geometricPrecision; image-rendering:optimizeQuality; fill-rule:evenodd; clip-rule:evenodd" xmlns:xlink="http://www.w3.org/1999/xlink">
<g><path style="opacity:0.231" fill="#c7e2d8" d="M 92.5,41.5 C 83.1667,41.5 73.8333,41.5 64.5,41.5C 64.1667,41.5 63.8333,41.5 63.5,41.5C 52.3206,41.1721 41.3206,41.5054 30.5,42.5C 29.9569,42.44 29.6236,42.1067 29.5,41.5C 50.6628,40.1718 71.6628,40.1718 92.5,41.5 Z"/></g>
<g><path style="opacity:0.212" fill="#c5e3da" d="M 131.5,41.5 C 152.337,40.1718 173.337,40.1718 194.5,41.5C 194.376,42.1067 194.043,42.44 193.5,42.5C 182.346,41.5052 171.012,41.1719 159.5,41.5C 150.167,41.5 140.833,41.5 131.5,41.5 Z"/></g>
<g><path style="opacity:1" fill="#33495d" d="M 64.5,41.5 C 73.8333,41.5 83.1667,41.5 92.5,41.5C 99.2256,51.9363 105.726,62.6029 112,73.5C 117.966,62.3983 124.466,51.7316 131.5,41.5C 140.833,41.5 150.167,41.5 159.5,41.5C 158.374,45.749 156.707,49.749 154.5,53.5C 140.707,77.0714 126.873,100.738 113,124.5C 112.333,125.833 111.667,125.833 111,124.5C 110.153,122.807 109.32,121.14 108.5,119.5C 106.095,111.466 102.095,104.466 96.5,98.5C 95.0515,93.5358 92.8848,88.8692 90,84.5C 89.1065,82.2331 87.6065,80.5664 85.5,79.5C 80.666,72.5043 76.3327,65.171 72.5,57.5C 70.904,53.2125 69.404,48.8792 68,44.5C 66.8549,43.3636 65.6883,42.3636 64.5,41.5 Z"/></g>
<g><path style="opacity:1" fill="#43b684" d="M 63.5,41.5 C 65.7072,47.3505 68.7072,52.6838 72.5,57.5C 76.3327,65.171 80.666,72.5043 85.5,79.5C 88.4124,86.3322 92.0791,92.6656 96.5,98.5C 99.7448,105.996 103.745,112.996 108.5,119.5C 109.32,121.14 110.153,122.807 111,124.5C 111.667,125.833 112.333,125.833 113,124.5C 126.873,100.738 140.707,77.0714 154.5,53.5C 157.333,49.8348 160.666,46.6682 164.5,44C 167.379,43.0426 169.879,43.5426 172,45.5C 172.772,44.1509 173.939,43.3176 175.5,43C 180.489,42.5007 185.489,42.3341 190.5,42.5C 190.5,43.8333 190.5,45.1667 190.5,46.5C 188.058,46.1192 187.391,46.7859 188.5,48.5C 186.909,50.7742 185.409,53.1076 184,55.5C 183.667,55.1667 183.333,54.8333 183,54.5C 181.933,55.1905 180.766,55.6905 179.5,56C 180.91,56.3678 181.91,57.2011 182.5,58.5C 181.316,60.0461 180.316,61.7127 179.5,63.5C 178.914,63.2907 178.414,62.9574 178,62.5C 177.498,65.5131 176.998,68.5131 176.5,71.5C 155.528,108.773 134.028,145.773 112,182.5C 84.5693,135.97 57.4026,89.3031 30.5,42.5C 41.3206,41.5054 52.3206,41.1721 63.5,41.5 Z"/></g>
<g><path style="opacity:1" fill="#275256" d="M 63.5,41.5 C 63.8333,41.5 64.1667,41.5 64.5,41.5C 65.6883,42.3636 66.8549,43.3636 68,44.5C 69.404,48.8792 70.904,53.2125 72.5,57.5C 68.7072,52.6838 65.7072,47.3505 63.5,41.5 Z"/></g>
<g><path style="opacity:1" fill="#59b58e" d="M 159.5,41.5 C 171.012,41.1719 182.346,41.5052 193.5,42.5C 188.071,52.3665 182.404,62.0332 176.5,71.5C 176.998,68.5131 177.498,65.5131 178,62.5C 178.414,62.9574 178.914,63.2907 179.5,63.5C 180.316,61.7127 181.316,60.0461 182.5,58.5C 181.91,57.2011 180.91,56.3678 179.5,56C 180.766,55.6905 181.933,55.1905 183,54.5C 183.333,54.8333 183.667,55.1667 184,55.5C 185.409,53.1076 186.909,50.7742 188.5,48.5C 187.391,46.7859 188.058,46.1192 190.5,46.5C 190.5,45.1667 190.5,43.8333 190.5,42.5C 185.489,42.3341 180.489,42.5007 175.5,43C 173.939,43.3176 172.772,44.1509 172,45.5C 169.879,43.5426 167.379,43.0426 164.5,44C 160.666,46.6682 157.333,49.8348 154.5,53.5C 156.707,49.749 158.374,45.749 159.5,41.5 Z"/></g>
<g><path style="opacity:1" fill="#295255" d="M 85.5,79.5 C 87.6065,80.5664 89.1065,82.2331 90,84.5C 92.8848,88.8692 95.0515,93.5358 96.5,98.5C 92.0791,92.6656 88.4124,86.3322 85.5,79.5 Z"/></g>
<g><path style="opacity:1" fill="#295355" d="M 96.5,98.5 C 102.095,104.466 106.095,111.466 108.5,119.5C 103.745,112.996 99.7448,105.996 96.5,98.5 Z"/></g>
</svg>
